<?xml version="1.0" encoding="UTF-8"?>
<!-- Generator: visioncortex VTracer 0.6.3 -->
<svg version="1.1" xmlns="http://www.w3.org/2000/svg" width="1280" height="1280">
<path d="M0 0 C1.68 0.29 3.34 0.62 5 1 C5 4.46 4.5 6.46 2.12 9 C0.64 10.36 -0.86 11.68 -2.38 12.97 C-4.29 14.91 -4.29 14.91 -3.86 17.61 C-2.79 20.58 -1.43 22 1 24 C3.7 24.9 5.34 25.14 8.12 25.18 C8.94 25.19 9.77 25.2 10.62 25.22 C11.5 25.22 12.39 25.23 13.3 25.24 C14.22 25.25 15.14 25.25 16.08 25.26 C18.02 25.28 19.96 25.29 21.9 25.3 C24.86 25.31 27.82 25.36 30.78 25.4 C32.66 25.41 34.55 25.42 36.43 25.43 C37.31 25.44 38.2 25.46 39.11 25.48 C43.25 25.46 45.41 25.38 48.97 23.1 C49.64 22.41 50.31 21.71 51 21 C51.66 20.34 52.32 19.68 53 19 C53.65 16.43 53.65 16.43 54 14 C53.46 13.79 52.93 13.59 52.38 13.38 C49.03 11.44 46.32 9.1 44 6 C43.62 3.12 43.62 3.12 44 1 C52 1.92 52 1.92 55 4 C55.5 5.49 55.5 5.49 56 7 C58.03 8.17 58.03 8.17 60.44 9.06 C63.25 10.19 64.84 10.84 67 13 C67.08 13.97 67.17 14.94 67.25 15.94 C67.69 19.31 67.69 19.31 71.06 20.88 C72.03 21.25 73 21.62 74 22 C74 22.66 74 23.32 74 24 C74.66 24 75.32 24 76 24 C78.22 26.3 78.97 27.52 79.19 30.75 C79.09 31.86 79.09 31.86 79 33 C75.27 32.5 73.19 32.13 70 30 C70 29.34 70 28.68 70 28 C68.51 27.5 68.51 27.5 67 27 C67 26.34 67 25.68 67 25 C62.65 24.57 60.71 24.42 57.25 27.25 C56.51 28.16 55.77 29.06 55 30 C54.46 30.51 53.93 31.03 53.38 31.56 C51.17 35.46 51.63 39.39 51.71 43.8 C51.71 44.75 51.72 45.69 51.72 46.67 C51.74 49.7 51.77 52.72 51.81 55.75 C51.83 57.8 51.84 59.86 51.85 61.91 C51.89 66.94 51.94 71.97 52 77 C52.63 77.11 53.27 77.22 53.92 77.34 C54.95 77.67 54.95 77.67 56 78 C57.25 80.56 57.25 80.56 58 83 C61.9 82.73 63.68 82.28 66.69 79.69 C68.97 77.15 68.97 77.15 70.5 74.75 C72.47 72.45 74.05 72.32 77 72 C77 70.02 77 68.04 77 66 C80.07 64.98 82.16 64.87 85.37 64.87 C86.47 64.87 87.57 64.86 88.7 64.86 C89.88 64.86 91.07 64.87 92.29 64.87 C93.5 64.87 94.72 64.87 95.97 64.86 C98.54 64.86 101.1 64.87 103.67 64.87 C107.62 64.87 111.56 64.87 115.51 64.86 C118 64.86 120.49 64.87 122.98 64.87 C124.17 64.87 125.35 64.86 126.58 64.86 C127.67 64.86 128.76 64.87 129.89 64.87 C130.85 64.87 131.82 64.87 132.81 64.87 C135 65 135 65 136 66 C136.1 67.68 136.14 69.36 136.15 71.04 C136.15 72.11 136.16 73.19 136.16 74.3 C136.17 76.05 136.17 76.05 136.17 77.84 C136.17 79.03 136.17 80.22 136.18 81.45 C136.18 83.98 136.19 86.51 136.19 89.04 C136.19 92.92 136.21 96.8 136.22 100.68 C136.23 103.13 136.23 105.58 136.23 108.03 C136.24 109.2 136.24 110.36 136.25 111.57 C136.25 112.64 136.25 113.72 136.24 114.83 C136.24 115.78 136.25 116.74 136.25 117.72 C136 120 136 120 134 122 C134 121.01 134 120.02 134 119 C133.67 119.66 133.34 120.32 133 121 C116.22 123.8 99.01 122.62 82 123 C81.67 154.68 81.34 186.36 81 219 C81.99 218.67 82.98 218.34 84 218 C86.97 217.94 89.91 217.93 92.88 217.98 C93.79 217.99 94.69 218 95.63 218.01 C98.63 218.04 101.63 218.08 104.64 218.12 C106.72 218.15 108.8 218.17 110.88 218.19 C116.36 218.26 121.84 218.32 127.32 218.39 C132.91 218.47 138.5 218.53 144.09 218.6 C155.06 218.72 166.03 218.86 177 219 C178.26 215.12 178.15 211.24 178.15 207.21 C178.16 206.42 178.16 205.63 178.16 204.82 C178.18 202.17 178.18 199.52 178.19 196.88 C178.2 194.98 178.21 193.08 178.21 191.19 C178.23 187.1 178.25 183.01 178.26 178.93 C178.28 172.47 178.31 166.01 178.34 159.55 C178.4 144.68 178.46 129.81 178.51 114.94 C178.56 101.31 178.62 87.67 178.68 74.04 C178.71 67.62 178.73 61.2 178.75 54.77 C178.76 50.78 178.78 46.79 178.8 42.8 C178.81 40.95 178.81 39.09 178.82 37.24 C178.82 34.71 178.83 32.19 178.85 29.66 C178.85 28.92 178.85 28.18 178.85 27.42 C178.87 24.34 179.02 21.95 180 19 C209.16 18.98 238.31 18.96 267.47 18.95 C270.91 18.95 274.35 18.95 277.78 18.95 C278.47 18.94 279.15 18.94 279.86 18.94 C290.96 18.94 302.06 18.93 313.16 18.92 C324.54 18.91 335.92 18.91 347.3 18.91 C353.69 18.9 360.09 18.9 366.48 18.89 C372.5 18.89 378.51 18.89 384.52 18.89 C386.73 18.89 388.95 18.88 391.16 18.88 C394.17 18.88 397.18 18.88 400.19 18.88 C401.07 18.88 401.96 18.87 402.88 18.87 C408.89 18.89 408.89 18.89 410 20 C412.35 20.25 414.67 20.43 417.03 20.55 C417.82 20.6 418.6 20.64 419.41 20.68 C432.33 21.28 445.27 21.14 458.19 21.13 C462.26 21.13 466.33 21.13 470.39 21.13 C478.34 21.14 486.28 21.14 494.22 21.14 C500.68 21.13 507.14 21.13 513.6 21.13 C514.53 21.13 515.45 21.13 516.4 21.13 C518.28 21.13 520.15 21.13 522.03 21.14 C539.57 21.14 557.11 21.13 574.65 21.13 C589.68 21.12 604.7 21.13 619.73 21.13 C637.22 21.14 654.71 21.14 672.19 21.13 C674.06 21.13 675.93 21.13 677.8 21.13 C679.17 21.13 679.17 21.13 680.58 21.13 C687.03 21.13 693.48 21.13 699.92 21.14 C707.79 21.14 715.65 21.14 723.52 21.13 C727.52 21.13 731.53 21.13 735.53 21.13 C739.21 21.14 742.89 21.13 746.56 21.13 C748.5 21.13 750.44 21.13 752.38 21.13 C767.33 21.34 767.33 21.34 782 19 C783.71 18.91 785.43 18.86 787.14 18.85 C788.68 18.85 788.68 18.85 790.25 18.84 C791.36 18.83 792.46 18.83 793.61 18.83 C794.76 18.83 795.91 18.83 797.1 18.82 C799.55 18.82 801.99 18.81 804.44 18.81 C808.13 18.81 811.82 18.79 815.51 18.78 C828.16 18.75 840.48 19.03 853 21 C854.14 21.18 855.28 21.35 856.46 21.53 C859.31 21.99 862.15 22.49 865 23 C865.89 23.14 866.77 23.28 867.69 23.43 C888.12 26.81 908.64 34.55 927 44 C933.94 47.54 933.94 47.54 941.06 50.69 C944 52 944 52 945 54 C946.76 55.07 948.57 55.97 950.41 56.9 C952 58 952 58 953 61 C953.7 61.04 954.4 61.08 955.12 61.12 C958.66 62.2 960.05 63.86 962.52 66.51 C964.46 68.46 966.59 69.7 969 71 C969.99 71.66 970.98 72.32 972 73 C972 73.66 972 74.32 972 75 C972.59 75.26 973.17 75.51 973.77 75.78 C976.19 77.11 977.73 78.57 979.62 80.56 C982.05 83.14 982.05 83.14 985 85 C985 85.99 985 86.98 985 88 C985.66 88 986.32 88 987 88 C987 88.66 987 89.32 987 90 C987.99 90.33 988.98 90.66 990 91 C992 94 992 94 992 97 C990.62 98.69 990.62 98.69 989 100 C988.34 100 987.68 100 987 100 C987 100.66 987 101.32 987 102 C985.53 103.45 985.53 103.45 983.5 105.12 C979.09 108.86 975.03 112.87 971 117 C970.01 116.67 969.02 116.34 968 116 C968 116.99 968 117.98 968 119 C966.67 120.4 966.67 120.4 964.75 121.94 C960.21 125.71 956.13 129.84 952.04 134.09 C950.73 135.43 949.37 136.72 948 138 C947.34 138 946.68 138 946 138 C946 138.66 946 139.32 946 140 C944.88 140.66 943.76 141.33 942.61 142.01 C935.94 146.01 930.99 151.95 925.71 157.58 C924.5 158.83 924.5 158.83 923.27 160.12 C922.18 161.27 922.18 161.27 921.07 162.45 C919 164 919 164 916.92 163.91 C913.64 162.36 911.38 159.61 908.94 157 C905.05 152.68 905.05 152.68 900 150 C899.67 149.01 899.34 148.02 899 147 C898.34 146.67 897.68 146.34 897 146 C897 145.34 897 144.68 897 144 C896.24 143.9 895.47 143.79 894.69 143.69 C891.65 142.91 891.12 142.2 889 140 C883.52 136.64 877.77 133.83 872 131 C872 130.34 872 129.68 872 129 C871.34 128.9 870.68 128.79 870 128.69 C867.57 128.13 865.5 127.46 863.19 126.56 C859.18 125.01 855.18 123.97 851 123 C851 122.34 851 121.68 851 121 C850.32 121.02 849.65 121.05 848.95 121.07 C848.06 121.09 847.17 121.11 846.25 121.12 C845.37 121.15 844.49 121.17 843.58 121.2 C841 121 841 121 839.12 120 C836.74 118.88 835.19 118.75 832.57 118.74 C831.7 118.73 830.83 118.73 829.94 118.72 C829.01 118.73 828.08 118.73 827.12 118.73 C826.16 118.73 825.2 118.73 824.21 118.73 C822.18 118.73 820.15 118.73 818.12 118.74 C815.01 118.75 811.9 118.74 808.8 118.73 C806.82 118.73 804.85 118.73 802.88 118.73 C801.95 118.73 801.02 118.73 800.06 118.72 C799.19 118.73 798.32 118.73 797.43 118.74 C796.67 118.74 795.91 118.74 795.12 118.75 C792.72 119.03 791.13 119.87 789 121 C786.42 121.2 786.42 121.2 783.75 121.12 C782.86 121.11 781.97 121.09 781.05 121.07 C780.37 121.05 779.7 121.02 779 121 C779 121.66 779 122.32 779 123 C777.8 123.29 776.61 123.58 775.38 123.88 C772.73 124.53 770.21 125.26 767.62 126.12 C765 127 765 127 763 127 C763 127.66 763 128.32 763 129 C761.35 129 759.7 129 758 129 C758 129.66 758 130.32 758 131 C757.22 131.35 756.43 131.7 755.62 132.06 C751.66 134.03 748.15 136.61 744.56 139.18 C742.8 140.43 741 141.62 739.17 142.76 C735.14 145.61 731.78 148.89 728.31 152.38 C727.65 153.02 726.99 153.67 726.3 154.34 C722.65 157.99 720.09 161.2 718 166 C717 167 716 168 715 169 C714.29 171.1 714.29 171.1 714 173 C713.34 173 712.68 173 712 173 C711.9 173.72 711.79 174.44 711.69 175.19 C710.93 178.29 709.68 180.29 708 183 C706.44 186.42 705.06 189.81 703.88 193.38 C703 196 703 196 702 197 C702.02 198.11 702.04 199.23 702.06 200.38 C702 204 702 204 700 207 C699.56 209.2 699.56 209.2 699.4 211.63 C699.32 212.52 699.24 213.41 699.16 214.32 C699.05 215.71 699.05 215.71 698.94 217.12 C698.78 218.96 698.63 220.8 698.46 222.63 C698.4 223.45 698.33 224.26 698.27 225.1 C698 227 698 227 697 228 C696.87 230.55 696.81 233.07 696.81 235.62 C696.8 236.32 696.79 237.02 696.78 237.75 C696.76 242.52 697.62 246.4 699 251 C699.34 254.31 699.5 257.59 699.66 260.91 C700 263.98 700.82 266.18 702 269 C702.08 271.33 702.09 273.67 702 276 C702.66 276 703.32 276 704 276 C704.33 278.64 704.66 281.28 705 284 C705.66 284 706.32 284 707 284 C707 285.65 707 287.3 707 289 C707.66 289 708.32 289 709 289 C711.03 292.73 712 294.67 712 299 C712.66 299 713.32 299 714 299 C714.39 299.87 714.78 300.73 715.19 301.62 C716.61 304.26 717.76 306 719.69 308.19 C722 311 722 311 722 314 C722.9 314.4 722.9 314.4 723.81 314.81 C726 316 727.41 317.1 729 319 C729 319.66 729 320.32 729 321 C729.84 321.34 729.84 321.34 730.69 321.69 C734.2 323.68 736.78 326.56 739.38 329.62 C741.94 331.8 744.88 332.77 748 334 C748 334.99 748 335.98 748 337 C749.65 337 751.3 337 753 337 C753 337.66 753 338.32 753 339 C773.13 347.67 791.27 353.39 813.38 353.21 C815.72 353.19 818.07 353.19 820.41 353.19 C821.9 353.18 823.4 353.17 824.89 353.17 C825.59 353.17 826.29 353.17 827.01 353.16 C830.29 353.41 830.29 353.41 833 352 C836 351.71 839.01 351.55 842.02 351.38 C844.88 351.02 846.51 350.36 849 349 C850.07 348.86 851.14 348.71 852.25 348.56 C856.5 347.92 860.04 346.6 864 345 C867.65 343.61 871.3 342.23 875 341 C876.09 338.16 876.12 335.42 876.11 332.39 C876.1 331.01 876.1 331.01 876.1 329.61 C876.09 328.1 876.09 328.1 876.08 326.57 C876.08 324.98 876.08 324.98 876.07 323.36 C876.07 321.06 876.06 318.75 876.04 316.45 C876.03 312.81 876.02 309.17 876.01 305.54 C875.98 295.19 875.95 284.85 875.9 274.5 C875.88 268.17 875.86 261.85 875.85 255.52 C875.84 253.11 875.83 250.69 875.82 248.28 C875.8 244.91 875.79 241.54 875.79 238.17 C875.78 237.16 875.77 236.16 875.76 235.12 C875.76 234.21 875.76 233.29 875.77 232.35 C875.76 231.55 875.76 230.76 875.76 229.94 C876 228 876 228 878 226 C879.85 225.75 879.85 225.75 882.14 225.75 C883 225.75 883.87 225.74 884.76 225.74 C885.72 225.75 886.67 225.75 887.65 225.76 C889.15 225.75 889.15 225.75 890.69 225.75 C894.01 225.75 897.33 225.76 900.66 225.77 C902.96 225.77 905.26 225.77 907.56 225.77 C912.39 225.77 917.22 225.78 922.05 225.79 C928.25 225.81 934.45 225.82 940.65 225.81 C945.4 225.81 950.16 225.82 954.91 225.83 C957.2 225.83 959.49 225.83 961.77 225.83 C964.97 225.84 968.16 225.84 971.35 225.85 C972.3 225.85 973.26 225.85 974.24 225.85 C975.1 225.86 975.97 225.86 976.86 225.87 C978 225.87 978 225.87 979.15 225.87 C981 226 981 226 983 227 C983.14 249.47 983.25 271.94 983.31 294.41 C983.34 304.84 983.38 315.28 983.45 325.71 C983.51 334.8 983.55 343.89 983.56 352.99 C983.57 357.8 983.59 362.62 983.63 367.43 C983.68 371.96 983.69 376.5 983.68 381.03 C983.68 382.69 983.69 384.35 983.72 386.02 C983.75 388.29 983.74 390.56 983.72 392.83 C983.73 394.1 983.73 395.37 983.74 396.68 C982.7 401.34 980.9 402.36 977 405 C974.62 405.81 974.62 405.81 973 406 C973 406.66 973 407.32 973 408 C972.5 408.26 972 408.51 971.49 408.78 C969.22 409.95 966.95 411.13 964.69 412.31 C963.9 412.72 963.12 413.12 962.31 413.54 C961.55 413.93 960.79 414.33 960.01 414.74 C958.97 415.28 958.97 415.28 957.9 415.83 C955.95 417.03 954.6 418.39 953 420 C950.91 420.95 948.78 421.82 946.62 422.62 C945.5 423.05 944.38 423.48 943.23 423.91 C940.47 424.84 937.86 425.52 935 426 C935 426.66 935 427.32 935 428 C933.59 428.51 932.17 429.01 930.75 429.5 C929.96 429.78 929.17 430.06 928.36 430.34 C926 431 926 431 922 431 C922 431.66 922 432.32 922 433 C921.15 433.28 920.29 433.55 919.41 433.84 C918.31 434.2 917.2 434.56 916.06 434.94 C914.96 435.3 913.86 435.66 912.72 436.03 C910.12 436.74 910.12 436.74 909 438 C906.43 438.57 903.84 439.03 901.25 439.5 C899.04 439.78 899.04 439.78 898 441 C896 441.04 894 441.04 892 441 C892 441.66 892 442.32 892 443 C891.4 443.05 890.79 443.1 890.17 443.15 C888.97 443.26 888.97 443.26 887.75 443.38 C886.96 443.44 886.17 443.51 885.36 443.59 C882.99 443.89 882.99 443.89 880.99 445 C878.71 446.15 876.91 446.36 874.38 446.56 C871.06 446.82 871.06 446.82 868 448 C864.69 448.28 861.38 448.45 858.07 448.62 C854.83 448.79 854.83 448.79 852 451 C849.56 451.3 849.56 451.3 846.71 451.38 C845.69 451.41 844.66 451.45 843.61 451.48 C842.54 451.51 841.47 451.54 840.38 451.56 C838.26 451.62 836.14 451.69 834.02 451.75 C832.61 451.79 832.61 451.79 831.18 451.83 C829.02 451.76 829.02 451.76 828 453 C825.54 453.24 823.1 453.43 820.62 453.56 C819.54 453.63 819.54 453.63 818.42 453.69 C794.02 455.01 794.02 455.01 788 452 C786.54 451.85 785.07 451.75 783.61 451.69 C782.7 451.65 781.79 451.6 780.85 451.56 C779.87 451.52 778.88 451.48 777.86 451.44 C776.31 451.38 776.31 451.38 774.73 451.32 C763.58 450.9 752.44 450.87 741.28 450.89 C739.01 450.89 736.74 450.89 734.47 450.89 C728.39 450.89 722.31 450.89 716.22 450.9 C709.84 450.9 703.45 450.91 697.07 450.91 C686.38 450.91 675.69 450.92 665 450.92 C654 450.93 643 450.94 632 450.95 C630.98 450.95 630.98 450.95 629.94 450.95 C626.52 450.95 623.11 450.95 619.69 450.95 C591.46 450.96 563.23 450.98 535 451 C535 450.34 535 449.68 535 449 C533.84 449.03 532.67 449.06 531.48 449.09 C502.64 449.83 473.84 450.14 445 450 C445 450.33 445 450.66 445 451 C444.3 451.06 443.6 451.12 442.88 451.18 C441.52 451.31 441.52 451.31 440.12 451.44 C439.22 451.52 438.32 451.6 437.38 451.68 C434.99 451.87 434.99 451.87 433 453 C430.6 453.38 428.22 453.71 425.81 454 C424.52 454.16 423.23 454.33 421.89 454.5 C407.94 456.01 394.06 456.15 380.04 456.15 C377.87 456.15 375.69 456.15 373.51 456.16 C367.65 456.16 361.78 456.17 355.92 456.17 C352.25 456.17 348.59 456.17 344.92 456.17 C332.13 456.18 319.35 456.19 306.56 456.19 C294.63 456.18 282.71 456.2 270.78 456.21 C260.53 456.22 250.28 456.23 240.03 456.23 C233.92 456.23 227.8 456.23 221.68 456.24 C215.94 456.25 210.2 456.25 204.47 456.24 C202.36 456.24 200.25 456.25 198.14 456.25 C195.27 456.26 192.4 456.25 189.53 456.25 C188.69 456.25 187.84 456.26 186.97 456.26 C181.23 456.23 181.23 456.23 179 454 C178.75 451.72 178.75 451.72 178.76 448.82 C178.76 447.18 178.76 447.18 178.75 445.5 C178.76 443.69 178.76 443.69 178.77 441.84 C178.77 440.57 178.77 439.3 178.77 438 C178.77 434.51 178.78 431.03 178.8 427.55 C178.81 423.91 178.81 420.27 178.81 416.63 C178.82 409.74 178.84 402.85 178.86 395.96 C178.88 388.11 178.89 380.27 178.9 372.42 C178.92 356.28 178.96 340.14 179 324 C177.78 323.99 176.55 323.98 175.29 323.97 C163.79 323.87 152.28 323.77 140.77 323.66 C134.85 323.61 128.94 323.55 123.02 323.5 C117.32 323.46 111.61 323.4 105.9 323.35 C103.72 323.33 101.54 323.31 99.36 323.29 C96.31 323.27 93.27 323.24 90.22 323.21 C89.31 323.2 88.4 323.19 87.47 323.19 C81.23 323.11 81.23 323.11 79 322 C77.56 318.28 77.83 314.25 77.81 310.32 C77.8 309.55 77.79 308.78 77.79 307.98 C77.77 306.31 77.75 304.64 77.74 302.97 C77.72 300.32 77.69 297.66 77.66 295.01 C77.6 289.36 77.55 283.71 77.5 278.06 C77.44 271.54 77.38 265.02 77.31 258.5 C77.28 255.91 77.26 253.31 77.24 250.72 C77.15 241.77 76.85 232.92 76 224 C74.82 224 73.63 224 72.41 224 C61.27 223.98 50.14 223.94 39 223.87 C33.27 223.83 27.54 223.81 21.81 223.8 C16.29 223.8 10.77 223.77 5.24 223.73 C3.13 223.71 1.02 223.71 -1.09 223.71 C-4.04 223.72 -6.99 223.69 -9.94 223.66 C-10.82 223.67 -11.69 223.68 -12.6 223.69 C-18.4 223.58 -18.4 223.58 -21.04 221.06 C-22.38 216.8 -22.4 212.89 -22.36 208.45 C-22.36 207.5 -22.36 206.54 -22.36 205.56 C-22.37 202.41 -22.35 199.26 -22.33 196.11 C-22.33 193.92 -22.32 191.73 -22.32 189.55 C-22.32 184.97 -22.3 180.39 -22.28 175.81 C-22.25 169.92 -22.24 164.04 -22.24 158.16 C-22.23 153.64 -22.22 149.13 -22.21 144.61 C-22.21 142.44 -22.2 140.27 -22.2 138.1 C-22.19 135.08 -22.18 132.05 -22.16 129.03 C-22.16 128.13 -22.16 127.22 -22.16 126.29 C-22.11 120.11 -22.11 120.11 -21 119 C-17.96 118.9 -14.93 118.87 -11.89 118.89 C-10.93 118.89 -9.98 118.89 -8.99 118.89 C-5.82 118.89 -2.64 118.89 0.54 118.9 C2.73 118.9 4.93 118.91 7.12 118.91 C12.91 118.91 18.71 118.92 24.5 118.93 C30.4 118.94 36.31 118.95 42.21 118.95 C53.81 118.96 65.4 118.98 77 119 C77.02 114.23 77.04 109.46 77.05 104.69 C77.06 103.07 77.07 101.45 77.08 99.83 C77.09 97.49 77.09 95.16 77.1 92.83 C77.1 92.11 77.11 91.38 77.11 90.64 C77.11 87.28 77.05 84.21 76 81 C71.37 84.51 68.48 86.84 67.19 92.62 C66 96 66 96 63 97.5 C60 98 60 98 58 97 C57.63 97.87 57.63 97.87 57.25 98.75 C55.82 101.33 54.22 103.06 52 105 C51.34 105 50.68 105 50 105 C50 105.66 50 106.32 50 107 C48.35 107 46.7 107 45 107 C44.22 105.31 44.22 105.31 44 103 C46.17 100.27 48.6 97.96 51.09 95.54 C53.28 93.17 53.28 93.17 52.97 90.31 C52.11 87.68 52.11 87.68 49 86 C49 85.34 49 84.68 49 84 C42.09 84.04 35.19 84.11 28.28 84.21 C25.94 84.24 23.59 84.26 21.24 84.27 C17.86 84.29 14.49 84.34 11.11 84.39 C10.06 84.39 9.01 84.39 7.92 84.39 C2.26 84.42 2.26 84.42 -2.69 86.89 C-4.19 88.93 -4.19 88.93 -4.12 91.44 C-2.95 94.1 -2.16 94.87 0.06 96.62 C1.03 97.41 2 98.19 3 99 C3 99.99 3 100.98 3 102 C3.66 102 4.32 102 5 102 C5 103.65 5 105.3 5 107 C1.08 106.04 -1.42 104.79 -4.31 102.06 C-7.64 99.01 -10.74 97.84 -15.08 96.74 C-17 96 -17 96 -19 93 C-19.29 92.01 -19.58 91.02 -19.88 90 C-21.11 86.7 -22.15 85.9 -25 84 C-25 83.34 -25 82.68 -25 82 C-25.99 81.67 -26.98 81.34 -28 81 C-29.45 78.1 -30 76.26 -30 73 C-26.27 73.5 -24.19 73.87 -21 76 C-21 76.66 -21 77.32 -21 78 C-20.34 78 -19.68 78 -19 78 C-18.04 78.99 -18.04 78.99 -17.06 80 C-15.12 82.35 -15.12 82.35 -12 82 C-11.67 81.34 -11.34 80.68 -11 80 C-9.52 79.5 -9.52 79.5 -8 79 C-7.97 71.65 -7.96 64.3 -7.95 56.95 C-7.94 54.45 -7.93 51.94 -7.92 49.44 C-7.91 45.85 -7.91 42.26 -7.9 38.67 C-7.9 37.55 -7.89 36.42 -7.89 35.27 C-7.89 34.23 -7.89 33.19 -7.89 32.11 C-7.88 30.74 -7.88 30.74 -7.88 29.33 C-7.9 26.84 -7.9 26.84 -9 24 C-12.4 24.1 -12.4 24.1 -16 25 C-17.81 27.37 -17.81 27.37 -19 30 C-22 32 -22 32 -25 32 C-25 32.66 -25 33.32 -25 34 C-26.32 34 -27.64 34 -29 34 C-29.66 32.02 -30.32 30.04 -31 28 C-30.24 27.4 -29.47 26.8 -28.69 26.19 C-25.5 23.59 -23.28 21.43 -21 18 C-20.67 18.33 -20.34 18.66 -20 19 C-19.55 17.91 -19.09 16.81 -18.62 15.69 C-17.58 13.18 -16.54 11.3 -15 9 C-11.88 7.81 -11.88 7.81 -9 7 C-9 7.66 -9 8.32 -9 9 C-8.34 9 -7.68 9 -7 9 C-6.91 7.86 -6.91 7.86 -6.81 6.69 C-6 4 -6 4 -3.5 2.25 C-2.67 1.84 -1.85 1.43 -1 1 C-0.67 0.67 -0.34 0.34 0 0 Z M2 2 C2.99 3.49 2.99 3.49 4 5 C4 4.01 4 3.02 4 2 C3.34 2 2.68 2 2 2 Z M-2 7 C-1 9 -1 9 -1 9 Z M76 28 C76 28.99 76 29.98 76 31 C76.66 31 77.32 31 78 31 C77.67 30.01 77.34 29.02 77 28 C76.67 28 76.34 28 76 28 Z M521 55 C521.63 55.46 522.26 55.93 522.91 56.41 C525 58 525 58 526.38 59.5 C528.08 61.21 528.08 61.21 531 62.5 C534 64 534 64 535.56 65.62 C537.53 67.51 539.36 67.64 542 68 C542 68.66 542 69.32 542 70 C543.54 71.56 543.54 71.56 545.56 73.06 C546.22 73.59 546.89 74.12 547.57 74.66 C552.6 77.43 558.19 77.1 563.78 76.66 C565.04 76.57 566.29 76.47 567.58 76.38 C568.87 76.27 570.17 76.17 571.5 76.06 C574.07 75.86 576.65 75.67 579.22 75.47 C580.35 75.38 581.49 75.29 582.65 75.2 C585.01 75.06 587.38 75.01 589.74 75.03 C593.01 75.17 593.01 75.17 596 74 C597.91 73.86 599.82 73.78 601.73 73.72 C602.84 73.68 603.95 73.64 605.1 73.61 C607.46 73.53 609.82 73.46 612.17 73.39 C613.28 73.36 614.39 73.32 615.54 73.28 C616.56 73.25 617.59 73.22 618.64 73.19 C620.96 73.26 620.96 73.26 622 72 C624.32 71.82 626.64 71.7 628.96 71.61 C630.39 71.54 631.83 71.47 633.27 71.4 C635.54 71.29 637.81 71.19 640.08 71.1 C642.27 71.02 644.46 70.91 646.64 70.79 C647.96 70.74 649.27 70.68 650.62 70.62 C654.48 69.91 655.55 68.95 658 66 C659.65 64.98 661.32 63.97 663 63 C663.66 62.34 664.32 61.68 665 61 C667.12 60.38 667.12 60.38 669 60 C669 59.34 669 58.68 669 58 C669.99 57.67 670.98 57.34 672 57 C671.67 56.34 671.34 55.68 671 55 C621.04 52.96 570.98 53.85 521 55 Z M75 75 C76 77 76 77 76 77 Z M-7 85 C-6 87 -6 87 -6 87 Z M64 86 C64 86.99 64 87.98 64 89 C64.99 88.67 65.98 88.34 67 88 C66.67 87.34 66.34 86.68 66 86 C65.34 86 64.68 86 64 86 Z M61 94 C62 96 62 96 62 96 Z M989 94 C988.67 94.99 988.34 95.98 988 97 C988.99 96.67 989.98 96.34 991 96 C990.34 95.34 989.68 94.68 989 94 Z M575 101 C581.14 111.2 581.14 111.2 588 121 C588.66 121 589.32 121 590 121 C590.31 121.64 590.62 122.28 590.94 122.94 C591.83 124.94 591.83 124.94 593 126 C594.79 126.13 596.58 126.18 598.38 126.19 C599.35 126.2 600.33 126.22 601.34 126.23 C604.23 126.2 604.23 126.2 607 124 C608.02 122.01 609.02 120.01 610 118 C610.66 117.67 611.32 117.34 612 117 C613.17 114.37 614.09 111.73 615 109 C615.99 108.67 616.98 108.34 618 108 C618.99 105.69 619.98 103.38 621 101 C605.82 101 590.64 101 575 101 Z M314 104 C312.5 108.22 311.79 111.5 312 116 C311.34 116 310.68 116 310 116 C310.05 116.86 310.05 116.86 310.11 117.73 C310.28 122.82 309.82 127.25 308.56 132.19 C306.95 138.53 306.49 144.57 306.21 151.08 C306 154 306 154 305 155 C304.79 156.55 304.63 158.1 304.5 159.66 C304.42 160.6 304.33 161.54 304.25 162.5 C304.17 163.49 304.08 164.48 304 165.5 C303.84 167.45 303.67 169.4 303.5 171.34 C303.43 172.21 303.36 173.08 303.28 173.97 C303 176 303 176 302 177 C301.81 179.02 301.67 181.04 301.56 183.06 C301.22 188.52 300.67 193.89 299.94 199.31 C299.19 204.92 298.8 210.34 299 216 C298.34 216 297.68 216 297 216 C296.95 216.67 296.9 217.34 296.85 218.03 C296.59 221.35 296.3 224.68 296 228 C295.94 228.73 295.87 229.46 295.8 230.2 C295.59 232.51 295.36 234.82 295.12 237.12 C295.06 237.87 294.99 238.62 294.92 239.39 C294.7 241.51 294.7 241.51 294 245 C292.51 245.99 292.51 245.99 291 247 C289.83 246.12 288.67 245.25 287.5 244.38 C286.78 243.83 286.05 243.29 285.3 242.73 C283.78 241.59 282.27 240.43 280.76 239.27 C280.05 238.72 279.35 238.18 278.62 237.62 C277.98 237.12 277.33 236.62 276.66 236.1 C275.05 234.82 275.05 234.82 273 235 C273 234.01 273 233.02 273 232 C268.74 229.64 268.74 229.64 264 229 C264 236.59 264 244.18 264 252 C266.31 253.32 268.62 254.64 271 256 C271.33 256.66 271.66 257.32 272 258 C274 259 276 260 278 261 C280.48 262.58 282.86 264.28 285.25 266 C285.87 266.44 286.5 266.88 287.14 267.33 C290.02 269.39 292.01 271.02 294 274 C295.63 275.06 297.31 276.04 299 277 C300.38 277.82 301.75 278.66 303.12 279.5 C303.79 279.9 304.45 280.3 305.13 280.72 C306.99 281.99 308.43 283.4 310 285 C310.6 285.29 311.2 285.58 311.81 285.88 C315.42 287.73 319.16 290.32 321 294 C322.98 295.04 324.98 296.03 327 297 C330.59 299.08 333.09 301.09 336 304 C335.67 304.99 335.34 305.98 335 307 C332.93 307.95 332.93 307.95 330.44 308.69 C329.2 309.06 329.2 309.06 327.93 309.45 C326.98 309.72 326.98 309.72 326 310 C326 310.66 326 311.32 326 312 C324.08 312.19 324.08 312.19 322.12 312.38 C318.65 312.69 318.65 312.69 316 315 C315.67 314.34 315.34 313.68 315 313 C314.67 314.32 314.34 315.64 314 317 C312.93 317.18 312.93 317.18 311.84 317.36 C308.88 318.03 306.36 319 303.59 320.21 C302.58 320.65 301.57 321.09 300.53 321.54 C299.49 322 298.45 322.46 297.38 322.94 C296.33 323.39 295.28 323.85 294.2 324.32 C288.42 326.83 288.42 326.83 283 330 C282.59 332.03 282.59 332.03 282.71 334.35 C282.72 335.2 282.73 336.05 282.74 336.93 C282.76 337.82 282.79 338.71 282.81 339.62 C282.83 340.52 282.84 341.42 282.85 342.34 C282.89 344.56 282.94 346.78 283 349 C283.66 349 284.32 349 285 349 C285 348.01 285 347.02 285 346 C286.05 346.37 286.05 346.37 287.12 346.75 C291.16 347.1 292.71 345.26 296 343 C298.65 342.12 301.25 341.57 304 341 C304 340.67 304 340.34 304 340 C305.65 339.67 307.3 339.34 309 339 C309 338.34 309 337.68 309 337 C311.31 336.67 313.62 336.34 316 336 C316 335.67 316 335.34 316 335 C316.63 334.81 317.25 334.61 317.9 334.41 C318.72 334.15 319.53 333.89 320.38 333.62 C321.19 333.37 322 333.11 322.84 332.85 C325.16 332.1 325.16 332.1 327 330 C329.32 329.29 331.66 328.63 334 328 C337.49 326.93 339.95 326.03 343 324 C344.47 323.46 345.95 322.96 347.44 322.5 C351.74 321.16 355.24 319.51 359 317 C360.66 316.62 362.32 316.27 364 316 C364 315.34 364 314.68 364 314 C365.61 313.85 365.61 313.85 367.25 313.69 C371.1 312.98 372.03 312.25 375 310 C377.02 309.39 379.06 308.92 381.12 308.46 C384.55 307.62 386.9 306.07 389.75 304 C393.56 301.65 396.64 300.9 401 300 C401 299.67 401 299.34 401 299 C402.65 298.67 404.3 298.34 406 298 C406 297.34 406 296.68 406 296 C407.65 296.33 409.3 296.66 411 297 C411.92 302.15 412.03 305.53 410.54 310.61 C409.58 314.85 409.48 319.18 409.21 323.52 C409.03 326.54 408.79 329.55 408.5 332.56 C408.43 333.31 408.36 334.05 408.28 334.82 C408 337 408 337 407.54 339.23 C406.79 343.07 406.37 346.93 405.94 350.81 C405.85 351.58 405.76 352.35 405.66 353.14 C405.1 358.13 404.91 362.98 405 368 C407.08 367.89 409.17 367.76 411.25 367.62 C412.41 367.56 413.57 367.49 414.77 367.41 C417.74 367.03 419.56 366.7 422 365 C423.29 361.96 423.29 361.96 424 359 C424.33 359 424.66 359 425 359 C425.66 350.75 426.32 342.5 427 334 C427.33 334 427.66 334 428 334 C428.33 327.73 428.66 321.46 429 315 C429.33 315 429.66 315 430 315 C430.66 307.74 431.32 300.48 432 293 C432.33 293 432.66 293 433 293 C433.07 291.32 433.07 291.32 433.15 289.6 C433.81 275.85 433.81 275.85 435.52 269.4 C436.65 263.72 436.71 257.78 437 252 C437.33 252 437.66 252 438 252 C438.07 250.41 438.07 250.41 438.15 248.78 C438.86 234.84 438.86 234.84 441 228 C442.76 229.04 444.52 230.08 446.27 231.12 C447.97 232.15 447.97 232.15 450 232 C450 232.66 450 233.32 450 234 C451.66 235.01 453.33 236.01 455 237 C455.66 237.99 456.32 238.98 457 240 C460.23 242.31 460.23 242.31 464 243 C464 243.66 464 244.32 464 245 C466.97 245.99 466.97 245.99 470 247 C470 247.66 470 248.32 470 249 C472.64 251.4 472.64 251.4 476 252 C476.4 252.96 476.4 252.96 476.81 253.94 C477.89 256.33 477.89 256.33 481 257 C482.4 258.17 483.8 259.34 485.18 260.54 C487.98 262.79 491.01 264.66 494.05 266.57 C496 268 496 268 498 271 C499.99 272.02 501.99 273.02 504 274 C504.33 274.66 504.66 275.32 505 276 C508.47 275.01 508.47 275.01 512 274 C512.28 272.4 512.54 270.8 512.73 269.19 C513 267 513 267 513.49 264.62 C513.87 261.68 513.91 259.84 513 257 C509.38 253.33 505.46 250.56 501 248 C500.34 248 499.68 248 499 248 C498.67 247.01 498.34 246.02 498 245 C496.04 243.6 494.03 242.28 492 241 C489.59 239.4 487.3 237.75 485 236 C485 235.34 485 234.68 485 234 C484.32 233.77 483.64 233.55 482.94 233.31 C479.77 231.9 477.29 230.13 474.55 228.02 C473.03 226.82 473.03 226.82 471 227 C470.67 226.01 470.34 225.02 470 224 C469.34 223.67 468.68 223.34 468 223 C466 222 466 222 465 219 C463.34 218.31 461.67 217.65 460 217 C459.15 216.32 458.31 215.64 457.44 214.94 C455.2 212.89 455.2 212.89 452.75 212.44 C451.88 212.22 451.88 212.22 451 212 C450.67 211.01 450.34 210.02 450 209 C449.04 208.54 449.04 208.54 448.06 208.06 C446 207 446 207 445.12 205.06 C443.47 202.03 441.09 201.46 438 200 C434.77 197.89 431.73 195.73 429 193 C428.32 192.69 427.64 192.38 426.94 192.06 C425 191 425 191 424 188 C421.66 186.88 421.66 186.88 419 186 C415.16 184.44 412.88 181.95 410 179 C407.33 176.59 407.33 176.59 404 176 C403.6 175.1 403.6 175.1 403.19 174.19 C402.12 171.97 402.12 171.97 400.44 170.44 C399 169 399 169 398 166 C399.34 165.6 399.34 165.6 400.7 165.2 C401.87 164.84 403.04 164.49 404.25 164.12 C405.41 163.78 406.57 163.43 407.77 163.07 C411.38 161.87 414.33 160.41 417.56 158.44 C421.13 156.33 425.08 155.31 429 154 C429 153.34 429 152.68 429 152 C429.72 151.88 430.44 151.75 431.19 151.62 C433.97 151.01 436.36 150.07 439 149 C441.33 148.31 443.66 147.64 446 147 C446 146.34 446 145.68 446 145 C446.96 144.85 446.96 144.85 447.94 144.69 C453.55 143.43 458.88 141.63 464 139 C465.66 138.32 467.33 137.65 469 137 C469 135.68 469 134.36 469 133 C468.01 133 467.02 133 466 133 C466 132.34 466 131.68 466 131 C464.16 129.21 464.16 129.21 461.81 127.44 C461.04 126.82 460.26 126.2 459.46 125.56 C456.8 123.87 455.13 123.22 452 123 C449.27 123.62 449.27 123.62 446.56 124.75 C445.6 125.13 444.64 125.5 443.64 125.89 C440.69 127.13 437.84 128.51 435 130 C431.03 131.74 427.03 133.39 423 135 C421.3 135.74 421.3 135.74 419.56 136.5 C416 138 416 138 413.14 138.91 C409.97 140.01 407.16 141.38 404.19 142.94 C399.94 145.11 395.83 146.83 391.28 148.22 C387.61 149.47 384.15 151.17 380.64 152.8 C377.15 154.38 373.61 155.69 370 157 C369.07 157.37 368.14 157.74 367.19 158.12 C365.48 158.81 363.74 159.42 362 160 C362 160.66 362 161.32 362 162 C360.35 162 358.7 162 357 162 C357 162.66 357 163.32 357 164 C356.16 164.19 355.31 164.39 354.45 164.59 C352.8 164.98 352.8 164.98 351.12 165.38 C350.03 165.63 348.94 165.89 347.82 166.15 C344.9 166.79 344.9 166.79 343 169 C336.89 171.85 330.42 173.95 324 176 C324.99 174.51 324.99 174.51 326 173 C324.68 172.34 323.36 171.68 322 171 C322.5 169.51 322.5 169.51 323 168 C323.22 166.27 323.41 164.54 323.56 162.81 C323.65 161.91 323.73 161.01 323.82 160.08 C323.88 159.39 323.94 158.71 324 158 C324.33 158 324.66 158 325 158 C325.66 151.4 326.32 144.8 327 138 C327.33 138 327.66 138 328 138 C328 137.2 328 136.39 328 135.56 C328 132.48 328.22 129.51 328.5 126.44 C328.59 125.43 328.69 124.41 328.78 123.37 C328.85 122.59 328.93 121.81 329 121 C329.33 121 329.66 121 330 121 C330.19 118.35 330.38 115.71 330.56 113.06 C330.62 112.31 330.67 111.55 330.73 110.78 C330.86 108.85 330.94 106.93 331 105 C329.81 103.58 329.81 103.58 326.4 103.9 C324.91 103.91 323.43 103.92 321.94 103.94 C320.8 103.94 320.8 103.94 319.64 103.95 C317.76 103.96 315.88 103.98 314 104 Z M79 126 C79 156.03 79 186.06 79 217 C79.33 217 79.66 217 80 217 C80 186.97 80 156.94 80 126 C79.67 126 79.34 126 79 126 Z M507 276 C508.49 276.99 508.49 276.99 510 278 C510 277.34 510 276.68 510 276 C509.01 276 508.02 276 507 276 Z M409 299 C410 301 410 301 410 301 Z M321 309 C322.49 309.99 322.49 309.99 324 311 C324 310.34 324 309.68 324 309 C323.01 309 322.02 309 321 309 Z M599 335 C598.13 336.26 597.28 337.54 596.44 338.81 C595.96 339.52 595.49 340.23 595 340.96 C593.65 343.11 593.65 343.11 595 346 C597.97 346 600.94 346 604 346 C603.55 341.13 602.29 338.61 599 335 Z M584 360 C580.7 362.2 580.34 363.53 578.94 367.08 C577.59 369.84 575.68 371.89 573.63 374.17 C571.88 376.14 570.24 378.16 568.62 380.25 C567.87 381.22 567.87 381.22 567.1 382.2 C565.74 384.07 565.74 384.07 566 387 C588.77 387 611.54 387 635 387 C633.1 382.13 633.1 382.13 629.81 378.81 C626.04 375.25 623.3 371.27 620.48 366.94 C619.75 365.98 619.75 365.98 619 365 C618.34 365 617.68 365 617 365 C616.5 362.52 616.5 362.52 616 360 C615.09 360.16 614.18 360.32 613.24 360.49 C607.91 361.25 602.56 361.15 597.19 361.12 C596.14 361.13 595.09 361.13 594.01 361.14 C592.51 361.13 592.51 361.13 590.98 361.13 C590.07 361.13 589.16 361.13 588.23 361.13 C586 361 586 361 584 360 Z M569 375 C569.33 375.66 569.66 376.32 570 377 C570.33 376.34 570.66 375.68 571 375 C570.34 375 569.68 375 569 375 Z M537 405 C536.67 405.66 536.34 406.32 536 407 C536.99 406.67 537.98 406.34 539 406 C538.34 405.67 537.68 405.34 537 405 Z M658 405 C658.66 405.66 659.32 406.32 660 407 C660 406.34 660 405.68 660 405 C659.34 405 658.68 405 658 405 Z M534 407 C531.23 409.35 531.23 409.35 529 412 C529.99 412 530.98 412 532 412 C532 412.66 532 413.32 532 414 C531.3 414.26 530.6 414.52 529.88 414.78 C526.72 416.12 523.88 417.74 520.94 419.5 C517.67 421.45 514.43 423.35 511 425 C508.84 426.04 506.8 427.13 504.75 428.38 C501.26 430.44 497.64 432.21 494 434 C492.67 434.67 491.33 435.33 490 436 C494.06 436.02 498.11 436.04 502.17 436.05 C503.55 436.06 504.93 436.07 506.31 436.08 C508.29 436.09 510.28 436.09 512.27 436.1 C513.46 436.1 514.65 436.11 515.88 436.11 C518.51 436.02 520.49 435.67 523 435 C524.88 434.85 526.76 434.75 528.64 434.68 C530.25 434.62 530.25 434.62 531.88 434.56 C532.99 434.52 534.11 434.48 535.25 434.44 C536.38 434.39 537.5 434.35 538.66 434.31 C541.44 434.2 544.22 434.1 547 434 C547 433.34 547 432.68 547 432 C547.93 432.01 548.85 432.02 549.8 432.04 C559.19 432.11 568.56 431.9 577.94 431.56 C579.09 431.52 580.25 431.48 581.44 431.44 C582.52 431.4 583.6 431.36 584.71 431.32 C586.17 431.26 586.17 431.26 587.66 431.21 C590.02 431.14 590.02 431.14 592 430 C594.92 429.81 597.83 429.67 600.75 429.56 C608.07 429.25 615.33 428.73 622.62 428 C632.28 427.04 641.92 426.61 651.61 426.34 C652.66 426.31 653.71 426.28 654.79 426.25 C656.19 426.21 656.19 426.21 657.62 426.17 C660.15 426.09 660.15 426.09 663 425 C666.4 424.77 669.79 424.61 673.2 424.48 C676.94 424.3 678.82 424.12 682 422 C680.35 421.34 678.7 420.68 677 420 C677 419.34 677 418.68 677 418 C676.34 418 675.68 418 675 418 C675 417.34 675 416.68 675 416 C673.61 415.35 673.61 415.35 672.19 414.69 C669.47 413.25 668.06 412.16 666 410 C665.01 409.67 664.02 409.34 663 409 C662.67 408.34 662.34 407.68 662 407 C646.13 406.98 630.26 406.96 614.38 406.95 C607.01 406.94 599.64 406.94 592.27 406.92 C585.85 406.91 579.43 406.91 573.01 406.91 C569.61 406.9 566.21 406.9 562.81 406.89 C559.01 406.89 555.22 406.89 551.43 406.89 C550.29 406.88 549.16 406.88 547.99 406.88 C546.96 406.88 545.93 406.88 544.87 406.88 C543.97 406.88 543.08 406.88 542.15 406.88 C539.95 406.86 539.95 406.86 538 408 C537.4 407.75 536.8 407.5 536.19 407.25 C535.47 407.17 534.74 407.09 534 407 Z M527 412 C526.67 412.66 526.34 413.32 526 414 C526.66 414 527.32 414 528 414 C527.67 413.34 527.34 412.68 527 412 Z M499 428 C499.33 428.99 499.66 429.98 500 431 C500.33 430.01 500.66 429.02 501 428 C500.34 428 499.68 428 499 428 Z M464 446 C463.67 446.99 463.34 447.98 463 449 C464.32 448.67 465.64 448.34 467 448 C466.34 448 465.68 448 465 448 C464.67 447.34 464.34 446.68 464 446 Z M440 447 C440 447.33 440 447.66 440 448 C441.98 448 443.96 448 446 448 C446 447.67 446 447.34 446 447 C444.02 447 442.04 447 440 447 Z M438 448 C439 450 439 450 439 450 Z M763 448 C763 448.66 763 449.32 763 450 C763.66 449.67 764.32 449.34 765 449 C764.34 448.67 763.68 448.34 763 448 Z M544 449 C544 449.33 544 449.66 544 450 C571.39 450 598.78 450 627 450 C627 449.67 627 449.34 627 449 C599.61 449 572.22 449 544 449 Z " fill="#FACD0C" transform="translate(63,431)"/>
<path d="M0 0 C1.54 -0.01 1.54 -0.01 3.11 -0.02 C4.22 -0.02 5.32 -0.02 6.46 -0.02 C7.62 -0.03 8.77 -0.03 9.96 -0.03 C12.4 -0.04 14.85 -0.04 17.3 -0.04 C20.99 -0.04 24.68 -0.06 28.36 -0.08 C41.02 -0.11 53.34 0.18 65.86 2.15 C67 2.32 68.14 2.5 69.31 2.68 C72.17 3.13 75.01 3.64 77.86 4.15 C78.75 4.29 79.63 4.43 80.55 4.57 C100.98 7.96 121.5 15.69 139.86 25.15 C146.8 28.69 146.8 28.69 153.92 31.83 C156.86 33.15 156.86 33.15 157.86 35.15 C159.62 36.21 161.43 37.12 163.26 38.05 C164.86 39.15 164.86 39.15 165.86 42.15 C166.56 42.19 167.26 42.23 167.98 42.27 C171.52 43.35 172.91 45 175.38 47.65 C177.31 49.6 179.45 50.84 181.86 52.15 C182.85 52.81 183.84 53.47 184.86 54.15 C184.86 54.81 184.86 55.47 184.86 56.15 C185.44 56.4 186.03 56.66 186.63 56.92 C189.05 58.25 190.59 59.71 192.48 61.71 C194.9 64.29 194.9 64.29 197.86 66.15 C197.86 67.14 197.86 68.13 197.86 69.15 C198.52 69.15 199.18 69.15 199.86 69.15 C199.86 69.81 199.86 70.47 199.86 71.15 C200.85 71.48 201.84 71.81 202.86 72.15 C204.86 75.15 204.86 75.15 204.86 78.15 C203.48 79.83 203.48 79.83 201.86 81.15 C201.2 81.15 200.54 81.15 199.86 81.15 C199.86 81.81 199.86 82.47 199.86 83.15 C198.39 84.59 198.39 84.59 196.36 86.27 C191.95 90.01 187.89 94.01 183.86 98.15 C182.87 97.82 181.88 97.49 180.86 97.15 C180.86 98.14 180.86 99.13 180.86 100.15 C179.53 101.55 179.53 101.55 177.61 103.08 C173.07 106.86 168.98 110.98 164.9 115.23 C163.59 116.57 162.23 117.86 160.86 119.15 C160.2 119.15 159.54 119.15 158.86 119.15 C158.86 119.81 158.86 120.47 158.86 121.15 C157.74 121.81 156.62 122.47 155.47 123.15 C148.8 127.15 143.85 133.09 138.57 138.72 C137.36 139.98 137.36 139.98 136.12 141.26 C135.04 142.42 135.04 142.42 133.93 143.59 C131.86 145.15 131.86 145.15 129.77 145.06 C126.5 143.5 124.24 140.75 121.8 138.15 C117.91 133.82 117.91 133.82 112.86 131.15 C112.53 130.16 112.2 129.17 111.86 128.15 C111.2 127.82 110.54 127.49 109.86 127.15 C109.86 126.49 109.86 125.83 109.86 125.15 C109.1 125.04 108.33 124.94 107.55 124.83 C104.51 124.06 103.97 123.34 101.86 121.15 C96.38 117.79 90.63 114.98 84.86 112.15 C84.86 111.49 84.86 110.83 84.86 110.15 C84.2 110.04 83.54 109.94 82.86 109.83 C80.43 109.28 78.35 108.61 76.05 107.71 C72.04 106.15 68.04 105.12 63.86 104.15 C63.86 103.49 63.86 102.83 63.86 102.15 C63.18 102.17 62.51 102.19 61.81 102.22 C60.92 102.23 60.03 102.25 59.11 102.27 C58.23 102.29 57.35 102.32 56.44 102.34 C53.86 102.15 53.86 102.15 51.97 101.15 C49.6 100.02 48.05 99.89 45.43 99.89 C44.56 99.88 43.69 99.87 42.8 99.87 C41.87 99.87 40.94 99.88 39.98 99.88 C39.02 99.88 38.06 99.88 37.07 99.87 C35.04 99.87 33.01 99.88 30.98 99.88 C27.87 99.9 24.76 99.88 21.66 99.87 C19.68 99.87 17.71 99.88 15.73 99.88 C14.34 99.87 14.34 99.87 12.92 99.87 C12.05 99.87 11.18 99.88 10.29 99.89 C9.53 99.89 8.77 99.89 7.98 99.89 C5.57 100.18 3.99 101.02 1.86 102.15 C-0.72 102.34 -0.72 102.34 -3.39 102.27 C-4.28 102.25 -5.18 102.23 -6.09 102.22 C-6.77 102.19 -7.45 102.17 -8.14 102.15 C-8.14 102.81 -8.14 103.47 -8.14 104.15 C-9.34 104.43 -10.53 104.72 -11.77 105.02 C-14.41 105.68 -16.93 106.41 -19.52 107.27 C-22.14 108.15 -22.14 108.15 -24.14 108.15 C-24.14 108.81 -24.14 109.47 -24.14 110.15 C-25.79 110.15 -27.44 110.15 -29.14 110.15 C-29.14 110.81 -29.14 111.47 -29.14 112.15 C-29.93 112.5 -30.71 112.85 -31.52 113.21 C-35.48 115.18 -38.99 117.76 -42.58 120.33 C-44.34 121.58 -46.14 122.77 -47.97 123.91 C-52 126.75 -55.36 130.03 -58.83 133.52 C-59.49 134.17 -60.16 134.81 -60.84 135.48 C-64.49 139.13 -67.05 142.35 -69.14 147.15 C-70.14 148.15 -71.14 149.15 -72.14 150.15 C-72.86 152.25 -72.86 152.25 -73.14 154.15 C-73.8 154.15 -74.46 154.15 -75.14 154.15 C-75.24 154.87 -75.35 155.59 -75.45 156.33 C-76.21 159.44 -77.46 161.44 -79.14 164.15 C-80.7 167.57 -82.08 170.95 -83.27 174.52 C-84.14 177.15 -84.14 177.15 -85.14 178.15 C-85.12 179.26 -85.1 180.37 -85.08 181.52 C-85.14 185.15 -85.14 185.15 -87.14 188.15 C-87.58 190.35 -87.58 190.35 -87.74 192.78 C-87.82 193.67 -87.9 194.55 -87.98 195.47 C-88.05 196.39 -88.13 197.32 -88.2 198.27 C-88.36 200.11 -88.51 201.94 -88.68 203.78 C-88.74 204.59 -88.81 205.41 -88.88 206.24 C-89.14 208.15 -89.14 208.15 -90.14 209.15 C-90.27 211.7 -90.33 214.22 -90.33 216.77 C-90.34 217.47 -90.35 218.17 -90.37 218.89 C-90.38 223.66 -89.52 227.55 -88.14 232.15 C-87.8 235.45 -87.64 238.74 -87.49 242.06 C-87.14 245.12 -86.32 247.32 -85.14 250.15 C-85.06 252.48 -85.05 254.81 -85.14 257.15 C-84.48 257.15 -83.82 257.15 -83.14 257.15 C-82.81 259.79 -82.48 262.43 -82.14 265.15 C-81.48 265.15 -80.82 265.15 -80.14 265.15 C-80.14 266.8 -80.14 268.45 -80.14 270.15 C-79.48 270.15 -78.82 270.15 -78.14 270.15 C-76.11 273.87 -75.14 275.81 -75.14 280.15 C-74.48 280.15 -73.82 280.15 -73.14 280.15 C-72.75 281.01 -72.36 281.88 -71.95 282.77 C-70.54 285.41 -69.38 287.15 -67.45 289.33 C-65.14 292.15 -65.14 292.15 -65.14 295.15 C-64.54 295.41 -63.95 295.68 -63.33 295.96 C-61.14 297.14 -59.73 298.24 -58.14 300.15 C-58.14 300.81 -58.14 301.47 -58.14 302.15 C-57.31 302.49 -57.31 302.49 -56.45 302.83 C-52.94 304.83 -50.36 307.7 -47.77 310.77 C-45.2 312.94 -42.26 313.91 -39.14 315.15 C-39.14 316.14 -39.14 317.13 -39.14 318.15 C-37.49 318.15 -35.84 318.15 -34.14 318.15 C-34.14 318.81 -34.14 319.47 -34.14 320.15 C-14.01 328.82 4.13 334.53 26.24 334.35 C28.58 334.33 30.93 334.33 33.27 334.33 C34.76 334.33 36.25 334.32 37.75 334.31 C38.45 334.31 39.15 334.31 39.87 334.31 C43.15 334.56 43.15 334.56 45.86 333.15 C48.86 332.86 51.87 332.7 54.88 332.52 C57.74 332.16 59.37 331.51 61.86 330.15 C62.93 330 64 329.86 65.11 329.71 C69.36 329.07 72.89 327.74 76.86 326.15 C80.51 324.76 84.15 323.38 87.86 322.15 C88.95 319.3 88.98 316.56 88.97 313.54 C88.96 312.62 88.96 311.7 88.96 310.75 C88.95 309.25 88.95 309.25 88.94 307.72 C88.94 306.66 88.93 305.6 88.93 304.5 C88.92 302.2 88.91 299.9 88.9 297.6 C88.89 293.96 88.88 290.32 88.87 286.68 C88.84 276.34 88.81 265.99 88.76 255.65 C88.74 249.32 88.72 242.99 88.71 236.67 C88.7 234.25 88.69 231.84 88.68 229.42 C88.66 226.05 88.65 222.68 88.65 219.31 C88.64 218.31 88.63 217.3 88.62 216.27 C88.62 215.35 88.62 214.44 88.62 213.5 C88.62 212.7 88.62 211.9 88.62 211.08 C88.86 209.15 88.86 209.15 90.86 207.15 C92.71 206.9 92.71 206.9 95 206.9 C95.86 206.89 96.73 206.89 97.62 206.89 C98.57 206.89 99.53 206.9 100.51 206.9 C102.01 206.9 102.01 206.9 103.54 206.9 C106.87 206.89 110.19 206.9 113.51 206.91 C115.82 206.92 118.12 206.92 120.42 206.92 C125.25 206.92 130.08 206.93 134.91 206.94 C141.11 206.96 147.31 206.96 153.51 206.96 C158.26 206.96 163.02 206.97 167.77 206.97 C170.06 206.98 172.35 206.98 174.63 206.98 C177.82 206.98 181.02 206.99 184.21 207 C185.16 207 186.11 207 187.1 207 C187.96 207 188.83 207.01 189.72 207.01 C190.85 207.01 190.85 207.01 192.01 207.02 C193.86 207.15 193.86 207.15 195.86 208.15 C196 230.62 196.1 253.09 196.17 275.56 C196.2 285.99 196.24 296.42 196.31 306.85 C196.37 315.95 196.41 325.04 196.42 334.13 C196.43 338.95 196.45 343.76 196.49 348.58 C196.53 353.11 196.55 357.64 196.54 362.17 C196.54 363.84 196.55 365.5 196.57 367.16 C196.6 369.44 196.6 371.7 196.58 373.98 C196.59 375.25 196.59 376.52 196.6 377.83 C195.56 382.48 193.76 383.5 189.86 386.15 C187.48 386.96 187.48 386.96 185.86 387.15 C185.86 387.81 185.86 388.47 185.86 389.15 C185.36 389.4 184.86 389.66 184.35 389.92 C182.08 391.1 179.81 392.28 177.55 393.46 C176.76 393.86 175.97 394.27 175.17 394.68 C174.41 395.08 173.65 395.48 172.87 395.88 C171.83 396.43 171.83 396.43 170.76 396.98 C168.81 398.17 167.46 399.53 165.86 401.15 C163.77 402.1 161.64 402.97 159.48 403.77 C158.36 404.2 157.24 404.62 156.09 405.06 C153.33 405.99 150.72 406.66 147.86 407.15 C147.86 407.81 147.86 408.47 147.86 409.15 C146.44 409.65 145.03 410.15 143.61 410.65 C142.82 410.92 142.03 411.2 141.22 411.49 C138.86 412.15 138.86 412.15 134.86 412.15 C134.86 412.81 134.86 413.47 134.86 414.15 C133.58 414.56 133.58 414.56 132.27 414.99 C131.16 415.35 130.06 415.71 128.92 416.08 C127.82 416.44 126.72 416.8 125.58 417.17 C122.98 417.88 122.98 417.88 121.86 419.15 C119.29 419.72 116.7 420.17 114.11 420.65 C111.9 420.92 111.9 420.92 110.86 422.15 C108.86 422.19 106.86 422.19 104.86 422.15 C104.86 422.81 104.86 423.47 104.86 424.15 C104.26 424.19 103.65 424.24 103.03 424.29 C102.23 424.37 101.43 424.44 100.61 424.52 C99.82 424.59 99.03 424.66 98.22 424.73 C95.85 425.03 95.85 425.03 93.85 426.15 C91.57 427.29 89.77 427.51 87.23 427.71 C83.92 427.96 83.92 427.96 80.86 429.15 C77.55 429.42 74.24 429.59 70.93 429.77 C67.69 429.93 67.69 429.93 64.86 432.15 C62.42 432.45 62.42 432.45 59.57 432.52 C58.55 432.56 57.52 432.59 56.47 432.63 C55.4 432.65 54.33 432.68 53.23 432.71 C51.12 432.77 49 432.83 46.88 432.9 C45.94 432.92 45 432.95 44.04 432.97 C41.88 432.91 41.88 432.91 40.86 434.15 C38.39 434.39 35.95 434.57 33.48 434.71 C32.39 434.77 32.39 434.77 31.28 434.83 C6.88 436.16 6.88 436.16 0.86 433.15 C-0.6 432.99 -2.07 432.9 -3.53 432.83 C-4.44 432.79 -5.35 432.75 -6.29 432.71 C-7.28 432.67 -8.26 432.63 -9.28 432.59 C-10.31 432.55 -11.35 432.51 -12.41 432.46 C-23.56 432.04 -34.71 432.01 -45.87 432.03 C-48.14 432.03 -50.4 432.03 -52.67 432.03 C-58.75 432.03 -64.84 432.04 -70.92 432.04 C-77.3 432.05 -83.69 432.05 -90.07 432.05 C-100.76 432.05 -111.45 432.06 -122.14 432.07 C-133.14 432.08 -144.14 432.09 -155.14 432.09 C-156.16 432.09 -156.16 432.09 -157.2 432.09 C-160.62 432.09 -164.04 432.09 -167.45 432.09 C-195.68 432.11 -223.91 432.12 -252.14 432.15 C-252.14 431.49 -252.14 430.83 -252.14 430.15 C-253.35 430.18 -254.56 430.21 -255.81 430.24 C-276.46 430.75 -297.11 431.24 -317.77 431.27 C-318.82 431.27 -318.82 431.27 -319.9 431.28 C-328.37 431.3 -336.72 431.01 -345.14 430.15 C-342.37 428.72 -339.95 427.76 -336.89 427.15 C-336.1 426.98 -335.32 426.81 -334.5 426.64 C-333.72 426.48 -332.94 426.31 -332.14 426.15 C-328.11 425.25 -324.24 424.23 -320.4 422.71 C-304.58 416.71 -288.26 415.94 -271.5 416.21 C-268.36 416.28 -268.36 416.28 -266.28 415.65 C-263.64 415.03 -261.22 415.03 -258.5 415.05 C-256.9 415.05 -256.9 415.05 -255.26 415.06 C-254.15 415.07 -253.04 415.07 -251.89 415.08 C-250.2 415.09 -250.2 415.09 -248.48 415.1 C-245.7 415.11 -242.92 415.12 -240.14 415.15 C-240.14 414.49 -240.14 413.83 -240.14 413.15 C-234.98 412.86 -229.82 412.57 -224.66 412.29 C-222.91 412.19 -221.16 412.1 -219.4 412 C-216.88 411.86 -214.35 411.72 -211.82 411.58 C-210.65 411.52 -210.65 411.52 -209.46 411.45 C-206.2 411.27 -202.99 411.15 -199.72 411.18 C-197.15 411.33 -197.15 411.33 -195.14 410.15 C-192.22 409.96 -189.31 409.82 -186.39 409.71 C-179.07 409.4 -171.81 408.87 -164.52 408.15 C-154.86 407.19 -145.23 406.76 -135.53 406.49 C-134.48 406.46 -133.43 406.42 -132.35 406.39 C-131.41 406.37 -130.48 406.34 -129.52 406.32 C-126.99 406.23 -126.99 406.23 -124.14 405.15 C-121.41 404.92 -118.69 404.73 -115.95 404.58 C-115.2 404.54 -114.45 404.5 -113.68 404.45 C-111.84 404.35 -109.99 404.25 -108.14 404.15 C-108.14 403.49 -108.14 402.83 -108.14 402.15 C-108.8 401.82 -109.46 401.49 -110.14 401.15 C-110.14 400.49 -110.14 399.83 -110.14 399.15 C-110.8 399.15 -111.46 399.15 -112.14 399.15 C-112.14 398.49 -112.14 397.83 -112.14 397.15 C-113.07 396.88 -114 396.61 -114.95 396.33 C-118.03 395.19 -119.02 394.46 -121.14 392.15 C-123.24 390.97 -123.24 390.97 -125.14 390.15 C-125.14 389.49 -125.14 388.83 -125.14 388.15 C-125.8 388.48 -126.46 388.81 -127.14 389.15 C-128.73 389.24 -130.33 389.26 -131.92 389.26 C-132.93 389.26 -133.94 389.26 -134.98 389.26 C-136.1 389.25 -137.21 389.25 -138.35 389.24 C-139.52 389.24 -140.69 389.24 -141.89 389.24 C-145.1 389.23 -148.3 389.22 -151.51 389.21 C-154.86 389.2 -158.21 389.2 -161.56 389.2 C-170.82 389.18 -180.07 389.16 -189.32 389.14 C-197.8 389.12 -206.27 389.1 -214.75 389.09 C-218.09 389.09 -221.43 389.08 -224.77 389.07 C-228.49 389.06 -232.21 389.05 -235.93 389.05 C-237.04 389.04 -238.15 389.04 -239.3 389.03 C-240.31 389.03 -241.32 389.03 -242.36 389.03 C-243.68 389.03 -243.68 389.03 -245.03 389.03 C-247.2 389.01 -247.2 389.01 -249.14 390.15 C-249.8 389.49 -250.46 388.83 -251.14 388.15 C-248.81 386.27 -246.48 384.4 -244.09 382.6 C-240.12 379.6 -236.54 376.6 -233.14 372.96 C-229.31 368.98 -225.31 366.96 -220.14 365.15 C-219.81 365.81 -219.48 366.47 -219.14 367.15 C-197.36 367.15 -175.58 367.15 -153.14 367.15 C-155.38 363.42 -157.21 360.77 -160.08 357.65 C-168.14 348.72 -168.14 348.72 -168.14 346.15 C-168.8 346.15 -169.46 346.15 -170.14 346.15 C-170.55 345.65 -170.95 345.16 -171.37 344.66 C-174 342.41 -176.05 342.85 -179.45 342.96 C-180.69 342.98 -181.93 343 -183.21 343.03 C-184.51 343.07 -185.81 343.11 -187.14 343.15 C-189.7 343.22 -192.27 343.28 -194.83 343.33 C-195.97 343.37 -197.11 343.4 -198.28 343.44 C-201.14 343.15 -201.14 343.15 -203.04 341.63 C-203.4 341.14 -203.77 340.65 -204.14 340.15 C-197.02 327.74 -197.02 327.74 -191.14 326.15 C-187.27 325.96 -187.27 325.96 -184.14 326.15 C-185.39 322.06 -185.39 322.06 -187.33 318.27 C-189.65 312.19 -186.16 305.01 -183.89 299.33 C-174.21 274.06 -170.95 248.9 -171.01 221.97 C-171.02 219.22 -171.01 216.46 -171 213.71 C-171 199.5 -171.23 185.52 -174.27 171.58 C-174.49 170.56 -174.7 169.55 -174.93 168.5 C-178.63 151.92 -184.19 136.33 -191.13 120.84 C-193.11 116.37 -194.69 111.81 -196.14 107.15 C-195.48 106.49 -194.82 105.83 -194.14 105.15 C-194.14 105.81 -194.14 106.47 -194.14 107.15 C-192.35 107 -190.56 106.86 -188.77 106.71 C-187.77 106.63 -186.77 106.55 -185.74 106.46 C-183.16 106.3 -183.16 106.3 -181.14 105.15 C-180.67 104.16 -180.19 103.17 -179.7 102.15 C-178.14 99.15 -178.14 99.15 -175.14 98.15 C-175.06 97.4 -174.98 96.66 -174.89 95.9 C-173.98 92.57 -172.59 91.52 -170.14 89.15 C-169.11 87.16 -168.1 85.16 -167.14 83.15 C-168.41 83.16 -169.68 83.18 -170.99 83.19 C-175.72 83.25 -180.45 83.28 -185.18 83.31 C-187.23 83.33 -189.27 83.35 -191.32 83.37 C-194.26 83.41 -197.2 83.43 -200.15 83.44 C-201.06 83.45 -201.97 83.47 -202.91 83.49 C-208.1 83.49 -211.6 82.98 -216.14 80.15 C-216.14 79.49 -216.14 78.83 -216.14 78.15 C-217.01 78.06 -217.01 78.06 -217.9 77.97 C-221.14 76.78 -222.12 74.74 -224.02 71.9 C-227.06 67.52 -229.84 64.26 -234.14 61.15 C-233.81 59.83 -233.48 58.51 -233.14 57.15 C-228.71 56.86 -224.28 56.57 -219.85 56.29 C-218.35 56.19 -216.85 56.1 -215.34 56 C-213.17 55.86 -211 55.72 -208.82 55.58 C-207.52 55.5 -206.22 55.42 -204.87 55.33 C-202.37 55.21 -199.86 55.16 -197.35 55.18 C-194.12 55.31 -194.12 55.31 -191.14 54.15 C-189.24 54.01 -187.33 53.92 -185.41 53.86 C-184.3 53.83 -183.19 53.79 -182.04 53.75 C-179.68 53.68 -177.33 53.61 -174.97 53.54 C-173.86 53.5 -172.75 53.47 -171.6 53.43 C-170.58 53.4 -169.56 53.37 -168.5 53.33 C-166.19 53.41 -166.19 53.41 -165.14 52.15 C-162.59 51.9 -160.07 51.72 -157.52 51.58 C-156.76 51.54 -156.01 51.5 -155.23 51.45 C-147.86 51.07 -140.52 51.05 -133.14 51.15 C-132.87 50.52 -132.6 49.89 -132.32 49.24 C-130.62 46.23 -128.22 45.59 -125.14 44.15 C-124.34 43.31 -124.34 43.31 -123.52 42.46 C-122.14 41.15 -122.14 41.15 -118.14 41.15 C-118.14 40.49 -118.14 39.83 -118.14 39.15 C-117.15 38.16 -117.15 38.16 -116.14 37.15 C-159.42 35.38 -202.82 35.67 -246.11 36.88 C-247.56 36.91 -247.56 36.91 -249.03 36.95 C-250.79 37 -252.56 37.05 -254.32 37.11 C-267.61 37.45 -267.61 37.45 -270.83 34.71 C-271.26 34.19 -271.7 33.68 -272.14 33.15 C-273.8 32.47 -275.47 31.8 -277.14 31.15 C-278.88 30.21 -280.61 29.25 -282.33 28.27 C-287.47 25.43 -292.66 23.22 -298.14 21.15 C-299.77 20.48 -301.39 19.81 -303.02 19.15 C-313.83 14.85 -324.84 11.82 -336.14 9.15 C-337.06 8.93 -337.97 8.71 -338.91 8.49 C-342.32 7.7 -345.68 7.04 -349.14 6.58 C-352.14 6.15 -352.14 6.15 -353.14 5.15 C-355.83 4.75 -358.5 4.39 -361.2 4.08 C-361.96 3.99 -362.72 3.9 -363.5 3.81 C-365.38 3.58 -367.26 3.36 -369.14 3.15 C-369.14 2.82 -369.14 2.49 -369.14 2.15 C-368.42 2.15 -367.69 2.15 -366.95 2.15 C-323.98 2.17 -281.02 2.19 -238.05 2.2 C-232.89 2.2 -227.73 2.2 -222.57 2.2 C-221.54 2.2 -220.51 2.2 -219.45 2.2 C-202.83 2.21 -186.2 2.21 -169.58 2.22 C-152.51 2.23 -135.44 2.24 -118.37 2.24 C-107.84 2.24 -97.32 2.25 -86.79 2.25 C-79.57 2.26 -72.34 2.26 -65.12 2.26 C-60.95 2.26 -56.79 2.26 -52.62 2.26 C-48.8 2.27 -44.98 2.27 -41.16 2.27 C-39.14 2.27 -37.12 2.27 -35.11 2.27 C-23.31 2.26 -11.62 0.05 0 0 Z M201.86 75.15 C201.53 76.14 201.2 77.13 200.86 78.15 C201.85 77.82 202.84 77.49 203.86 77.15 C203.2 76.49 202.54 75.83 201.86 75.15 Z M-129.14 386.15 C-128.48 386.81 -127.82 387.47 -127.14 388.15 C-127.14 387.49 -127.14 386.83 -127.14 386.15 C-127.8 386.15 -128.46 386.15 -129.14 386.15 Z M-323.14 427.15 C-323.47 428.14 -323.8 429.13 -324.14 430.15 C-322.82 429.82 -321.5 429.49 -320.14 429.15 C-320.8 429.15 -321.46 429.15 -322.14 429.15 C-322.47 428.49 -322.8 427.83 -323.14 427.15 Z M-24.14 429.15 C-24.14 429.81 -24.14 430.47 -24.14 431.15 C-23.48 430.82 -22.82 430.49 -22.14 430.15 C-22.8 429.82 -23.46 429.49 -24.14 429.15 Z M-243.14 430.15 C-243.14 430.48 -243.14 430.81 -243.14 431.15 C-215.75 431.15 -188.36 431.15 -160.14 431.15 C-160.14 430.82 -160.14 430.49 -160.14 430.15 C-187.53 430.15 -214.92 430.15 -243.14 430.15 Z " fill="#CA3228" transform="translate(850.141357421875,449.854736328125)"/>
<path d="M0 0 C1 -0 2 -0.01 3.03 -0.01 C6.36 -0.02 9.7 -0.01 13.03 0 C15.43 -0 17.82 -0 20.22 -0.01 C26.04 -0.02 31.87 -0.01 37.69 0 C44.48 0.01 51.27 0.01 58.07 0.01 C70.19 0.01 82.32 0.02 94.44 0.04 C106.19 0.06 117.93 0.06 129.68 0.06 C142.49 0.05 155.3 0.05 168.11 0.06 C169.48 0.07 170.84 0.07 172.21 0.07 C172.89 0.07 173.56 0.07 174.25 0.07 C178.98 0.07 183.7 0.07 188.43 0.07 C194.8 0.07 201.17 0.08 207.54 0.09 C209.88 0.1 212.21 0.1 214.54 0.1 C217.74 0.09 220.93 0.1 224.13 0.11 C225.04 0.11 225.96 0.11 226.9 0.1 C243.29 0.21 256.75 4.92 268.69 16.37 C271.69 19.94 271.69 19.94 271.69 22.37 C272.35 22.37 273.01 22.37 273.69 22.37 C285.91 44.07 285.91 44.07 289.15 50.08 C291.83 55.05 294.57 59.91 297.71 64.62 C298.69 66.37 298.69 66.37 299.2 68.48 C299.57 70.61 299.57 70.61 301.75 72.31 C303.69 74.37 303.69 74.37 303.94 77.12 C303.86 77.87 303.78 78.61 303.69 79.37 C304.68 79.37 305.67 79.37 306.69 79.37 C306.69 80.03 306.69 80.69 306.69 81.37 C380.94 81.37 455.19 81.37 531.69 81.37 C531.36 82.69 531.03 84.01 530.69 85.37 C530.61 87.66 530.58 89.94 530.59 92.22 C530.59 92.9 530.6 93.58 530.6 94.28 C530.6 95.76 530.61 97.23 530.62 98.7 C530.63 101.03 530.63 103.36 530.64 105.68 C530.65 110.62 530.67 115.56 530.69 120.5 C530.71 126.23 530.73 131.96 530.75 137.69 C530.75 139.98 530.77 142.28 530.78 144.58 C530.78 145.98 530.79 147.38 530.79 148.78 C530.79 150.01 530.8 151.24 530.8 152.5 C530.69 155.37 530.69 155.37 529.69 157.37 C261.07 157.37 -7.55 157.37 -284.31 157.37 C-284.31 156.71 -284.31 156.05 -284.31 155.37 C-284.97 154.71 -285.63 154.05 -286.31 153.37 C-286.55 150.44 -286.55 150.44 -286.54 146.63 C-286.54 145.94 -286.54 145.24 -286.54 144.53 C-286.54 142.24 -286.52 139.94 -286.5 137.65 C-286.5 136.06 -286.5 134.47 -286.5 132.88 C-286.49 128.7 -286.47 124.51 -286.45 120.32 C-286.43 116.05 -286.42 111.78 -286.41 107.51 C-286.39 99.13 -286.35 90.75 -286.31 82.37 C-283.15 80.79 -279.76 81.22 -276.29 81.22 C-275.45 81.21 -274.61 81.21 -273.74 81.2 C-270.92 81.19 -268.09 81.18 -265.26 81.17 C-263.24 81.16 -261.22 81.15 -259.2 81.14 C-253.71 81.11 -248.21 81.09 -242.71 81.07 C-236.97 81.05 -231.23 81.02 -225.49 80.99 C-214.61 80.94 -203.74 80.9 -192.86 80.86 C-180.48 80.81 -168.1 80.75 -155.72 80.7 C-130.25 80.58 -104.78 80.48 -79.31 80.37 C-78.65 78.39 -77.99 76.41 -77.31 74.37 C-76.65 74.37 -75.99 74.37 -75.31 74.37 C-75.64 73.38 -75.97 72.39 -76.31 71.37 C-75.32 71.04 -74.33 70.71 -73.31 70.37 C-71.87 67.89 -71.87 67.89 -70.68 64.94 C-70.05 63.45 -70.05 63.45 -69.4 61.94 C-69.04 61.09 -68.68 60.25 -68.31 59.37 C-67.98 58.71 -67.65 58.05 -67.31 57.37 C-66.65 57.7 -65.99 58.03 -65.31 58.37 C-65.23 57.32 -65.14 56.27 -65.06 55.19 C-64.08 50.19 -61.82 47.89 -58.31 44.37 C-57.56 42.65 -56.81 40.92 -56.1 39.18 C-54.56 35.67 -52.43 32.56 -50.31 29.37 C-50.04 28.4 -49.77 27.44 -49.5 26.44 C-48.05 22.7 -46.49 21.78 -43.31 19.37 C-41.47 17.39 -39.71 15.34 -37.96 13.28 C-36.31 11.37 -36.31 11.37 -34.6 9.69 C-33.19 8.56 -33.19 8.56 -33.31 7.37 C-32.38 7.27 -31.45 7.17 -30.5 7.06 C-27.33 6.68 -27.33 6.68 -25.75 4.81 C-25.04 4.1 -25.04 4.1 -24.31 3.37 C-22.64 3.37 -20.98 3.37 -19.31 3.37 C-17.95 2.91 -16.61 2.42 -15.27 1.9 C-10.11 0.13 -5.42 -0.04 0 0 Z M-48.31 24.37 C-47.31 26.37 -47.31 26.37 -47.31 26.37 Z M-49.31 155.37 C-49.31 155.7 -49.31 156.03 -49.31 156.37 C-47 156.37 -44.69 156.37 -42.31 156.37 C-42.31 156.04 -42.31 155.71 -42.31 155.37 C-44.62 155.37 -46.93 155.37 -49.31 155.37 Z M-36.31 155.37 C-36.31 155.7 -36.31 156.03 -36.31 156.37 C97.01 156.37 230.33 156.37 367.69 156.37 C367.69 156.04 367.69 155.71 367.69 155.37 C234.37 155.37 101.05 155.37 -36.31 155.37 Z M375.69 155.37 C375.69 155.7 375.69 156.03 375.69 156.37 C379.98 156.37 384.27 156.37 388.69 156.37 C388.69 156.04 388.69 155.71 388.69 155.37 C384.4 155.37 380.11 155.37 375.69 155.37 Z " fill="#2A2B2B" transform="translate(530.3094177246094,286.6257781982422)"/>
<path d="M0 0 C0.77 0 1.54 0 2.33 0 C41.23 0.07 80.14 0.16 119.04 0.25 C142.34 0.3 165.64 0.35 188.93 0.4 C189.74 0.4 190.55 0.4 191.39 0.4 C199.53 0.42 207.67 0.43 215.81 0.45 C232.35 0.48 248.89 0.52 265.43 0.55 C266.19 0.55 266.95 0.55 267.73 0.56 C317.19 0.66 366.65 0.77 416.11 0.88 C427.29 23.24 417.11 50.88 417.11 75.88 C12.7 75.38 12.7 75.38 -399.89 74.88 C-399.89 1.88 -399.89 1.88 -398.89 0.88 C-396.33 0.77 -393.8 0.72 -391.24 0.72 C-390.02 0.71 -390.02 0.71 -388.77 0.7 C-386 0.69 -383.23 0.68 -380.46 0.67 C-378.46 0.66 -376.46 0.65 -374.47 0.63 C-368.94 0.61 -363.4 0.58 -357.87 0.56 C-353.12 0.54 -348.37 0.52 -343.61 0.5 C-328.48 0.43 -313.35 0.37 -298.21 0.31 C-293.33 0.29 -288.44 0.28 -283.55 0.26 C-208.4 -0.04 -133.26 -0.18 0 0 Z " fill="#2A2B2C" transform="translate(640.88671875,892.12109375)"/>
<path d="M0 0 C117.15 0 234.3 0 355 0 C355 0.33 355 0.66 355 1 C349.72 1.66 344.44 2.32 339 3 C339 3.33 339 3.66 339 4 C337.79 4.15 337.79 4.15 336.55 4.3 C310.93 8.28 283.08 18.6 261.4 32.77 C256.72 35.17 252.05 35.11 246.9 34.88 C245.66 34.83 244.41 34.78 243.13 34.73 C242.46 34.7 241.78 34.68 241.08 34.65 C223.52 33.95 205.95 33.87 188.38 33.88 C187.07 33.87 185.77 33.87 184.43 33.87 C163.96 33.89 143.49 34.16 123.03 34.73 C121.58 34.77 121.58 34.77 120.11 34.81 C118.35 34.85 116.58 34.9 114.82 34.96 C101.53 35.3 101.53 35.3 98.31 32.56 C97.88 32.05 97.45 31.53 97 31 C95.34 30.32 93.67 29.66 92 29 C90.26 28.06 88.53 27.1 86.81 26.12 C81.67 23.29 76.48 21.07 71 19 C69.37 18.34 67.75 17.67 66.12 17 C55.31 12.7 44.3 9.68 33 7 C32.08 6.78 31.17 6.56 30.23 6.34 C26.83 5.56 23.46 4.9 20 4.44 C17 4 17 4 16 3 C13.31 2.6 10.64 2.25 7.94 1.94 C7.18 1.85 6.42 1.76 5.64 1.66 C3.76 1.44 1.88 1.22 0 1 C0 0.67 0 0.34 0 0 Z " fill="#2A2B2C" transform="translate(481,452)"/>
<path d="M0 0 C5.61 0.04 10.26 2.88 15.17 5.34 C35.56 15.09 57.66 22.47 80.17 25.34 C80.17 26 80.17 26.66 80.17 27.34 C80.83 27.67 81.49 28 82.17 28.34 C6.27 28.34 -69.63 28.34 -147.83 28.34 C-147.83 27.68 -147.83 27.02 -147.83 26.34 C-149.65 26.39 -149.65 26.39 -151.5 26.43 C-172.15 26.94 -192.8 27.44 -213.46 27.46 C-214.16 27.47 -214.87 27.47 -215.59 27.47 C-224.06 27.5 -232.41 27.21 -240.83 26.34 C-238.06 24.91 -235.64 23.96 -232.58 23.34 C-231.79 23.17 -231.01 23.01 -230.2 22.84 C-229.03 22.59 -229.03 22.59 -227.83 22.34 C-223.8 21.44 -219.93 20.43 -216.09 18.91 C-200.27 12.91 -183.95 12.14 -167.2 12.4 C-164.05 12.48 -164.05 12.48 -161.97 11.84 C-159.33 11.22 -156.91 11.23 -154.19 11.24 C-152.59 11.25 -152.59 11.25 -150.95 11.25 C-149.84 11.26 -148.73 11.27 -147.58 11.28 C-145.89 11.28 -145.89 11.28 -144.17 11.29 C-141.39 11.3 -138.61 11.32 -135.83 11.34 C-135.83 10.68 -135.83 10.02 -135.83 9.34 C-130.67 9.05 -125.51 8.77 -120.35 8.49 C-118.6 8.39 -116.85 8.29 -115.09 8.19 C-112.57 8.05 -110.04 7.92 -107.51 7.78 C-106.34 7.71 -106.34 7.71 -105.15 7.64 C-101.89 7.47 -98.68 7.34 -95.41 7.38 C-92.84 7.53 -92.84 7.53 -90.83 6.34 C-87.91 6.15 -85.01 6.01 -82.08 5.9 C-74.76 5.59 -67.5 5.07 -60.21 4.34 C-50.55 3.38 -40.92 2.95 -31.22 2.68 C-30.17 2.65 -29.12 2.62 -28.04 2.59 C-27.11 2.56 -26.17 2.54 -25.21 2.51 C-22.68 2.43 -22.68 2.43 -19.83 1.34 C-17.27 1.11 -14.72 0.92 -12.14 0.78 C-11.46 0.73 -10.78 0.69 -10.08 0.65 C-8.69 0.56 -7.29 0.49 -5.9 0.44 C-3.93 0.34 -1.96 0.17 0 0 Z M-218.83 23.34 C-219.16 24.33 -219.49 25.32 -219.83 26.34 C-218.51 26.01 -217.19 25.68 -215.83 25.34 C-216.49 25.34 -217.15 25.34 -217.83 25.34 C-218.16 24.68 -218.49 24.02 -218.83 23.34 Z M-138.83 26.34 C-138.83 26.67 -138.83 27 -138.83 27.34 C-111.44 27.34 -84.05 27.34 -55.83 27.34 C-55.83 27.01 -55.83 26.68 -55.83 26.34 C-83.22 26.34 -110.61 26.34 -138.83 26.34 Z " fill="#2A2B2A" transform="translate(745.83203125,853.66015625)"/>
<path d="M0 0 C1.68 0.29 3.34 0.62 5 1 C5 4.46 4.5 6.46 2.12 9 C0.64 10.36 -0.86 11.68 -2.38 12.97 C-4.29 14.91 -4.29 14.91 -3.86 17.61 C-2.79 20.58 -1.43 22 1 24 C3.7 24.9 5.34 25.14 8.12 25.18 C8.94 25.19 9.77 25.2 10.62 25.22 C11.5 25.22 12.39 25.23 13.3 25.24 C14.22 25.25 15.14 25.25 16.08 25.26 C18.02 25.28 19.96 25.29 21.9 25.3 C24.86 25.31 27.82 25.36 30.78 25.4 C32.66 25.41 34.55 25.42 36.43 25.43 C37.31 25.44 38.2 25.46 39.11 25.48 C43.25 25.46 45.41 25.38 48.97 23.1 C49.64 22.41 50.31 21.71 51 21 C51.66 20.34 52.32 19.68 53 19 C53.65 16.43 53.65 16.43 54 14 C53.46 13.79 52.93 13.59 52.38 13.38 C49.03 11.44 46.32 9.1 44 6 C43.62 3.12 43.62 3.12 44 1 C52 1.92 52 1.92 55 4 C55.5 5.49 55.5 5.49 56 7 C58.03 8.17 58.03 8.17 60.44 9.06 C63.25 10.19 64.84 10.84 67 13 C67.08 13.97 67.17 14.94 67.25 15.94 C67.69 19.31 67.69 19.31 71.06 20.88 C72.03 21.25 73 21.62 74 22 C74 22.66 74 23.32 74 24 C74.66 24 75.32 24 76 24 C78.22 26.3 78.97 27.52 79.19 30.75 C79.09 31.86 79.09 31.86 79 33 C75.27 32.5 73.19 32.13 70 30 C70 29.34 70 28.68 70 28 C68.51 27.5 68.51 27.5 67 27 C67 26.34 67 25.68 67 25 C62.65 24.57 60.71 24.42 57.25 27.25 C56.51 28.16 55.77 29.06 55 30 C54.46 30.51 53.93 31.03 53.38 31.56 C51.17 35.46 51.63 39.39 51.71 43.8 C51.71 44.75 51.72 45.69 51.72 46.67 C51.74 49.7 51.77 52.72 51.81 55.75 C51.83 57.8 51.84 59.86 51.85 61.91 C51.89 66.94 51.94 71.97 52 77 C52.63 77.11 53.27 77.22 53.92 77.34 C54.95 77.67 54.95 77.67 56 78 C57.25 80.56 57.25 80.56 58 83 C62.75 82.57 64.92 81.67 68 78 C68.99 78.99 69.98 79.98 71 81 C70.36 83.35 69.69 85.67 69 88 C68.81 88.72 68.61 89.44 68.41 90.18 C67.76 92.28 67.12 94.1 66 96 C62.94 97.56 62.94 97.56 60 98 C59.34 97.67 58.68 97.34 58 97 C57.63 97.87 57.63 97.87 57.25 98.75 C55.82 101.33 54.22 103.06 52 105 C51.34 105 50.68 105 50 105 C50 105.66 50 106.32 50 107 C48.35 107 46.7 107 45 107 C44.22 105.31 44.22 105.31 44 103 C46.17 100.27 48.6 97.96 51.09 95.54 C53.28 93.17 53.28 93.17 52.97 90.31 C52.11 87.68 52.11 87.68 49 86 C49 85.34 49 84.68 49 84 C42.09 84.04 35.19 84.11 28.28 84.21 C25.94 84.24 23.59 84.26 21.24 84.27 C17.86 84.29 14.49 84.34 11.11 84.39 C10.06 84.39 9.01 84.39 7.92 84.39 C2.26 84.42 2.26 84.42 -2.69 86.89 C-4.19 88.93 -4.19 88.93 -4.12 91.44 C-2.95 94.1 -2.16 94.87 0.06 96.62 C1.03 97.41 2 98.19 3 99 C3 99.99 3 100.98 3 102 C3.66 102 4.32 102 5 102 C5 103.65 5 105.3 5 107 C1.08 106.04 -1.42 104.79 -4.31 102.06 C-7.64 99.01 -10.74 97.84 -15.08 96.74 C-17 96 -17 96 -19 93 C-19.29 92.01 -19.58 91.02 -19.88 90 C-21.11 86.7 -22.15 85.9 -25 84 C-25 83.34 -25 82.68 -25 82 C-25.99 81.67 -26.98 81.34 -28 81 C-29.45 78.1 -30 76.26 -30 73 C-26.27 73.5 -24.19 73.87 -21 76 C-21 76.66 -21 77.32 -21 78 C-20.34 78 -19.68 78 -19 78 C-18.04 78.99 -18.04 78.99 -17.06 80 C-15.12 82.35 -15.12 82.35 -12 82 C-11.67 81.34 -11.34 80.68 -11 80 C-9.52 79.5 -9.52 79.5 -8 79 C-7.97 71.65 -7.96 64.3 -7.95 56.95 C-7.94 54.45 -7.93 51.94 -7.92 49.44 C-7.91 45.85 -7.91 42.26 -7.9 38.67 C-7.9 37.55 -7.89 36.42 -7.89 35.27 C-7.89 34.23 -7.89 33.19 -7.89 32.11 C-7.88 30.74 -7.88 30.74 -7.88 29.33 C-7.9 26.84 -7.9 26.84 -9 24 C-12.4 24.1 -12.4 24.1 -16 25 C-17.81 27.37 -17.81 27.37 -19 30 C-22 32 -22 32 -25 32 C-25 32.66 -25 33.32 -25 34 C-26.32 34 -27.64 34 -29 34 C-29.66 32.02 -30.32 30.04 -31 28 C-30.24 27.4 -29.47 26.8 -28.69 26.19 C-25.5 23.59 -23.28 21.43 -21 18 C-20.67 18.33 -20.34 18.66 -20 19 C-19.55 17.91 -19.09 16.81 -18.62 15.69 C-17.58 13.18 -16.54 11.3 -15 9 C-11.88 7.81 -11.88 7.81 -9 7 C-9 7.66 -9 8.32 -9 9 C-8.34 9 -7.68 9 -7 9 C-6.91 7.86 -6.91 7.86 -6.81 6.69 C-6 4 -6 4 -3.5 2.25 C-2.67 1.84 -1.85 1.43 -1 1 C-0.67 0.67 -0.34 0.34 0 0 Z M2 2 C2.99 3.49 2.99 3.49 4 5 C4 4.01 4 3.02 4 2 C3.34 2 2.68 2 2 2 Z M-2 7 C-1 9 -1 9 -1 9 Z M76 28 C76 28.99 76 29.98 76 31 C76.66 31 77.32 31 78 31 C77.67 30.01 77.34 29.02 77 28 C76.67 28 76.34 28 76 28 Z M-7 85 C-6 87 -6 87 -6 87 Z M64 86 C64 86.99 64 87.98 64 89 C64.99 88.67 65.98 88.34 67 88 C66.67 87.34 66.34 86.68 66 86 C65.34 86 64.68 86 64 86 Z M61 94 C62 96 62 96 62 96 Z " fill="#F7CA0C" transform="translate(63,431)"/>
<path d="M0 0 C0.66 0.66 1.32 1.32 2 2 C4.93 2.23 4.93 2.23 8.4 2.08 C9.06 2.07 9.72 2.06 10.39 2.04 C11.82 2.01 13.25 1.98 14.68 1.94 C17.74 1.86 20.79 1.82 23.84 1.77 C29.52 1.69 35.2 1.59 40.88 1.43 C44.83 1.32 48.78 1.26 52.73 1.22 C54.23 1.2 55.73 1.16 57.23 1.11 C64.89 0.83 70.7 0.91 76.69 6.27 C78.15 7.83 79.58 9.41 81 11 C82.63 12.5 84.27 13.98 85.94 15.44 C86.65 16.08 87.36 16.71 88.09 17.37 C90.11 19.16 90.11 19.16 93 21 C93.5 22.49 93.5 22.49 94 24 C93.38 24 92.77 24 92.13 24 C77.14 23.98 62.15 23.96 47.17 23.95 C39.92 23.94 32.67 23.94 25.42 23.92 C19.1 23.91 12.79 23.91 6.47 23.91 C3.13 23.9 -0.22 23.9 -3.57 23.89 C-7.3 23.89 -11.03 23.89 -14.76 23.89 C-15.87 23.88 -16.99 23.88 -18.14 23.88 C-19.15 23.88 -20.16 23.88 -21.2 23.88 C-22.09 23.88 -22.97 23.88 -23.88 23.88 C-26.06 23.86 -26.06 23.86 -28 25 C-28.66 24.34 -29.32 23.68 -30 23 C-27.67 21.12 -25.34 19.25 -22.95 17.46 C-18.98 14.46 -15.36 11.43 -11.94 7.81 C-8.3 4.04 -4.8 2.06 0 0 Z " fill="#2C2C2C" transform="translate(629,815)"/>
<path d="M0 0 C0 0.99 0 1.98 0 3 C-0.81 3.33 -0.81 3.33 -1.63 3.67 C-4.79 5.44 -7.3 7.79 -9.94 10.25 C-10.43 10.7 -10.92 11.14 -11.43 11.6 C-11.96 12.09 -12.48 12.58 -13.03 13.08 C-13.63 13.63 -14.24 14.19 -14.86 14.76 C-16.64 16.62 -18.03 18.4 -19.52 20.49 C-23.89 26.34 -27.79 30.97 -35.26 32.27 C-41.32 32.88 -47.35 32.73 -53.44 32.56 C-55.54 32.57 -57.65 32.58 -59.76 32.59 C-76.25 32.57 -76.25 32.57 -82 29 C-82 28.34 -82 27.68 -82 27 C-82.58 26.94 -83.16 26.89 -83.76 26.83 C-87 25.63 -87.98 23.6 -89.88 20.75 C-92.91 16.37 -95.7 13.12 -100 10 C-99.67 8.68 -99.34 7.36 -99 6 C-94.57 5.71 -90.14 5.43 -85.71 5.15 C-84.21 5.05 -82.7 4.95 -81.2 4.85 C-79.03 4.71 -76.86 4.58 -74.68 4.44 C-72.73 4.31 -72.73 4.31 -70.73 4.18 C-68.23 4.06 -65.72 4.01 -63.21 4.04 C-59.98 4.16 -59.98 4.16 -57 3 C-55.09 2.86 -53.18 2.78 -51.27 2.72 C-49.6 2.66 -49.6 2.66 -47.9 2.61 C-45.54 2.53 -43.18 2.46 -40.83 2.39 C-39.72 2.36 -38.61 2.32 -37.46 2.28 C-35.93 2.24 -35.93 2.24 -34.36 2.19 C-32.04 2.26 -32.04 2.26 -31 1 C-28.43 0.76 -25.89 0.57 -23.31 0.44 C-22.55 0.4 -21.8 0.35 -21.02 0.31 C-14.01 -0.06 -7.02 -0.1 0 0 Z " fill="#2B2B2B" transform="translate(716,501)"/>
<path d="M0 0 C0.8 -0 1.6 -0 2.43 -0 C3.26 -0 4.1 0 4.96 0.01 C5.81 0 6.65 0 7.51 -0 C13.78 0.01 13.78 0.01 14.9 1.13 C16.43 1.04 17.95 0.89 19.46 0.7 C20.29 0.59 21.12 0.49 21.97 0.39 C22.93 0.26 22.93 0.26 23.9 0.13 C24.23 1.12 24.56 2.11 24.9 3.13 C25.89 3.79 26.88 4.45 27.9 5.13 C28.85 7.3 28.85 7.3 29.59 9.76 C29.84 10.58 30.09 11.39 30.35 12.23 C30.53 12.86 30.72 13.49 30.9 14.13 C31.38 13.04 31.85 11.95 32.34 10.82 C32.61 10.21 32.87 9.59 33.15 8.96 C33.8 7.38 34.36 5.76 34.9 4.13 C35.56 4.13 36.22 4.13 36.9 4.13 C37.23 3.14 37.56 2.15 37.9 1.13 C39.88 0.8 41.86 0.47 43.9 0.13 C46.2 3.58 46.14 4.84 46.1 8.89 C46.09 10.01 46.08 11.13 46.08 12.28 C46.06 13.45 46.04 14.62 46.03 15.82 C46.02 17 46.01 18.18 46 19.39 C45.98 22.31 45.94 25.22 45.9 28.13 C43.53 29.2 43.53 29.2 40.9 30.13 C40.24 29.8 39.58 29.47 38.9 29.13 C38.9 26.49 38.9 23.85 38.9 21.13 C36.56 22.01 36.56 22.01 35.9 25.07 C35.57 26.08 35.24 27.09 34.9 28.13 C34.24 28.79 33.58 29.45 32.9 30.13 C30.96 30.01 30.96 30.01 28.9 29.13 C27.15 27.07 27.15 27.07 25.9 25.13 C25.65 25.77 25.41 26.41 25.15 27.07 C23.9 29.13 23.9 29.13 21.78 29.88 C20.85 30.01 20.85 30.01 19.9 30.13 C19.9 29.47 19.9 28.81 19.9 28.13 C18.91 28.13 17.92 28.13 16.9 28.13 C15.78 25.9 15.71 24.48 15.59 22 C15.54 21.19 15.5 20.39 15.46 19.56 C15.42 18.72 15.38 17.88 15.34 17.01 C15.3 16.16 15.25 15.31 15.21 14.43 C15.1 12.33 15 10.23 14.9 8.13 C12.92 8.46 10.94 8.79 8.9 9.13 C8.95 11.03 8.95 11.03 9.01 12.96 C9.04 14.62 9.06 16.29 9.09 17.95 C9.11 18.78 9.14 19.61 9.17 20.47 C9.18 21.27 9.19 22.08 9.2 22.9 C9.21 23.64 9.23 24.38 9.24 25.14 C8.81 27.69 7.94 28.59 5.9 30.13 C3.78 29.95 3.78 29.95 1.9 29.13 C0.78 26.9 0.71 25.48 0.59 23 C0.54 22.19 0.5 21.39 0.46 20.56 C0.42 19.72 0.38 18.88 0.34 18.01 C0.3 17.16 0.25 16.31 0.21 15.43 C0.1 13.33 0 11.23 -0.1 9.13 C-1.09 9.13 -2.08 9.13 -3.1 9.13 C-3.76 8.47 -4.42 7.81 -5.1 7.13 C-5.76 6.8 -6.42 6.47 -7.1 6.13 C-6.72 3.7 -6.72 3.7 -6.1 1.13 C-3.82 -0.01 -2.53 0 0 0 Z M43.9 19.13 C43.9 20.78 43.9 22.43 43.9 24.13 C44.23 24.13 44.56 24.13 44.9 24.13 C44.9 22.48 44.9 20.83 44.9 19.13 C44.57 19.13 44.24 19.13 43.9 19.13 Z " fill="#292929" transform="translate(1015.09765625,454.8671875)"/>
<path d="M0 0 C1.98 0 3.96 0 6 0 C6 0.66 6 1.32 6 2 C8.31 2 10.62 2 13 2 C13 1.34 13 0.68 13 0 C14.98 0 16.96 0 19 0 C19 0.66 19 1.32 19 2 C152.32 2 285.64 2 423 2 C423 1.34 423 0.68 423 0 C425.64 0 428.28 0 431 0 C431 0.66 431 1.32 431 2 C435.29 2 439.58 2 444 2 C444 1.34 444 0.68 444 0 C445.32 0 446.64 0 448 0 C448 0.66 448 1.32 448 2 C493.21 2 538.42 2 585 2 C585 2.33 585 2.66 585 3 C316.38 3 47.76 3 -229 3 C-229 2.67 -229 2.34 -229 2 C-153.43 2 -77.86 2 0 2 C0 1.34 0 0.68 0 0 Z " fill="#000000" transform="translate(475,441)"/>
<path d="M0 0 C267.96 0 535.92 0 812 0 C812 0.33 812 0.66 812 1 C544.04 1 276.08 1 0 1 C0 0.67 0 0.34 0 0 Z " fill="#4F4537" transform="translate(244,968)"/>
<path d="M0 0 C117.15 0 234.3 0 355 0 C355 0.33 355 0.66 355 1 C340.07 3.4 325.15 3.3 310.08 3.3 C306.32 3.3 302.57 3.32 298.81 3.33 C292.32 3.35 285.83 3.36 279.35 3.37 C269.96 3.38 260.57 3.4 251.18 3.42 C235.94 3.46 220.7 3.5 205.46 3.52 C204.55 3.52 203.64 3.53 202.7 3.53 C201.33 3.53 201.33 3.53 199.94 3.53 C186.99 3.56 174.05 3.58 161.11 3.61 C160.2 3.61 159.29 3.61 158.35 3.61 C143.14 3.64 127.94 3.68 112.74 3.72 C103.37 3.74 94 3.76 84.64 3.77 C78.23 3.78 71.82 3.8 65.41 3.81 C61.71 3.82 58.02 3.83 54.32 3.83 C50.31 3.83 46.31 3.84 42.3 3.86 C40.55 3.85 40.55 3.85 38.76 3.85 C37.15 3.86 37.15 3.86 35.5 3.87 C34.11 3.87 34.11 3.87 32.7 3.87 C29.92 3.95 29.92 3.95 26.89 4.53 C23.38 5.1 20.48 4.68 17 4 C16.67 3.67 16.34 3.34 16 3 C13.31 2.6 10.64 2.25 7.94 1.94 C7.18 1.85 6.42 1.76 5.64 1.66 C3.76 1.44 1.88 1.22 0 1 C0 0.67 0 0.34 0 0 Z " fill="#3A352E" transform="translate(481,452)"/>
<path d="M0 0 C8 0.92 8 0.92 11 3 C11.33 3.99 11.66 4.98 12 6 C14.03 7.17 14.03 7.17 16.44 8.06 C19.25 9.19 20.84 9.84 23 12 C23.12 13.45 23.12 13.45 23.25 14.94 C23.69 18.31 23.69 18.31 27.06 19.88 C28.03 20.25 29 20.62 30 21 C30 21.66 30 22.32 30 23 C30.66 23 31.32 23 32 23 C34.22 25.3 34.97 26.52 35.19 29.75 C35.09 30.86 35.09 30.86 35 32 C31.27 31.5 29.19 31.13 26 29 C26 28.34 26 27.68 26 27 C25.01 26.67 24.02 26.34 23 26 C23 25.34 23 24.68 23 24 C17.2 23.76 17.2 23.76 12 26 C9.94 24.25 9.94 24.25 8 22 C8.19 20.06 8.19 20.06 9 18 C9.34 16.33 9.68 14.67 10 13 C9.2 12.69 9.2 12.69 8.38 12.38 C5.03 10.44 2.32 8.1 0 5 C-0.38 2.12 -0.38 2.12 0 0 Z M32 27 C32 27.99 32 28.98 32 30 C32.66 30 33.32 30 34 30 C33.67 29.01 33.34 28.02 33 27 C32.67 27 32.34 27 32 27 Z " fill="#F4C80D" transform="translate(107,432)"/>
<path d="M0 0 C3.02 2.97 4.97 6.31 7 10 C7.58 10.89 8.16 11.79 8.75 12.71 C9.17 13.46 9.58 14.22 10 15 C9.67 15.66 9.34 16.32 9 17 C5.07 17.07 1.14 17.13 -2.8 17.16 C-4.79 17.19 -6.79 17.23 -8.78 17.26 C-10.04 17.27 -11.29 17.28 -12.58 17.29 C-13.74 17.31 -14.9 17.32 -16.09 17.34 C-19 17 -19 17 -20.9 15.48 C-21.26 14.99 -21.63 14.5 -22 14 C-20.95 12.22 -19.89 10.45 -18.81 8.69 C-18.22 7.7 -17.63 6.72 -17.02 5.7 C-12.78 0.03 -6.83 -2.04 0 0 Z " fill="#2C2C2C" transform="translate(668,776)"/>
<path d="M0 0 C0.81 0 1.61 0.01 2.44 0.01 C3.7 0.02 3.7 0.02 4.99 0.04 C5.84 0.04 6.69 0.04 7.57 0.05 C9.67 0.06 11.77 0.08 13.87 0.1 C14.49 3.47 14.49 3.47 14.87 7.1 C14.21 7.76 13.55 8.42 12.87 9.1 C11.55 9.1 10.23 9.1 8.87 9.1 C8.92 10.99 8.92 10.99 8.97 12.93 C9 14.59 9.03 16.25 9.05 17.91 C9.08 18.74 9.1 19.58 9.13 20.44 C9.14 21.24 9.15 22.04 9.16 22.87 C9.18 23.61 9.19 24.34 9.21 25.1 C8.77 27.66 7.91 28.55 5.87 30.1 C3.74 29.91 3.74 29.91 1.87 29.1 C0.75 26.86 0.67 25.45 0.55 22.96 C0.51 22.16 0.47 21.35 0.42 20.52 C0.38 19.68 0.35 18.84 0.3 17.97 C0.26 17.12 0.22 16.27 0.17 15.4 C0.07 13.3 -0.03 11.2 -0.13 9.1 C-1.12 9.1 -2.11 9.1 -3.13 9.1 C-3.79 8.44 -4.45 7.78 -5.13 7.1 C-5.79 6.77 -6.45 6.44 -7.13 6.1 C-6.76 3.66 -6.76 3.66 -6.13 1.1 C-3.84 -0.05 -2.55 -0.02 0 0 Z " fill="#282828" transform="translate(1015.1328125,454.90234375)"/>
<path d="M0 0 C3.7 0.01 7.4 0 11.09 -0 C13.98 -0.01 16.87 -0.01 19.75 -0 C21.77 -0 23.79 -0.01 25.81 -0.01 C31.63 0.01 37.23 0.06 42.95 1.13 C42.62 1.79 42.29 2.45 41.95 3.13 C33.37 3.15 24.79 3.17 16.21 3.18 C12.22 3.19 8.23 3.19 4.24 3.21 C-14.21 3.26 -32.61 3.13 -51.05 2.13 C-51.05 1.8 -51.05 1.47 -51.05 1.13 C-34.03 0.13 -17.04 -0.03 0 0 Z " fill="#BE9A17" transform="translate(98.046142578125,648.86962890625)"/>
<path d="M0 0 C44.88 0 89.76 0 136 0 C136 0.33 136 0.66 136 1 C91.12 1 46.24 1 0 1 C0 0.67 0 0.34 0 0 Z " fill="#000000" transform="translate(692,883)"/>
<path d="M0 0 C13.53 0 27.06 0 41 0 C41 0.66 41 1.32 41 2 C43.31 2 45.62 2 48 2 C48 2.33 48 2.66 48 3 C31.83 3 15.66 3 -1 3 C-0.67 2.01 -0.34 1.02 0 0 Z " fill="#BE9A17" transform="translate(148,549)"/>
<path d="M0 0 C0.33 0.66 0.66 1.32 1 2 C4.96 2 8.92 2 13 2 C12.01 6.94 10.82 8.99 8 13 C7.31 14.32 6.62 15.65 6 17 C6 16.34 6 15.68 6 15 C5.34 15 4.68 15 4 15 C3.13 13.26 2.28 11.51 1.44 9.75 C0.72 8.29 0.72 8.29 -0 6.8 C-1.04 3.9 -1.11 2.8 0 0 Z " fill="#302F2D" transform="translate(655,555)"/>
<path d="M0 0 C1.45 0.03 1.45 0.03 2.94 0.06 C2.61 1.05 2.28 2.04 1.94 3.06 C0.29 3.06 -1.36 3.06 -3.06 3.06 C-3.06 4.05 -3.06 5.04 -3.06 6.06 C-2.07 6.72 -1.08 7.38 -0.06 8.06 C-8.46 8.18 -16.71 7.91 -25.06 7.06 C-22.32 5.58 -19.86 4.68 -16.81 4.06 C-11.34 2.91 -5.21 0.11 0 0 Z " fill="#3D382E" transform="translate(530.0625,872.9375)"/>
<path d="M0 0 C0.33 0 0.66 0 1 0 C1 24.09 1 48.18 1 73 C0.67 73 0.34 73 0 73 C0 48.91 0 24.82 0 0 Z " fill="#000000" transform="translate(1062,369)"/>
<path d="M0 0 C0.33 0 0.66 0 1 0 C1 22.77 1 45.54 1 69 C0.67 69 0.34 69 0 69 C0 46.23 0 23.46 0 0 Z " fill="#2A2B2C" transform="translate(243,370)"/>
<path d="M0 0 C20.13 0 40.26 0 61 0 C61 0.33 61 0.66 61 1 C40.87 1 20.74 1 0 1 C0 0.67 0 0.34 0 0 Z " fill="#000000" transform="translate(638,486)"/>
<path d="M0 0 C14.52 0 29.04 0 44 0 C44 0.33 44 0.66 44 1 C29.48 1 14.96 1 0 1 C0 0.67 0 0.34 0 0 Z " fill="#FBCE0C" transform="translate(148,494)"/>
<path d="M0 0 C2.44 1 2.44 1 4 2 C3.67 2.66 3.34 3.32 3 4 C-2.28 3.67 -7.56 3.34 -13 3 C-7.98 0.49 -5.66 -0.29 0 0 Z " fill="#564924" transform="translate(518,877)"/>
<path d="M0 0 C11.55 0 23.1 0 35 0 C35 0.33 35 0.66 35 1 C23.45 1 11.9 1 0 1 C0 0.67 0 0.34 0 0 Z " fill="#4F4537" transform="translate(562,881)"/>
<path d="M0 0 C2.97 0.5 2.97 0.5 6 1 C6.33 2.32 6.66 3.64 7 5 C5.02 5.99 5.02 5.99 3 7 C1.5 5.75 1.5 5.75 0 4 C0 2.68 0 1.36 0 0 Z " fill="#EBC00E" transform="translate(33,504)"/>
<path d="M0 0 C10.89 0 21.78 0 33 0 C33 0.33 33 0.66 33 1 C22.11 1 11.22 1 0 1 C0 0.67 0 0.34 0 0 Z " fill="#FBCE0C" transform="translate(69,455)"/>
<path d="M0 0 C-1.36 4.09 -3.35 4.62 -7.06 6.69 C-8.17 7.31 -9.27 7.93 -10.41 8.57 C-11.26 9.04 -12.12 9.52 -13 10 C-13.66 9.34 -14.32 8.68 -15 8 C-14.4 7.67 -13.79 7.35 -13.17 7.01 C-12.37 6.57 -11.57 6.14 -10.75 5.69 C-9.96 5.26 -9.17 4.83 -8.36 4.39 C-5.97 3.05 -5.97 3.05 -3.83 1.33 C-2 0 -2 0 0 0 Z " fill="#D2A814" transform="translate(591,845)"/>
<path d="M0 0 C2.88 -0.19 2.88 -0.19 6 0 C6.66 0.99 7.32 1.98 8 3 C10.05 4.19 10.05 4.19 12 5 C3.43 4.14 3.43 4.14 0 2 C0 1.34 0 0.68 0 0 Z " fill="#000000" transform="translate(518,876)"/>
<path d="M0 0 C5.28 0 10.56 0 16 0 C16 0.33 16 0.66 16 1 C10.72 1 5.44 1 0 1 C0 0.67 0 0.34 0 0 Z " fill="#2A2B2C" transform="translate(679,816)"/>
<path d="M0 0 C0.33 0 0.66 0 1 0 C1 5.28 1 10.56 1 16 C0.67 16 0.34 16 0 16 C0 10.72 0 5.44 0 0 Z " fill="#000000" transform="translate(760,659)"/>
<path d="M0 0 C4.95 0 9.9 0 15 0 C15 0.33 15 0.66 15 1 C10.05 1 5.1 1 0 1 C0 0.67 0 0.34 0 0 Z " fill="#2A2B2C" transform="translate(635,816)"/>
<path d="M0 0 C4.62 0 9.24 0 14 0 C14 0.33 14 0.66 14 1 C9.38 1 4.76 1 0 1 C0 0.67 0 0.34 0 0 Z " fill="#000000" transform="translate(837,883)"/>
<path d="M0 0 C0.33 0 0.66 0 1 0 C1 4.62 1 9.24 1 14 C0.67 14 0.34 14 0 14 C0 9.38 0 4.76 0 0 Z " fill="#FBCE0C" transform="translate(240,855)"/>
<path d="M0 0 C0.33 0 0.66 0 1 0 C1 4.62 1 9.24 1 14 C0.67 14 0.34 14 0 14 C0 9.38 0 4.76 0 0 Z " fill="#FBCE0C" transform="translate(240,791)"/>
<path d="M0 0 C0.33 0 0.66 0 1 0 C1 4.62 1 9.24 1 14 C0.67 14 0.34 14 0 14 C0 9.38 0 4.76 0 0 Z " fill="#FBCE0C" transform="translate(240,599)"/>
<path d="M0 0 C0.33 0 0.66 0 1 0 C1 4.62 1 9.24 1 14 C0.67 14 0.34 14 0 14 C0 9.38 0 4.76 0 0 Z " fill="#FBCE0C" transform="translate(240,535)"/>
<path d="M0 0 C0.33 0 0.66 0 1 0 C1 4.62 1 9.24 1 14 C0.67 14 0.34 14 0 14 C0 9.38 0 4.76 0 0 Z " fill="#FBCE0C" transform="translate(240,471)"/>
<path d="M0 0 C4.29 0 8.58 0 13 0 C13 0.33 13 0.66 13 1 C8.71 1 4.42 1 0 1 C0 0.67 0 0.34 0 0 Z " fill="#000000" transform="translate(892,883)"/>
<path d="M0 0 C3.63 0 7.26 0 11 0 C11 0.33 11 0.66 11 1 C7.37 1 3.74 1 0 1 C0 0.67 0 0.34 0 0 Z " fill="#000000" transform="translate(856,550)"/>
<path d="M0 0 C0.66 0.66 1.32 1.32 2 2 C0.35 2.66 -1.3 3.32 -3 4 C-2.67 3.01 -2.34 2.02 -2 1 C-1.34 0.67 -0.68 0.34 0 0 Z " fill="#B69619" transform="translate(598,839)"/>
<path d="M0 0 C3.3 0 6.6 0 10 0 C10 0.33 10 0.66 10 1 C6.7 1 3.4 1 0 1 C0 0.67 0 0.34 0 0 Z " fill="#000000" transform="translate(890,550)"/>
<path d="M0 0 C2.97 0 5.94 0 9 0 C9 0.33 9 0.66 9 1 C6.03 1 3.06 1 0 1 C0 0.67 0 0.34 0 0 Z " fill="#2A2B2C" transform="translate(657,555)"/>
<path d="M0 0 C2.64 0 5.28 0 8 0 C8 0.33 8 0.66 8 1 C5.36 1 2.72 1 0 1 C0 0.67 0 0.34 0 0 Z " fill="#000000" transform="translate(918,880)"/>
<path d="M0 0 C0.33 0 0.66 0 1 0 C1 1.98 1 3.96 1 6 C0.67 6 0.34 6 0 6 C0 4.02 0 2.04 0 0 Z " fill="#FBCE0C" transform="translate(240,878)"/>
<path d="M0 0 C0.33 0 0.66 0 1 0 C1 1.98 1 3.96 1 6 C0.67 6 0.34 6 0 6 C0 4.02 0 2.04 0 0 Z " fill="#FBCE0C" transform="translate(240,840)"/>
<path d="M0 0 C0.33 0 0.66 0 1 0 C1 1.98 1 3.96 1 6 C0.67 6 0.34 6 0 6 C0 4.02 0 2.04 0 0 Z " fill="#FBCE0C" transform="translate(240,827)"/>
<path d="M0 0 C0.33 0 0.66 0 1 0 C1 1.98 1 3.96 1 6 C0.67 6 0.34 6 0 6 C0 4.02 0 2.04 0 0 Z " fill="#FBCE0C" transform="translate(240,814)"/>
<path d="M0 0 C0.33 0 0.66 0 1 0 C1 1.98 1 3.96 1 6 C0.67 6 0.34 6 0 6 C0 4.02 0 2.04 0 0 Z " fill="#FBCE0C" transform="translate(240,776)"/>
<path d="M0 0 C0.33 0 0.66 0 1 0 C1 1.98 1 3.96 1 6 C0.67 6 0.34 6 0 6 C0 4.02 0 2.04 0 0 Z " fill="#FBCE0C" transform="translate(240,763)"/>
<path d="M0 0 C0.33 0 0.66 0 1 0 C1 1.98 1 3.96 1 6 C0.67 6 0.34 6 0 6 C0 4.02 0 2.04 0 0 Z " fill="#FBCE0C" transform="translate(240,622)"/>
<path d="M0 0 C0.33 0 0.66 0 1 0 C1 1.98 1 3.96 1 6 C0.67 6 0.34 6 0 6 C0 4.02 0 2.04 0 0 Z " fill="#FBCE0C" transform="translate(240,584)"/>
<path d="M0 0 C0.33 0 0.66 0 1 0 C1 1.98 1 3.96 1 6 C0.67 6 0.34 6 0 6 C0 4.02 0 2.04 0 0 Z " fill="#FBCE0C" transform="translate(240,571)"/>
<path d="M0 0 C0.33 0 0.66 0 1 0 C1 1.98 1 3.96 1 6 C0.67 6 0.34 6 0 6 C0 4.02 0 2.04 0 0 Z " fill="#FBCE0C" transform="translate(240,558)"/>
<path d="M0 0 C0.33 0 0.66 0 1 0 C1 1.98 1 3.96 1 6 C0.67 6 0.34 6 0 6 C0 4.02 0 2.04 0 0 Z " fill="#FBCE0C" transform="translate(240,520)"/>
<path d="M0 0 C0.33 0 0.66 0 1 0 C1 1.98 1 3.96 1 6 C0.67 6 0.34 6 0 6 C0 4.02 0 2.04 0 0 Z " fill="#FBCE0C" transform="translate(240,507)"/>
<path d="M0 0 C0.33 0 0.66 0 1 0 C1 1.98 1 3.96 1 6 C0.67 6 0.34 6 0 6 C0 4.02 0 2.04 0 0 Z " fill="#FBCE0C" transform="translate(240,494)"/>
<path d="M0 0 C0.33 0 0.66 0 1 0 C1 1.98 1 3.96 1 6 C0.67 6 0.34 6 0 6 C0 4.02 0 2.04 0 0 Z " fill="#FBCE0C" transform="translate(240,456)"/>
<path d="M0 0 C0.33 0 0.66 0 1 0 C1 1.65 1 3.3 1 5 C0.67 5 0.34 5 0 5 C0 3.35 0 1.7 0 0 Z " fill="#2A2B2C" transform="translate(240,896)"/>
<path d="M0 0 C1.65 0 3.3 0 5 0 C5 0.33 5 0.66 5 1 C3.35 1 1.7 1 0 1 C0 0.67 0 0.34 0 0 Z " fill="#000000" transform="translate(672,793)"/>
<path d="M0 0 C0.33 0 0.66 0 1 0 C1 1.65 1 3.3 1 5 C0.67 5 0.34 5 0 5 C0 3.35 0 1.7 0 0 Z " fill="#000000" transform="translate(765,628)"/>
<path d="M0 0 C4 1 4 1 4 1 Z " fill="#000000" transform="translate(946,875)"/>
<path d="M0 0 C1 4 1 4 1 4 Z " fill="#000000" transform="translate(765,701)"/>
<path d="M0 0 C1 4 1 4 1 4 Z " fill="#FBCE0C" transform="translate(496,698)"/>
<path d="M0 0 C0.99 0.5 0.99 0.5 2 1 C1.34 1.66 0.68 2.32 0 3 C0 2.01 0 1.02 0 0 Z " fill="#FBCE0C" transform="translate(391,543)"/>
<path d="M0 0 C0.66 0 1.32 0 2 0 C2 0.66 2 1.32 2 2 C1.34 2 0.68 2 0 2 C0 1.34 0 0.68 0 0 Z " fill="#000000" transform="translate(459,347)"/>
<path d="M0 0 C3 1 3 1 3 1 Z " fill="#000000" transform="translate(933,878)"/>
<path d="M0 0 C3 1 3 1 3 1 Z " fill="#000000" transform="translate(964,870)"/>
<path d="M0 0 C3 1 3 1 3 1 Z " fill="#000000" transform="translate(603,839)"/>
<path d="M0 0 C3 1 3 1 3 1 Z " fill="#FBCE0C" transform="translate(449,734)"/>
<path d="" fill="#000000" transform="translate(0,0)"/>
<path d="" fill="#FBCE0C" transform="translate(0,0)"/>
<path d="M0 0 C3 1 3 1 3 1 Z " fill="#000000" transform="translate(917,555)"/>
<path d="M0 0 C3 1 3 1 3 1 Z " fill="#000000" transform="translate(836,555)"/>
<path d="M0 0 C3 1 3 1 3 1 Z " fill="#000000" transform="translate(843,553)"/>
<path d="M0 0 C0.99 0.5 0.99 0.5 2 1 C1.01 1.5 1.01 1.5 0 2 C0 1.34 0 0.68 0 0 Z " fill="#FBCE0C" transform="translate(111,526)"/>
<path d="M0 0 C0.99 0.5 0.99 0.5 2 1 C1.01 1.5 1.01 1.5 0 2 C0 1.34 0 0.68 0 0 Z " fill="#FBCE0C" transform="translate(131,506)"/>
<path d="M0 0 C3 1 3 1 3 1 Z " fill="#FBCE0C" transform="translate(473,450)"/>
<path d="M0 0 C2 1 2 1 2 1 Z " fill="#000000" transform="translate(1020,847)"/>
<path d="M0 0 C2 1 2 1 2 1 Z " fill="#2A2B2C" transform="translate(632,816)"/>
<path d="" fill="#000000" transform="translate(0,0)"/>
<path d="" fill="#000000" transform="translate(0,0)"/>
<path d="" fill="#FBCE0C" transform="translate(0,0)"/>
<path d="" fill="#000000" transform="translate(0,0)"/>
<path d="" fill="#FBCE0C" transform="translate(0,0)"/>
<path d="" fill="#000000" transform="translate(0,0)"/>
<path d="M0 0 C2 1 2 1 2 1 Z " fill="#000000" transform="translate(926,558)"/>
<path d="M0 0 C2 1 2 1 2 1 Z " fill="#000000" transform="translate(828,558)"/>
<path d="M0 0 C2 1 2 1 2 1 Z " fill="#000000" transform="translate(911,553)"/>
<path d="" fill="#FBCE0C" transform="translate(0,0)"/>
<path d="M0 0 C2 1 2 1 2 1 Z " fill="#2A2B2C" transform="translate(490,299)"/>
<path d="" fill="#000000" transform="translate(0,0)"/>
<path d="" fill="#000000" transform="translate(0,0)"/>
<path d="" fill="#000000" transform="translate(0,0)"/>
<path d="" fill="#000000" transform="translate(0,0)"/>
<path d="" fill="#000000" transform="translate(0,0)"/>
<path d="" fill="#000000" transform="translate(0,0)"/>
<path d="" fill="#000000" transform="translate(0,0)"/>
<path d="" fill="#000000" transform="translate(0,0)"/>
<path d="" fill="#000000" transform="translate(0,0)"/>
<path d="" fill="#000000" transform="translate(0,0)"/>
<path d="" fill="#000000" transform="translate(0,0)"/>
<path d="" fill="#FBCE0C" transform="translate(0,0)"/>
<path d="" fill="#FBCE0C" transform="translate(0,0)"/>
<path d="" fill="#000000" transform="translate(0,0)"/>
<path d="" fill="#FBCE0C" transform="translate(0,0)"/>
<path d="" fill="#FBCE0C" transform="translate(0,0)"/>
<path d="" fill="#FBCE0C" transform="translate(0,0)"/>
<path d="" fill="#BE9A17" transform="translate(0,0)"/>
<path d="" fill="#000000" transform="translate(0,0)"/>
<path d="" fill="#4F4537" transform="translate(0,0)"/>
<path d="" fill="#FBCE0C" transform="translate(0,0)"/>
<path d="" fill="#000000" transform="translate(0,0)"/>
<path d="" fill="#000000" transform="translate(0,0)"/>
<path d="" fill="#000000" transform="translate(0,0)"/>
<path d="" fill="#000000" transform="translate(0,0)"/>
<path d="" fill="#000000" transform="translate(0,0)"/>
<path d="" fill="#000000" transform="translate(0,0)"/>
<path d="" fill="#000000" transform="translate(0,0)"/>
<path d="" fill="#BE9A17" transform="translate(0,0)"/>
<path d="" fill="#FBCE0C" transform="translate(0,0)"/>
<path d="" fill="#FBCE0C" transform="translate(0,0)"/>
<path d="" fill="#2A2B2C" transform="translate(0,0)"/>
<path d="" fill="#FBCE0C" transform="translate(0,0)"/>
<path d="" fill="#FBCE0C" transform="translate(0,0)"/>
<path d="" fill="#FBCE0C" transform="translate(0,0)"/>
<path d="" fill="#4F4537" transform="translate(0,0)"/>
<path d="" fill="#FBCE0C" transform="translate(0,0)"/>
<path d="" fill="#FBCE0C" transform="translate(0,0)"/>
<path d="" fill="#FBCE0C" transform="translate(0,0)"/>
<path d="" fill="#FBCE0C" transform="translate(0,0)"/>
<path d="" fill="#CB3229" transform="translate(0,0)"/>
<path d="" fill="#CB3229" transform="translate(0,0)"/>
<path d="" fill="#4F4537" transform="translate(0,0)"/>
<path d="" fill="#000000" transform="translate(0,0)"/>
<path d="" fill="#000000" transform="translate(0,0)"/>
<path d="" fill="#4F4537" transform="translate(0,0)"/>
<path d="" fill="#2A2B2C" transform="translate(0,0)"/>
<path d="" fill="#000000" transform="translate(0,0)"/>
<path d="" fill="#FBCE0C" transform="translate(0,0)"/>
<path d="" fill="#000000" transform="translate(0,0)"/>
<path d="" fill="#000000" transform="translate(0,0)"/>
<path d="" fill="#FBCE0C" transform="translate(0,0)"/>
<path d="" fill="#FBCE0C" transform="translate(0,0)"/>
<path d="" fill="#FBCE0C" transform="translate(0,0)"/>
<path d="" fill="#2A2B2C" transform="translate(0,0)"/>
<path d="" fill="#2A2B2C" transform="translate(0,0)"/>
<path d="" fill="#2A2B2C" transform="translate(0,0)"/>
<path d="" fill="#2A2B2C" transform="translate(0,0)"/>
<path d="" fill="#2A2B2C" transform="translate(0,0)"/>
<path d="" fill="#2A2B2C" transform="translate(0,0)"/>
<path d="" fill="#2A2B2C" transform="translate(0,0)"/>
</svg>
