<?xml version="1.0" encoding="UTF-8"?>
<!-- Generator: visioncortex VTracer 0.6.3 -->
<svg version="1.1" xmlns="http://www.w3.org/2000/svg" width="1280" height="1280">
<path d="M0 0 C2.06 0.44 2.06 0.44 4 1 C3.75 6.21 2.08 8.44 -1.53 11.9 C-3 13 -3 13 -5 13 C-5.33 15.64 -5.66 18.28 -6 21 C-5.01 20.67 -4.02 20.34 -3 20 C-2.77 20.64 -2.55 21.28 -2.31 21.94 C-1.2 24.18 -1.2 24.18 1.02 24.62 C5.04 25.13 9.01 25.14 13.06 25.13 C13.93 25.13 14.8 25.13 15.7 25.14 C17.53 25.14 19.36 25.13 21.19 25.13 C23.99 25.13 26.79 25.13 29.59 25.14 C31.37 25.14 33.15 25.13 34.94 25.13 C35.77 25.13 36.6 25.14 37.46 25.14 C41.44 25.12 45.12 24.99 49 24 C49 23.34 49 22.68 49 22 C49.66 22 50.32 22 51 22 C51.89 19.33 52.48 16.76 53 14 C52.46 13.79 51.93 13.59 51.38 13.38 C47.56 11.17 43.78 8.17 42.26 3.93 C42 2 42 2 43 0 C44.65 0.33 46.3 0.66 48 1 C48 1.66 48 2.32 48 3 C49.98 3.66 51.96 4.32 54 5 C54 5.99 54 6.98 54 8 C54.57 8.14 55.15 8.28 55.74 8.43 C56.49 8.62 57.23 8.81 58 9 C58.68 9.17 59.37 9.34 60.07 9.51 C62.24 10.16 64.06 10.81 66 12 C67.34 15.18 68 17.56 68 21 C69.98 21.5 69.98 21.5 72 22 C72 22.66 72 23.32 72 24 C72.99 24 73.98 24 75 24 C75 24.99 75 25.98 75 27 C76.49 27.5 76.49 27.5 78 28 C78 28.99 78 29.98 78 31 C77.01 31 76.02 31 75 31 C74.67 31.66 74.34 32.32 74 33 C70.71 31.31 68.71 29.73 66.62 26.75 C64.21 23.58 64.21 23.58 60.31 23.88 C56.95 24.62 56.95 24.62 55.81 26.94 C55.54 27.62 55.28 28.3 55 29 C54.34 29.26 53.68 29.51 53 29.77 C50.72 30.85 50.72 30.85 50.4 33.51 C50.36 34.56 50.31 35.61 50.27 36.69 C50.21 37.86 50.16 39.03 50.1 40.23 C50.05 42.1 50.05 42.1 50 44 C49.94 45.83 49.94 45.83 49.88 47.7 C49.8 51.47 49.77 55.23 49.75 59 C49.73 60.28 49.71 61.57 49.69 62.89 C49.68 64.12 49.68 65.35 49.67 66.62 C49.66 67.73 49.65 68.84 49.64 69.98 C50.15 74.31 52.12 76.87 54.75 80.25 C57.74 82.57 60.28 82.71 64 83 C64.08 82.26 64.17 81.51 64.25 80.75 C65.17 77.38 66.3 76.17 69 74 C69.85 73.75 70.69 73.5 71.56 73.25 C74.99 71.49 75.38 69.23 76.52 65.68 C76.68 65.13 76.84 64.57 77 64 C77.66 64.33 78.32 64.66 79 65 C80.76 65.09 82.52 65.12 84.28 65.11 C85.39 65.11 86.51 65.11 87.66 65.11 C88.84 65.11 90.01 65.1 91.23 65.1 C92.85 65.1 92.85 65.1 94.5 65.09 C98.54 65.09 102.58 65.08 106.62 65.06 C115.66 65.04 124.69 65.02 134 65 C134 83.81 134 102.62 134 122 C116.51 122.33 99.02 122.66 81 123 C79.34 126.31 79.91 130 79.96 133.64 C79.97 134.54 79.98 135.43 79.99 136.35 C80.01 139.32 80.05 142.28 80.09 145.25 C80.11 147.31 80.13 149.36 80.15 151.42 C80.2 155.73 80.25 160.04 80.3 164.35 C80.36 169.88 80.42 175.42 80.47 180.95 C80.52 185.2 80.57 189.44 80.61 193.69 C80.64 195.73 80.66 197.77 80.68 199.81 C80.71 202.66 80.74 205.51 80.78 208.36 C80.79 209.21 80.79 210.06 80.8 210.93 C80.75 215.1 80.75 215.1 82 219 C113.35 219 144.7 219 177 219 C177 153.33 177 87.66 177 20 C181.21 18.95 185.04 18.86 189.35 18.87 C190.2 18.86 191.05 18.86 191.92 18.86 C194.77 18.85 197.63 18.85 200.48 18.85 C202.53 18.85 204.57 18.85 206.62 18.84 C212.19 18.84 217.76 18.83 223.33 18.83 C226.82 18.83 230.32 18.83 233.81 18.83 C246.04 18.82 258.26 18.81 270.49 18.81 C281.82 18.82 293.14 18.8 304.46 18.79 C314.22 18.78 323.99 18.77 333.75 18.77 C339.56 18.77 345.38 18.77 351.19 18.76 C356.68 18.75 362.18 18.75 367.68 18.76 C369.66 18.76 371.65 18.75 373.64 18.75 C385.04 18.72 396.35 19.1 407.72 19.86 C424.78 21 441.75 21.29 458.84 21.26 C462.89 21.26 466.93 21.26 470.98 21.27 C478.85 21.28 486.72 21.28 494.59 21.27 C500.99 21.27 507.39 21.27 513.79 21.27 C514.71 21.27 515.63 21.27 516.58 21.27 C518.45 21.27 520.32 21.27 522.19 21.27 C539.6 21.28 557.01 21.27 574.43 21.26 C589.32 21.25 604.21 21.25 619.1 21.26 C636.48 21.27 653.86 21.28 671.24 21.27 C673.1 21.27 674.95 21.27 676.81 21.27 C678.18 21.27 678.18 21.27 679.58 21.27 C685.97 21.26 692.36 21.27 698.75 21.27 C706.54 21.28 714.33 21.28 722.13 21.27 C726.09 21.26 730.06 21.26 734.02 21.27 C749.77 21.29 765.33 21.05 780.99 19.21 C786.03 18.69 791.1 18.69 796.16 18.7 C797.28 18.69 798.4 18.69 799.56 18.69 C801.89 18.68 804.22 18.68 806.56 18.68 C810.06 18.69 813.57 18.66 817.07 18.64 C830.67 18.6 843.64 19.51 857 22 C858.47 22.26 859.94 22.52 861.41 22.77 C871.03 24.47 880.51 26.69 890 29 C890 29.66 890 30.32 890 31 C890.99 30.67 891.98 30.34 893 30 C895.41 30.78 895.41 30.78 898.06 31.94 C901.42 33.5 901.42 33.5 905 34 C905 34.66 905 35.32 905 36 C906.58 36.19 906.58 36.19 908.19 36.38 C911.46 36.91 914.01 37.64 917 39 C917 39.66 917 40.32 917 41 C918.09 41.1 919.19 41.21 920.31 41.31 C924.24 42.05 924.46 42.35 927 45 C928.81 46.05 928.81 46.05 930.8 46.9 C931.53 47.24 932.26 47.57 933.01 47.91 C933.77 48.25 934.53 48.59 935.31 48.94 C948.59 54.88 948.59 54.88 952 60 C954.55 61.2 954.55 61.2 957 62 C957 62.99 957 63.98 957 65 C957.54 65.27 958.07 65.54 958.62 65.81 C959.41 66.2 960.19 66.6 961 67 C961.94 67.42 962.87 67.85 963.84 68.29 C967.13 70.07 969.3 71.94 971.93 74.6 C972.8 75.48 973.68 76.36 974.59 77.28 C975.49 78.2 976.39 79.11 977.31 80.06 C978.23 80.99 979.15 81.91 980.1 82.86 C986.85 89.69 986.85 89.69 989 94 C989.66 94 990.32 94 991 94 C990.49 98.07 988.55 99.6 985.5 102.19 C981.08 106 977.01 110 973.01 114.25 C970.86 116.12 969.68 116.34 967 117 C965.19 118.67 965.19 118.67 963.56 120.75 C960.84 124 958.04 127.04 955 130 C954.28 130.76 953.56 131.53 952.81 132.31 C951 134 951 134 949 134 C948.77 134.59 948.53 135.18 948.29 135.79 C946.69 138.54 944.97 139.64 942.31 141.38 C937.91 144.33 933.95 147.48 930 151 C929.34 150.67 928.68 150.34 928 150 C928.33 150.99 928.66 151.98 929 153 C925.25 156 925.25 156 923 156 C922.88 156.87 922.88 156.87 922.75 157.75 C921.76 160.71 920.46 162.1 918 164 C914.17 164 911.73 161.47 909 159 C907.18 156.93 905.4 154.84 903.65 152.71 C902.01 150.75 902.01 150.75 899 150 C898.71 149.36 898.42 148.72 898.12 148.06 C897.16 145.77 897.16 145.77 894.62 145.06 C891.32 143.72 890.19 141.75 888 139 C886.11 138.32 886.11 138.32 884 138 C880.36 136.37 877.74 134.86 875 132 C868.76 127.89 863.07 126.6 855.74 125.66 C852.72 124.93 852.1 124.13 850 122 C847.6 121.5 847.6 121.5 845 121.44 C841.31 121.26 840.19 121.13 837 119 C834.86 118.7 834.86 118.7 832.48 118.74 C831.57 118.73 830.66 118.73 829.72 118.72 C828.74 118.73 827.76 118.73 826.75 118.73 C825.74 118.73 824.73 118.73 823.69 118.73 C821.56 118.73 819.42 118.73 817.29 118.74 C814.01 118.75 810.74 118.74 807.47 118.73 C805.4 118.73 803.32 118.73 801.25 118.73 C800.27 118.73 799.29 118.73 798.28 118.72 C797.37 118.73 796.45 118.73 795.52 118.74 C794.71 118.74 793.91 118.74 793.09 118.75 C790.7 118.88 790.7 118.88 788 121 C785.33 121.31 785.33 121.31 782.25 121.44 C777.14 121.77 773.52 122.64 769 125 C769 125.33 769 125.66 769 126 C767.92 125.88 767.92 125.88 766.81 125.75 C763.16 126.07 761.79 127.71 759 130 C757.68 130 756.36 130 755 130 C753.31 131.64 751.65 133.31 750 135 C748.3 136 746.6 136.99 744.86 137.93 C737.44 142.19 731.48 148.21 725.5 154.25 C724.68 155.06 723.86 155.88 723.01 156.72 C721.84 157.89 721.84 157.89 720.66 159.08 C719.95 159.78 719.25 160.49 718.53 161.22 C716.78 162.86 716.78 162.86 717 165 C715.51 165.99 715.51 165.99 714 167 C713.21 168.95 713.21 168.95 712.81 171.12 C712.54 172.4 712.28 173.68 712 175 C711.34 175 710.68 175 710 175 C709.71 176.07 709.42 177.14 709.12 178.25 C707.87 182.45 706.42 185.37 704 189 C703.44 191.01 703.44 191.01 703.06 193.19 C702.14 197.69 700.69 201.73 699 206 C697.66 210.03 698.03 213.68 698.16 217.89 C698 221 698 221 697.01 223.79 C695.65 228.1 695.71 232.07 695.75 236.56 C695.74 237.4 695.73 238.24 695.73 239.1 C695.74 243.64 696.23 246.79 698 251 C698.2 254.55 698.2 254.55 698.12 258.31 C698.11 259.57 698.09 260.82 698.07 262.11 C698.05 263.07 698.02 264.02 698 265 C698.66 264.01 699.32 263.02 700 262 C700.05 262.92 700.1 263.83 700.15 264.77 C700.22 265.96 700.3 267.15 700.38 268.38 C700.44 269.56 700.51 270.74 700.59 271.96 C700.7 275.11 700.7 275.11 703 277 C703.5 278.66 703.99 280.32 704.43 281.99 C705.04 284.15 705.81 286.22 706.62 288.31 C708 292 708 292 708 294 C708.99 294.33 709.98 294.66 711 295 C711.34 296.33 711.68 297.66 712 299 C719.57 311.33 730.61 327 744 333 C744 333.66 744 334.32 744 335 C745.65 335.33 747.3 335.66 749 336 C749 336.66 749 337.32 749 338 C749.89 338.29 750.77 338.58 751.69 338.88 C759.82 341.64 759.82 341.64 761 344 C762.32 344 763.64 344 765 344 C765 344.66 765 345.32 765 346 C765.8 346.12 766.61 346.25 767.44 346.38 C770.18 346.86 772.9 347.37 775.62 347.94 C776.36 348.09 777.09 348.24 777.85 348.4 C780 349 780 349 781.84 350 C791.98 354.71 806.01 353.19 817 353.19 C817.68 353.19 818.37 353.19 819.07 353.19 C825.99 353.88 825.99 353.88 832 352 C833.58 351.84 835.16 351.72 836.75 351.62 C846.22 350.83 855.12 348.65 863.84 344.91 C866 344 866 344 869.44 342.94 C872.16 341.94 873.22 341.25 875 339 C875.43 336.89 875.43 336.89 875.34 334.53 C875.34 333.15 875.34 333.15 875.34 331.75 C875.32 330.75 875.31 329.75 875.29 328.72 C875.29 327.66 875.28 326.6 875.28 325.51 C875.27 323.22 875.25 320.92 875.23 318.62 C875.19 314.98 875.17 311.35 875.15 307.71 C875.11 298.69 875.04 289.66 874.97 280.63 C874.91 273 874.86 265.38 874.83 257.75 C874.81 254.17 874.78 250.58 874.74 247 C874.73 244.8 874.72 242.61 874.71 240.41 C874.69 239.41 874.68 238.41 874.66 237.38 C874.66 236 874.66 236 874.66 234.6 C874.65 233.8 874.65 233.01 874.64 232.19 C875.11 229.36 875.98 228.02 878 226 C879.96 225.5 879.96 225.5 882.22 225.51 C883.08 225.5 883.94 225.49 884.82 225.48 C885.76 225.49 886.7 225.5 887.67 225.51 C888.66 225.51 889.66 225.51 890.68 225.5 C893.96 225.5 897.25 225.52 900.54 225.54 C902.81 225.54 905.09 225.54 907.37 225.54 C912.14 225.54 916.92 225.56 921.7 225.59 C927.83 225.62 933.96 225.63 940.09 225.63 C944.8 225.63 949.5 225.64 954.2 225.65 C956.47 225.66 958.73 225.66 960.99 225.67 C964.15 225.67 967.3 225.69 970.46 225.71 C971.4 225.71 972.34 225.71 973.31 225.71 C974.17 225.72 975.02 225.72 975.91 225.73 C977.03 225.74 977.03 225.74 978.17 225.74 C980 226 980 226 982 228 C982.25 230.92 982.25 230.92 982.26 234.75 C982.26 235.45 982.27 236.15 982.27 236.88 C982.28 239.24 982.28 241.6 982.27 243.97 C982.28 245.66 982.28 247.35 982.29 249.04 C982.3 253.64 982.3 258.24 982.3 262.84 C982.3 266.67 982.31 270.51 982.31 274.34 C982.32 283.38 982.32 292.43 982.32 301.47 C982.31 310.81 982.32 320.15 982.34 329.49 C982.36 337.5 982.37 345.52 982.36 353.53 C982.36 358.31 982.36 363.1 982.38 367.89 C982.39 372.39 982.39 376.89 982.38 381.4 C982.37 383.05 982.38 384.71 982.38 386.36 C982.39 388.62 982.39 390.87 982.37 393.12 C982.37 395.02 982.37 395.02 982.37 396.95 C982 400 982 400 980.7 401.87 C979 403 979 403 975.44 403.94 C971.94 404.58 971.94 404.58 971 406.88 C970.67 407.58 970.34 408.28 970 409 C965.83 411.92 962.1 414 957 414 C956.67 414.66 956.34 415.32 956 416 C954.67 416.67 953.33 417.33 952 418 C951.67 418.66 951.34 419.32 951 420 C949.29 421.04 949.29 421.04 947.19 422.06 C946.5 422.4 945.81 422.75 945.11 423.1 C943 424 943 424 940.8 424.5 C940.21 424.66 939.61 424.83 939 425 C938.67 425.66 938.34 426.32 938 427 C935.67 427.35 933.34 427.68 931 428 C929.66 428.65 928.32 429.32 927 430 C924.69 430.79 922.36 431.5 920.02 432.22 C917.82 432.91 917.82 432.91 916 435 C913.34 435.57 910.71 435.74 908 436 C908 436.66 908 437.32 908 438 C904.37 438.33 900.74 438.66 897 439 C897 439.66 897 440.32 897 441 C894.69 441 892.38 441 890 441 C890 441.66 890 442.32 890 443 C886.04 443.33 882.08 443.66 878 444 C878 444.66 878 445.32 878 446 C877.06 445.97 877.06 445.97 876.1 445.93 C875.28 445.91 874.47 445.89 873.62 445.88 C872.41 445.84 872.41 445.84 871.16 445.8 C868.79 445.79 868.79 445.79 867 448 C861.99 449.41 856.71 449.36 851.53 449.61 C847.97 449.48 847.97 449.48 845 451 C843.67 451.14 842.34 451.23 841 451.28 C840.2 451.32 839.39 451.36 838.56 451.39 C836 451.5 836 451.5 833.44 451.61 C832.63 451.64 831.83 451.68 831 451.72 C830.26 451.75 829.51 451.78 828.75 451.81 C826.97 451.82 826.97 451.82 826 453 C814 454.89 801.01 454.7 789 453 C788.67 452.67 788.34 452.34 788 452 C786.46 451.9 784.91 451.87 783.36 451.86 C782.35 451.86 781.35 451.85 780.31 451.84 C779.19 451.84 778.06 451.84 776.91 451.84 C775.14 451.83 775.14 451.83 773.33 451.83 C770.04 451.81 766.74 451.81 763.45 451.8 C759.91 451.79 756.36 451.78 752.81 451.76 C746.67 451.74 740.52 451.72 734.37 451.71 C725.48 451.69 716.6 451.66 707.71 451.63 C693.29 451.58 678.87 451.54 664.45 451.5 C650.44 451.46 636.43 451.42 622.42 451.37 C621.56 451.37 620.69 451.37 619.8 451.36 C615.47 451.35 611.15 451.34 606.82 451.32 C570.88 451.21 534.94 451.1 499 451 C499 450.34 499 449.68 499 449 C491.56 448.95 484.12 448.91 476.69 448.89 C474.16 448.88 471.63 448.87 469.1 448.85 C465.46 448.82 461.82 448.81 458.18 448.8 C457.05 448.79 455.92 448.78 454.76 448.77 C449.45 448.77 444.95 448.82 440 451 C440 450.34 440 449.68 440 449 C435.9 449.23 435.9 449.23 432.77 451.5 C430.02 453.83 426.89 453.53 423.44 453.62 C418.57 453.63 418.57 453.63 414 455 C402.54 456.56 390.82 456.16 379.28 456.18 C377.11 456.18 374.94 456.19 372.76 456.2 C365.67 456.22 358.58 456.23 351.49 456.24 C349.05 456.24 346.6 456.25 344.15 456.25 C332.67 456.27 321.19 456.28 309.71 456.29 C296.46 456.3 283.22 456.33 269.97 456.37 C259.71 456.4 249.46 456.41 239.21 456.42 C233.09 456.42 226.97 456.43 220.85 456.45 C215.1 456.48 209.36 456.48 203.62 456.47 C201.51 456.47 199.39 456.48 197.28 456.49 C194.41 456.51 191.54 456.5 188.66 456.49 C187.4 456.5 187.4 456.5 186.11 456.52 C180.54 456.46 180.54 456.46 177.98 454.3 C176.83 451.59 176.63 449.67 176.65 446.72 C176.64 445.66 176.64 444.59 176.64 443.49 C176.66 441.74 176.66 441.74 176.68 439.95 C176.68 438.72 176.68 437.49 176.68 436.22 C176.68 433.54 176.69 430.86 176.71 428.18 C176.74 423.94 176.75 419.71 176.76 415.47 C176.78 408.77 176.81 402.07 176.84 395.37 C176.9 383.38 176.94 371.38 176.97 359.38 C176.98 355.17 177 350.96 177.03 346.75 C177.04 343.52 177.05 340.28 177.07 337.05 C177.07 335.88 177.08 334.72 177.09 333.51 C177.09 332.44 177.1 331.38 177.1 330.28 C177.1 329.35 177.11 328.42 177.11 327.46 C177.07 324.71 177.07 324.71 176 321 C127.49 321.5 127.49 321.5 78 322 C77.33 318.65 76.87 316.2 76.85 312.91 C76.84 312.13 76.83 311.35 76.82 310.55 C76.82 309.71 76.81 308.87 76.81 308 C76.8 306.66 76.8 306.66 76.79 305.29 C76.77 303.35 76.75 301.4 76.74 299.46 C76.72 296.4 76.69 293.33 76.66 290.26 C76.59 282.65 76.53 275.04 76.47 267.42 C76.42 260.98 76.37 254.54 76.31 248.1 C76.28 245.07 76.26 242.04 76.24 239.01 C76.22 237.17 76.21 235.32 76.19 233.48 C76.19 232.63 76.18 231.78 76.18 230.91 C76.5 227.15 76.5 227.15 75 224 C72.06 223.89 69.14 223.84 66.2 223.83 C65.27 223.82 64.35 223.81 63.4 223.81 C61.39 223.79 59.37 223.78 57.36 223.77 C54.18 223.75 51 223.73 47.82 223.71 C38.78 223.63 29.73 223.57 20.68 223.52 C15.16 223.49 9.63 223.45 4.11 223.4 C2 223.39 -0.11 223.37 -2.23 223.37 C-5.17 223.35 -8.12 223.33 -11.07 223.3 C-11.95 223.3 -12.83 223.3 -13.73 223.3 C-19.77 223.23 -19.77 223.23 -22 221 C-22.91 218.24 -23.12 215.73 -23.12 212.84 C-23.12 212.01 -23.12 211.19 -23.12 210.35 C-23.12 209.45 -23.12 208.56 -23.11 207.64 C-23.11 206.69 -23.11 205.75 -23.11 204.77 C-23.11 201.65 -23.11 198.52 -23.1 195.39 C-23.1 193.22 -23.09 191.05 -23.09 188.88 C-23.09 183.18 -23.08 177.47 -23.07 171.76 C-23.06 165.93 -23.05 160.11 -23.05 154.29 C-23.04 142.86 -23.02 131.43 -23 120 C-19.55 118.28 -15.57 118.87 -11.78 118.89 C-10.34 118.89 -10.34 118.89 -8.88 118.89 C-5.71 118.89 -2.54 118.89 0.63 118.9 C2.83 118.9 5.02 118.91 7.22 118.91 C13 118.91 18.78 118.92 24.57 118.93 C30.46 118.94 36.36 118.95 42.26 118.95 C53.84 118.96 65.42 118.98 77 119 C76.91 113.91 76.8 108.82 76.68 103.73 C76.64 102 76.61 100.26 76.58 98.53 C76.53 96.04 76.47 93.56 76.41 91.07 C76.4 90.29 76.39 89.52 76.38 88.72 C76.41 84.39 76.41 84.39 74 81 C73.34 81.99 72.68 82.98 72 84 C71.34 84 70.68 84 70 84 C70 84.66 70 85.32 70 86 C68.68 86.33 67.36 86.66 66 87 C65.67 89.97 65.34 92.94 65 96 C62.95 96.46 60.9 96.91 58.85 97.37 C56.79 97.83 56.79 97.83 56 100 C55.34 100 54.68 100 54 100 C53.73 100.64 53.46 101.28 53.19 101.94 C52 104 52 104 49 105 C49 105.66 49 106.32 49 107 C47.35 107 45.7 107 44 107 C43.03 103.97 42.75 101.97 44 99 C45.3 97.96 46.64 96.96 48 96 C48.54 95.28 49.07 94.56 49.62 93.81 C50.08 93.21 50.53 92.62 51 92 C51.66 92 52.32 92 53 92 C51.13 88.37 51.13 88.37 48 86 C48 85.01 48 84.02 48 83 C31.5 83.33 15 83.66 -2 84 C-2.66 85.32 -3.32 86.64 -4 88 C-4.66 88 -5.32 88 -6 88 C-5.23 91.49 -5.23 91.49 -4 95 C-2.52 95.5 -2.52 95.5 -1 96 C-1 96.66 -1 97.32 -1 98 C-0.36 98.29 0.28 98.58 0.94 98.88 C3 100 3 100 4 102 C1.69 102.99 -0.62 103.98 -3 105 C-4.5 103.62 -4.5 103.62 -6 102 C-6 101.34 -6 100.68 -6 100 C-7.48 99.5 -7.48 99.5 -9 99 C-10.48 98.5 -10.48 98.5 -12 98 C-12.95 97.86 -13.9 97.71 -14.88 97.56 C-19.14 95.43 -19.82 92.72 -21.7 88.48 C-23.01 85.99 -24.1 84.75 -26.31 83.06 C-27.2 82.38 -28.09 81.7 -29 81 C-29 80.01 -29 79.02 -29 78 C-29.66 78 -30.32 78 -31 78 C-31 77.01 -31 76.02 -31 75 C-31.66 74.67 -32.32 74.34 -33 74 C-29.75 73.25 -29.75 73.25 -26 73 C-23.94 74.62 -23.94 74.62 -22 77 C-18.49 80.71 -18.49 80.71 -13.81 82 C-11.73 80.85 -10.5 79.86 -9 78 C-8.55 75.62 -8.55 75.62 -8.63 72.92 C-8.62 71.88 -8.62 70.85 -8.61 69.78 C-8.62 68.67 -8.63 67.55 -8.64 66.4 C-8.64 65.26 -8.64 64.11 -8.64 62.93 C-8.64 60.51 -8.65 58.09 -8.66 55.67 C-8.69 51.95 -8.68 48.23 -8.68 44.51 C-8.68 42.16 -8.69 39.81 -8.7 37.46 C-8.7 36.35 -8.7 35.23 -8.7 34.08 C-8.71 32.53 -8.71 32.53 -8.73 30.95 C-8.73 29.59 -8.73 29.59 -8.74 28.19 C-8.8 25.79 -8.8 25.79 -11 24 C-13.69 23.73 -16.29 23.91 -19 24 C-19.15 25.42 -19.15 25.42 -19.31 26.88 C-20 30 -20 30 -23 32 C-24.99 32.7 -26.99 33.37 -29 34 C-29.66 32.68 -30.32 31.36 -31 30 C-27.38 24.25 -27.38 24.25 -24 22 C-22.87 19.98 -22.87 19.98 -22 18 C-21.67 17.67 -21.34 17.34 -21 17 C-20.86 16.2 -20.71 15.39 -20.56 14.56 C-20 12 -20 12 -18 10 C-16.89 9.88 -15.77 9.75 -14.62 9.62 C-10.46 8.91 -9.72 8.07 -7 5 C-5.02 3.64 -3.02 2.3 -1 1 C-0.67 0.67 -0.34 0.34 0 0 Z M-9 7 C-8 9 -8 9 -8 9 Z M65 15 C66 19 66 19 66 19 Z M-22 24 C-21 28 -21 28 -21 28 Z M549 54 C549 54.33 549 54.66 549 55 C588.6 55 628.2 55 669 55 C669 54.67 669 54.34 669 54 C629.4 54 589.8 54 549 54 Z M524 55 C524 55.99 524 56.98 524 58 C527.43 61.33 527.43 61.33 532 62 C532.33 62.99 532.66 63.98 533 65 C534.99 65.7 536.99 66.37 539 67 C539.33 67.66 539.66 68.32 540 69 C541.33 70.76 541.33 70.76 543 72.56 C543.8 73.49 543.8 73.49 544.62 74.44 C551.51 78.96 561.65 76.85 569.48 76.28 C571.56 76.13 573.64 75.99 575.72 75.85 C583.45 75.34 583.45 75.34 591.16 74.46 C597.88 73.65 604.65 73.6 611.42 73.39 C612.5 73.36 613.59 73.32 614.71 73.28 C615.71 73.25 616.7 73.22 617.72 73.19 C619.97 73.25 619.97 73.25 621 72 C623.37 71.77 625.72 71.6 628.1 71.46 C628.81 71.42 629.52 71.38 630.25 71.33 C632.52 71.2 634.79 71.07 637.06 70.94 C638.6 70.85 640.14 70.75 641.67 70.66 C645.45 70.44 649.22 70.22 653 70 C653 69.34 653 68.68 653 68 C653.99 68 654.98 68 656 68 C656.33 67.34 656.66 66.68 657 66 C658.66 64.99 660.33 63.99 662 63 C662.87 62.3 663.73 61.6 664.62 60.88 C667 59 667 59 670 58 C670 57.34 670 56.68 670 56 C651.11 55.87 632.22 55.74 613.33 55.61 C604.57 55.55 595.8 55.49 587.03 55.43 C579.39 55.37 571.74 55.32 564.1 55.27 C560.06 55.24 556.01 55.21 551.96 55.19 C548.15 55.16 544.35 55.13 540.54 55.11 C539.14 55.1 537.74 55.09 536.34 55.08 C534.43 55.06 532.53 55.05 530.63 55.04 C529.56 55.03 528.49 55.02 527.39 55.02 C525.69 55 525.69 55 524 55 Z M77 67 C78 69 78 69 78 69 Z M575 101 C575.95 104.82 576.69 106.05 579 109 C579.7 110.32 580.37 111.65 581 113 C581.66 113 582.32 113 583 113 C583.21 113.85 583.41 114.69 583.62 115.56 C585.39 119.98 586.88 123.39 591 126 C595.86 127.05 600.15 127.15 605 126 C607.66 123.68 608.74 121.24 610 118 C610.66 117.01 611.32 116.02 612 115 C612 114.01 612 113.02 612 112 C612.66 112 613.32 112 614 112 C615.4 110.32 615.4 110.32 616.69 108.19 C617.15 107.48 617.6 106.77 618.07 106.04 C619.34 103.87 619.34 103.87 618 101 C603.81 101 589.62 101 575 101 Z M46 104 C47 106 47 106 47 106 Z M313 104 C310.8 107.3 310.02 110.18 309 114 C308.67 114.99 308.34 115.98 308 117 C307.93 120.23 308 123.45 308.06 126.68 C307.91 134.89 307.91 134.89 305.48 137.86 C303.25 141.09 303.47 144.46 303.38 148.25 C303.31 149.86 303.24 151.47 303.17 153.08 C303.11 154.72 303.06 156.36 303 158 C302.89 161 302.77 164 302.62 167 C302.58 168.3 302.53 169.6 302.48 170.94 C302.24 172.45 302.24 172.45 302 174 C301.01 174.66 300.02 175.32 299 176 C298.58 178.08 298.58 178.08 298.71 180.46 C298.72 181.35 298.73 182.23 298.74 183.14 C298.76 184.06 298.79 184.99 298.81 185.94 C298.83 186.86 298.84 187.78 298.85 188.72 C298.88 190.43 298.91 192.15 298.95 193.86 C299.04 197.58 298.77 201.12 298.28 204.82 C298.1 206.24 297.93 207.66 297.78 209.09 C297.45 212.15 297.03 214.91 296 217.82 C294.93 221.22 294.63 224.2 294.44 227.75 C294.1 233.8 294.1 233.8 293 236 C292.73 238.33 292.55 240.66 292.38 243 C292.25 243.66 292.13 244.32 292 245 C290 246 290 246 287 246 C286.76 245.39 286.53 244.79 286.29 244.16 C284.69 241.48 283.21 240.76 280.44 239.38 C276.1 237.19 276.1 237.19 275 235 C274.34 235 273.68 235 273 235 C272.63 234.07 272.63 234.07 272.25 233.12 C270.76 230.58 269.75 229.97 267 229 C265.68 229 264.36 229 263 229 C262.85 232.4 262.77 235.79 262.69 239.19 C262.65 240.15 262.6 241.11 262.56 242.1 C262.42 248.02 262.42 248.02 265.36 253.04 C266.23 253.69 267.1 254.33 268 255 C268.85 255.72 269.69 256.44 270.56 257.19 C272.86 259.01 272.86 259.01 275.12 260.06 C277 261 277 261 278.44 262.5 C280 264.2 280 264.2 282.62 265 C283.41 265.33 284.19 265.66 285 266 C285.33 266.99 285.66 267.98 286 269 C287.32 269.7 288.65 270.37 290 271 C290.47 271.5 290.95 271.99 291.44 272.5 C293.42 274.4 295.44 275.1 298 276 C298 276.66 298 277.32 298 278 C299.05 278.34 299.05 278.34 300.12 278.69 C303.62 280.28 306.08 282.51 309 285 C311.36 286.52 313.61 287.83 316.19 288.94 C318 290 318 290 318.94 292.06 C319.29 292.7 319.64 293.34 320 294 C320.82 294.16 321.65 294.33 322.5 294.5 C323.32 294.66 324.15 294.83 325 295 C325.67 296.33 326.33 297.67 327 299 C329.56 299.81 329.56 299.81 332 300 C332 300.66 332 301.32 332 302 C333.46 303.63 333.46 303.63 335 305 C331.08 309.54 325.61 310.46 320 312 C320 312.66 320 313.32 320 314 C319.01 313.67 318.02 313.34 317 313 C315.3 313.94 313.63 314.95 312 316 C310.22 316.78 308.43 317.53 306.62 318.25 C301.01 320.53 295.54 323.05 290.08 325.68 C287.07 327.11 284.24 328.26 281 329 C280.97 331.96 280.95 334.92 280.94 337.88 C280.93 338.72 280.92 339.56 280.91 340.43 C280.91 341.23 280.91 342.04 280.9 342.87 C280.9 343.61 280.89 344.35 280.89 345.12 C280.88 347.09 280.88 347.09 282 349 C282.66 349 283.32 349 284 349 C284 348.34 284 347.68 284 347 C285.65 347 287.3 347 289 347 C289 346.34 289 345.68 289 345 C296.43 342.86 296.43 342.86 300 342 C300 341.34 300 340.68 300 340 C302.64 339.67 305.28 339.34 308 339 C308 338.34 308 337.68 308 337 C309.05 336.88 310.1 336.75 311.19 336.62 C314.46 336.09 317.01 335.36 320 334 C320 333.34 320 332.68 320 332 C320.82 331.92 321.65 331.84 322.5 331.75 C326.17 330.96 328.83 329.65 332.11 327.91 C334.37 326.82 336.54 326.41 339 326 C340.35 325.36 341.68 324.69 343 324 C344.64 323.14 346.29 322.29 347.94 321.44 C348.77 321 349.61 320.57 350.46 320.12 C352.99 319 355.28 318.43 358 318 C358 317.34 358 316.68 358 316 C358.54 315.87 359.09 315.74 359.65 315.61 C367.52 313.57 374.88 310.8 382.04 306.95 C384 306 384 306 386 306 C386 305.34 386 304.68 386 304 C386.95 303.94 387.9 303.88 388.88 303.81 C393.34 303.21 396.94 301.18 400.86 299.06 C403 298 403 298 405 298 C405 297.34 405 296.68 405 296 C405.99 296.33 406.98 296.66 408 297 C408.62 298.73 408.62 298.73 409 301 C409.18 301.85 409.35 302.7 409.54 303.58 C409.71 304.46 409.88 305.34 410.06 306.25 C410.33 307.59 410.33 307.59 410.6 308.95 C410.73 309.63 410.86 310.3 411 311 C410.34 311 409.68 311 409 311 C408.64 312.29 408.29 313.58 407.94 314.88 C407.74 315.59 407.54 316.31 407.34 317.05 C406.79 319.07 406.79 319.07 408 321 C408.07 323.37 408.08 325.75 408.06 328.12 C408.05 329.41 408.04 330.69 408.04 332.01 C408.02 333.49 408.02 333.49 408 335 C407.01 335.33 406.02 335.66 405 336 C405 339.63 405 343.26 405 347 C404.67 347 404.34 347 404 347 C404.01 347.71 404.02 348.43 404.04 349.16 C404.12 357.94 404.12 357.94 403.44 362 C402.76 365.04 402.76 365.04 404 368 C408.29 367.67 412.58 367.34 417 367 C417 366.34 417 365.68 417 365 C418.65 365 420.3 365 422 365 C423.8 359.84 424.16 355.5 423.97 350.04 C424 348 424 348 425 347 C425.21 345 425.37 343 425.5 341 C425.89 335.11 425.89 335.11 427 334 C427.07 331.3 427.09 328.63 427.06 325.94 C427.06 324.8 427.06 324.8 427.05 323.64 C427.04 321.76 427.02 319.88 427 318 C427.66 317.67 428.32 317.34 429 317 C428.34 317 427.68 317 427 317 C427.66 316.34 428.32 315.68 429 315 C429.2 313.05 429.2 313.05 429.06 310.94 C429.03 308.99 429.03 308.99 429 307 C429.33 306.67 429.66 306.34 430 306 C430.39 303.48 430.72 300.97 431 298.44 C431.09 297.68 431.18 296.92 431.27 296.14 C432 289.6 432.39 283.07 432.66 276.49 C433 273 433 273 433.99 270.04 C435.2 266.4 435.45 262.91 435.62 259.12 C435.68 258.09 435.68 258.09 435.74 257.04 C435.84 255.36 435.92 253.68 436 252 C436.33 252 436.66 252 437 252 C436.99 251.41 436.98 250.82 436.96 250.21 C436.92 245.95 437.14 242.17 438 238 C438.09 235.33 438.05 232.68 438 230 C438.66 229.67 439.32 229.34 440 229 C440.66 229.33 441.32 229.66 442 230 C442.97 230.45 443.94 230.91 444.94 231.38 C447.6 232.79 448.98 233.88 451 236 C451.68 236.33 452.36 236.66 453.06 237 C455 238 455 238 457 241 C457.99 241 458.98 241 460 241 C460 241.66 460 242.32 460 243 C461.88 244.49 461.88 244.49 464.25 245.94 C466.63 247.46 468.94 248.95 471.17 250.69 C472.9 252.19 472.9 252.19 475 252 C475.33 252.99 475.66 253.98 476 255 C477.98 256.36 479.98 257.7 482 259 C482.33 259.66 482.66 260.32 483 261 C483.99 261.5 484.98 261.99 486 262.5 C489 264 489 264 490 266 C491.21 266.19 491.21 266.19 492.44 266.38 C493.28 266.58 494.13 266.79 495 267 C495.68 268.32 496.35 269.66 497 271 C499.98 273.22 502.47 274.82 506 276 C508.68 275.49 508.68 275.49 511 274 C512.06 270.32 512.19 266.69 512.25 262.88 C512.28 261.84 512.3 260.81 512.33 259.74 C512.24 257 512.24 257 510.66 255.25 C509.2 254.15 507.67 253.16 506.12 252.19 C503.53 250.37 502.32 249.29 500.5 246.88 C497.69 243.64 496.01 243.19 492 242 C490.65 240.69 489.31 239.36 488 238 C487.01 238 486.02 238 485 238 C484.96 237.38 484.92 236.76 484.88 236.12 C484.44 235.07 484.44 235.07 484 234 C481 232.7 481 232.7 478 232 C478.33 231.34 478.66 230.68 479 230 C477.02 229.01 475.04 228.02 473 227 C473 226.34 473 225.68 473 225 C471.68 225 470.36 225 469 225 C469 224.34 469 223.68 469 223 C468.2 222.73 467.39 222.46 466.56 222.19 C465.72 221.8 464.87 221.4 464 221 C463.67 220.01 463.34 219.02 463 218 C461.68 218 460.36 218 459 218 C458.79 217.4 458.59 216.8 458.38 216.19 C457.1 213.74 457.1 213.74 454.12 212.56 C451 211 451 211 449.06 208.56 C446.89 205.86 444.77 204.63 441.73 203.04 C439.09 201.46 437.17 199.17 435 197 C434.18 196.67 433.35 196.34 432.5 196 C429.22 194.69 427.44 192.5 425 190 C424.34 190 423.68 190 423 190 C422.34 188.68 421.68 187.36 421 186 C420.01 186.33 419.02 186.66 418 187 C418 186.34 418 185.68 418 185 C414.25 181.59 414.25 181.59 409.94 179 C406.45 177.2 404.02 174.1 401.38 171.25 C399.9 169.74 399.9 169.74 397 169 C399.14 165.8 400.2 165.14 403.56 163.5 C404.37 163.1 405.17 162.7 406 162.28 C408.42 161.25 410.77 160.39 413.26 159.59 C418.06 158.02 422.67 156.12 427.31 154.12 C428.99 153.41 430.66 152.7 432.33 151.99 C433.13 151.65 433.93 151.3 434.76 150.95 C437.66 149.72 440.58 148.51 443.5 147.31 C448.27 145.34 452.95 143.21 457.62 141.02 C459.75 140.11 461.74 139.48 464 139 C464 138.34 464 137.68 464 137 C465.32 137 466.64 137 468 137 C467.71 133.57 467.29 132.28 464.75 129.88 C462.03 127.97 462.03 127.97 459.19 126.38 C458.47 125.92 457.74 125.47 457 125 C457 124.34 457 123.68 457 123 C450.71 123.26 445.71 124.24 440.05 127.02 C438 128 438 128 434.5 129.12 C431.85 129.73 431.85 129.73 431 132 C429.07 132.6 429.07 132.6 426.69 133.06 C425.91 133.22 425.13 133.37 424.32 133.54 C422.81 133.84 421.29 134.14 419.77 134.43 C419.19 134.62 418.6 134.81 418 135 C417.67 135.66 417.34 136.32 417 137 C415.15 137.63 415.15 137.63 412.94 138.12 C412.2 138.29 411.47 138.46 410.71 138.63 C410.15 138.75 409.58 138.88 409 139 C409 139.66 409 140.32 409 141 C408.01 140.67 407.02 140.34 406 140 C405.65 140.45 405.3 140.91 404.94 141.38 C402.2 143.67 399.45 144.14 396 145 C390.74 146.4 390.74 146.4 386 149 C386 149.66 386 150.32 386 151 C385.01 151.15 385.01 151.15 384 151.31 C378.93 152.47 374.33 154.11 370 157 C368.34 157.35 366.67 157.68 365 158 C361.96 159.09 359.71 160.19 357 162 C356.34 162 355.68 162 355 162 C355 162.66 355 163.32 355 164 C353.51 163.5 353.51 163.5 352 163 C352 163.66 352 164.32 352 165 C351.31 165.19 350.63 165.39 349.92 165.59 C349.02 165.85 348.12 166.11 347.19 166.38 C346.29 166.63 345.4 166.89 344.48 167.15 C341.8 167.95 341.8 167.95 339 170 C337.34 170.36 335.67 170.7 334 171 C333.01 171.5 333.01 171.5 332 172 C332 172.66 332 173.32 332 174 C330.51 173.5 330.51 173.5 329 173 C325.85 173.88 325.85 173.88 323 175 C323.33 174.34 323.66 173.68 324 173 C323.01 172.01 323.01 172.01 322 171 C321.67 165.67 321.67 165.67 323 163 C323.2 161.34 323.36 159.67 323.5 158 C323.89 153.22 323.89 153.22 325 151 C325.21 148.88 325.37 146.75 325.5 144.62 C325.73 140.93 326.08 137.57 327 134 C327.38 131.35 327.74 128.71 328.06 126.06 C328.15 125.36 328.24 124.66 328.34 123.93 C328.71 120.96 329 118.06 329 115.06 C329 113 329 113 330 112 C330.17 108.5 330.17 108.5 330 105 C327.95 102.95 323.87 103.77 321.06 103.75 C319.95 103.72 319.95 103.72 318.81 103.69 C316.41 103.64 316.41 103.64 313 104 Z M506 276 C507.49 276.99 507.49 276.99 509 278 C509 277.34 509 276.68 509 276 C508.01 276 507.02 276 506 276 Z M711 300 C712 302 712 302 712 302 Z M79 319 C80 321 80 321 80 321 Z M597 337 C597 337.66 597 338.32 597 339 C595.68 339.33 594.36 339.66 593 340 C593 341.98 593 343.96 593 346 C596.3 346 599.6 346 603 346 C602.57 341.77 602.57 341.77 600.56 338.12 C599.05 336.81 599.05 336.81 597 337 Z M580 362 C579.67 362.99 579.34 363.98 579 365 C578.01 365 577.02 365 576 365 C573.92 367.77 572.8 370.56 571.75 373.81 C570.21 378.19 567.58 381.1 564.43 384.43 C562.89 385.77 562.89 385.77 563 387 C586.43 387 609.86 387 634 387 C632.05 382.08 632.05 382.08 628.69 378.69 C625 375.17 622.54 371.38 620 367 C619.34 366.01 618.68 365.02 618 364 C617.34 364 616.68 364 616 364 C616 363.34 616 362.68 616 362 C604.12 362 592.24 362 580 362 Z M534 410 C533.67 410.66 533.34 411.32 533 412 C532.34 412 531.68 412 531 412 C531 412.66 531 413.32 531 414 C529.35 414.33 527.7 414.66 526 415 C526 415.66 526 416.32 526 417 C523 417 523 417 521 416 C521 417.32 521 418.64 521 420 C518.69 420.33 516.38 420.66 514 421 C513.67 421.99 513.34 422.98 513 424 C511.19 424.88 511.19 424.88 509 425.56 C506.85 426.21 506.85 426.21 505 427 C504.67 427.66 504.34 428.32 504 429 C501.69 429.73 499.35 430.4 497 431 C497 431.66 497 432.32 497 433 C494.36 433.66 491.72 434.32 489 435 C489 435.33 489 435.66 489 436 C493.09 436.02 497.19 436.04 501.28 436.05 C502.67 436.06 504.07 436.07 505.46 436.08 C507.46 436.09 509.46 436.09 511.46 436.1 C512.67 436.1 513.87 436.11 515.11 436.11 C517.94 436.2 517.94 436.2 520 435 C521.96 434.85 523.92 434.75 525.88 434.68 C527.05 434.64 528.22 434.6 529.42 434.56 C531.25 434.5 531.25 434.5 533.12 434.44 C534.36 434.39 535.59 434.35 536.86 434.31 C539.9 434.2 542.95 434.1 546 434 C546 433.34 546 432.68 546 432 C546.93 432.01 547.85 432.02 548.8 432.04 C558.19 432.11 567.56 431.9 576.94 431.56 C578.09 431.52 579.25 431.48 580.44 431.44 C581.52 431.4 582.6 431.36 583.71 431.32 C585.17 431.26 585.17 431.26 586.66 431.21 C589.02 431.14 589.02 431.14 591 430 C593.96 429.81 596.91 429.67 599.88 429.56 C606.79 429.27 613.63 428.78 620.5 428 C630.25 426.91 640 426.59 649.8 426.34 C650.95 426.31 652.1 426.28 653.29 426.25 C654.83 426.21 654.83 426.21 656.41 426.17 C659.11 426.1 659.11 426.1 662 425 C665.4 424.81 668.79 424.66 672.2 424.57 C676.4 424.42 676.4 424.42 680 422.46 C680.33 421.98 680.66 421.5 681 421 C680.01 420.34 679.02 419.68 678 419 C677.38 418.34 676.76 417.68 676.12 417 C673.82 414.83 671.98 413.99 669 413 C668.01 412.67 667.02 412.34 666 412 C666 411.34 666 410.68 666 410 C661.89 407.26 658.87 406.88 654 406.86 C652.49 406.85 652.49 406.85 650.94 406.84 C649.84 406.84 648.74 406.84 647.61 406.84 C646.45 406.83 645.28 406.83 644.09 406.82 C640.24 406.81 636.39 406.8 632.54 406.8 C630.54 406.79 628.54 406.79 626.54 406.78 C620.98 406.77 615.42 406.76 609.85 406.76 C602.66 406.76 595.47 406.74 588.28 406.71 C582.72 406.69 577.15 406.68 571.59 406.68 C568.27 406.68 564.95 406.67 561.63 406.65 C557.93 406.64 554.22 406.64 550.52 406.64 C549.42 406.63 548.32 406.63 547.19 406.62 C540.07 406.56 540.07 406.56 534 410 Z M530 410 C531 412 531 412 531 412 Z M869 444 C869 444.33 869 444.66 869 445 C870.98 445 872.96 445 875 445 C875 444.67 875 444.34 875 444 C873.02 444 871.04 444 869 444 Z " fill="#262729" transform="translate(64,431)"/>
<path d="M0 0 C1.03 -0 2.05 -0 3.11 -0 C6.54 -0 9.98 0 13.41 0.01 C15.88 0.01 18.34 0.01 20.8 0.01 C26.1 0.01 31.41 0.01 36.71 0.01 C44.37 0.02 52.03 0.03 59.7 0.03 C72.14 0.03 84.57 0.04 97.01 0.04 C109.08 0.05 121.16 0.06 133.24 0.07 C133.99 0.07 134.73 0.07 135.5 0.07 C139.23 0.07 142.97 0.07 146.71 0.07 C177.7 0.08 208.68 0.1 239.67 0.12 C239.67 0.78 239.67 1.44 239.67 2.12 C240.54 2.08 241.41 2.04 242.31 2 C252.72 2.37 261.43 9.18 268.67 16.12 C271.67 19.69 271.67 19.69 271.67 22.12 C272.33 22.12 272.99 22.12 273.67 22.12 C285.89 43.82 285.89 43.82 289.12 49.82 C291.81 54.8 294.55 59.66 297.69 64.37 C298.67 66.12 298.67 66.12 299.12 68.22 C299.56 70.51 299.56 70.51 302.67 72.12 C304.05 75.04 304.97 77.97 305.67 81.12 C306 80.46 306.33 79.8 306.67 79.12 C306.67 79.78 306.67 80.44 306.67 81.12 C380.92 81.12 455.17 81.12 531.67 81.12 C531.34 82.44 531.01 83.76 530.67 85.12 C530.67 108.22 530.67 131.32 530.67 155.12 C261.39 155.12 -7.89 155.12 -285.33 155.12 C-285.66 131.03 -285.99 106.94 -286.33 82.12 C-283.16 80.53 -279.72 80.97 -276.23 80.96 C-275.39 80.96 -274.54 80.95 -273.67 80.95 C-270.81 80.93 -267.96 80.92 -265.1 80.91 C-263.06 80.91 -261.02 80.9 -258.98 80.88 C-253.43 80.86 -247.88 80.84 -242.33 80.82 C-236.53 80.8 -230.74 80.77 -224.94 80.74 C-213.96 80.69 -202.98 80.65 -191.99 80.6 C-179.49 80.55 -166.99 80.5 -154.49 80.44 C-128.77 80.33 -103.05 80.22 -77.33 80.12 C-77.66 79.13 -77.99 78.14 -78.33 77.12 C-78 76.13 -77.67 75.14 -77.33 74.12 C-76.67 74.12 -76.01 74.12 -75.33 74.12 C-75.66 73.13 -75.99 72.14 -76.33 71.12 C-75.34 70.79 -74.35 70.46 -73.33 70.12 C-73.33 69.13 -73.33 68.14 -73.33 67.12 C-72.67 66.79 -72.01 66.46 -71.33 66.12 C-70.28 63.81 -69.28 61.47 -68.33 59.12 C-68 58.46 -67.67 57.8 -67.33 57.12 C-66.67 57.45 -66.01 57.78 -65.33 58.12 C-65.25 57.07 -65.17 56.02 -65.08 54.93 C-64.1 49.93 -61.84 47.63 -58.33 44.12 C-57.58 42.39 -56.84 40.67 -56.12 38.93 C-54.59 35.41 -52.45 32.3 -50.33 29.12 C-50.06 28.15 -49.8 27.18 -49.52 26.18 C-48.07 22.44 -46.51 21.52 -43.33 19.12 C-41.49 17.06 -39.73 14.96 -37.98 12.83 C-36.33 11.12 -36.33 11.12 -33.33 10.12 C-33 9.13 -32.67 8.14 -32.33 7.12 C-31.57 7.02 -30.81 6.91 -30.02 6.81 C-27.3 6.36 -27.3 6.36 -25.83 4.56 C-24.33 3.12 -24.33 3.12 -21.77 3.06 C-20.56 3.09 -20.56 3.09 -19.33 3.12 C-18.67 2.46 -18.01 1.8 -17.33 1.12 C-11.58 -0.07 -5.86 -0.02 0 0 Z M-48.33 24.12 C-47.33 26.12 -47.33 26.12 -47.33 26.12 Z " fill="#262729" transform="translate(530.3327484130859,286.87974548339844)"/>
<path d="M0 0 C1.17 -0 2.34 -0.01 3.54 -0.01 C5.48 -0.01 5.48 -0.01 7.47 -0 C8.85 -0 10.24 -0.01 11.63 -0.01 C15.47 -0.01 19.31 -0.01 23.15 -0.01 C27.31 -0.01 31.48 -0.01 35.64 -0.01 C42.95 -0.02 50.26 -0.02 57.58 -0.02 C68.45 -0.02 79.32 -0.02 90.19 -0.03 C110.73 -0.04 131.28 -0.04 151.82 -0.04 C167.68 -0.04 183.53 -0.04 199.39 -0.05 C203.95 -0.05 208.51 -0.05 213.07 -0.05 C214.77 -0.05 214.77 -0.05 216.5 -0.05 C248.39 -0.06 280.28 -0.06 312.17 -0.06 C313.98 -0.06 313.98 -0.06 315.82 -0.06 C321.92 -0.06 328.02 -0.06 334.11 -0.06 C335.33 -0.06 336.54 -0.06 337.79 -0.06 C340.23 -0.06 342.68 -0.06 345.13 -0.06 C383.26 -0.06 421.38 -0.07 459.51 -0.08 C502.3 -0.09 545.1 -0.1 587.89 -0.1 C592.45 -0.1 597.01 -0.1 601.57 -0.1 C603.25 -0.1 603.25 -0.1 604.97 -0.1 C623.07 -0.1 641.18 -0.11 659.28 -0.12 C677.46 -0.13 695.64 -0.13 713.82 -0.12 C724.63 -0.12 735.44 -0.12 746.26 -0.13 C753.47 -0.13 760.68 -0.13 767.89 -0.13 C772.01 -0.12 776.12 -0.12 780.24 -0.13 C783.98 -0.14 787.71 -0.13 791.45 -0.13 C793.44 -0.12 795.43 -0.13 797.43 -0.14 C798.6 -0.13 799.77 -0.13 800.97 -0.12 C801.98 -0.12 803 -0.12 804.04 -0.12 C806.55 0.13 806.55 0.13 809.55 2.13 C809.91 5.14 809.91 5.14 809.89 9.05 C809.89 9.77 809.89 10.48 809.89 11.21 C809.89 13.57 809.86 15.93 809.84 18.29 C809.84 19.92 809.83 21.56 809.83 23.19 C809.82 27.5 809.79 31.8 809.75 36.1 C809.72 40.49 809.71 44.88 809.69 49.27 C809.66 57.89 809.61 66.51 809.55 75.13 C806.97 76.42 805.13 76.25 802.23 76.25 C801.1 76.25 799.96 76.26 798.79 76.26 C796.9 76.25 796.9 76.25 794.96 76.25 C793.62 76.25 792.27 76.25 790.92 76.25 C787.18 76.26 783.44 76.25 779.7 76.25 C775.65 76.25 771.59 76.25 767.54 76.25 C760.42 76.25 753.3 76.25 746.18 76.25 C735.6 76.24 725.02 76.24 714.43 76.24 C696.63 76.24 678.83 76.24 661.03 76.23 C643.4 76.23 625.77 76.22 608.13 76.22 C607.04 76.22 605.94 76.22 604.82 76.22 C599.26 76.22 593.69 76.22 588.13 76.22 C548.71 76.22 509.29 76.21 469.87 76.2 C431.57 76.19 393.27 76.19 354.96 76.18 C353.78 76.18 352.6 76.18 351.39 76.18 C339.54 76.18 327.69 76.18 315.84 76.18 C291.7 76.17 267.55 76.17 243.41 76.17 C242.3 76.17 241.19 76.17 240.05 76.17 C165.88 76.16 91.72 76.14 17.55 76.13 C17.55 75.47 17.55 74.81 17.55 74.13 C16.47 74.13 16.47 74.13 15.36 74.14 C12.11 74.16 8.86 74.18 5.61 74.19 C3.91 74.2 3.91 74.2 2.17 74.21 C1.09 74.22 0.01 74.22 -1.1 74.22 C-2.6 74.23 -2.6 74.23 -4.13 74.24 C-6.45 74.13 -6.45 74.13 -7.45 73.13 C-7.55 70.89 -7.57 68.64 -7.57 66.4 C-7.57 65.7 -7.57 65 -7.57 64.28 C-7.56 61.94 -7.56 59.61 -7.55 57.28 C-7.55 55.67 -7.55 54.05 -7.54 52.44 C-7.54 48.19 -7.53 43.93 -7.52 39.68 C-7.51 35.34 -7.51 31.01 -7.5 26.67 C-7.49 18.16 -7.47 9.64 -7.45 1.13 C-4.84 -0.18 -2.93 0 0 0 Z " fill="#262729" transform="translate(248.45151275396347,892.8735001683235)"/>
<path d="M0 0 C2.06 0.44 2.06 0.44 4 1 C3.75 6.21 2.08 8.44 -1.53 11.9 C-3 13 -3 13 -5 13 C-5.33 15.64 -5.66 18.28 -6 21 C-5.01 20.67 -4.02 20.34 -3 20 C-2.77 20.64 -2.55 21.28 -2.31 21.94 C-1.2 24.18 -1.2 24.18 1.02 24.62 C5.04 25.13 9.01 25.14 13.06 25.13 C13.93 25.13 14.8 25.13 15.7 25.14 C17.53 25.14 19.36 25.13 21.19 25.13 C23.99 25.13 26.79 25.13 29.59 25.14 C31.37 25.14 33.15 25.13 34.94 25.13 C35.77 25.13 36.6 25.14 37.46 25.14 C41.44 25.12 45.12 24.99 49 24 C49 23.34 49 22.68 49 22 C49.66 22 50.32 22 51 22 C51.89 19.33 52.48 16.76 53 14 C52.46 13.79 51.93 13.59 51.38 13.38 C47.56 11.17 43.78 8.17 42.26 3.93 C42 2 42 2 43 0 C44.65 0.33 46.3 0.66 48 1 C48 1.66 48 2.32 48 3 C49.98 3.66 51.96 4.32 54 5 C54 5.99 54 6.98 54 8 C54.57 8.14 55.15 8.28 55.74 8.43 C56.49 8.62 57.23 8.81 58 9 C58.68 9.17 59.37 9.34 60.07 9.51 C62.24 10.16 64.06 10.81 66 12 C67.34 15.18 68 17.56 68 21 C69.98 21.5 69.98 21.5 72 22 C72 22.66 72 23.32 72 24 C72.99 24 73.98 24 75 24 C75 24.99 75 25.98 75 27 C76.49 27.5 76.49 27.5 78 28 C78 28.99 78 29.98 78 31 C77.01 31 76.02 31 75 31 C74.67 31.66 74.34 32.32 74 33 C70.71 31.31 68.71 29.73 66.62 26.75 C64.21 23.58 64.21 23.58 60.31 23.88 C56.95 24.62 56.95 24.62 55.81 26.94 C55.54 27.62 55.28 28.3 55 29 C54.34 29.26 53.68 29.51 53 29.77 C50.72 30.85 50.72 30.85 50.4 33.51 C50.36 34.56 50.31 35.61 50.27 36.69 C50.21 37.86 50.16 39.03 50.1 40.23 C50.05 42.1 50.05 42.1 50 44 C49.94 45.83 49.94 45.83 49.88 47.7 C49.8 51.47 49.77 55.23 49.75 59 C49.73 60.28 49.71 61.57 49.69 62.89 C49.68 64.12 49.68 65.35 49.67 66.62 C49.66 67.73 49.65 68.84 49.64 69.98 C50.05 73.39 51.04 75.21 53 78 C53.77 79.14 53.77 79.14 54.56 80.31 C57.96 82.67 60.72 82.26 64.76 82.04 C67 82 67 82 69 83 C69 82.34 69 81.68 69 81 C70.63 79.62 72.29 78.28 74 77 C74.66 77.33 75.32 77.66 76 78 C74.73 80.04 73.39 82.04 72 84 C71.34 84 70.68 84 70 84 C70 84.66 70 85.32 70 86 C68.68 86.33 67.36 86.66 66 87 C65.67 89.97 65.34 92.94 65 96 C62.95 96.46 60.9 96.91 58.85 97.37 C56.79 97.83 56.79 97.83 56 100 C55.34 100 54.68 100 54 100 C53.73 100.64 53.46 101.28 53.19 101.94 C52 104 52 104 49 105 C49 105.66 49 106.32 49 107 C47.35 107 45.7 107 44 107 C43.03 103.97 42.75 101.97 44 99 C45.3 97.96 46.64 96.96 48 96 C48.54 95.28 49.07 94.56 49.62 93.81 C50.08 93.21 50.53 92.62 51 92 C51.66 92 52.32 92 53 92 C51.13 88.37 51.13 88.37 48 86 C48 85.01 48 84.02 48 83 C31.5 83.33 15 83.66 -2 84 C-2.66 85.32 -3.32 86.64 -4 88 C-4.66 88 -5.32 88 -6 88 C-5.23 91.49 -5.23 91.49 -4 95 C-2.52 95.5 -2.52 95.5 -1 96 C-1 96.66 -1 97.32 -1 98 C-0.36 98.29 0.28 98.58 0.94 98.88 C3 100 3 100 4 102 C1.69 102.99 -0.62 103.98 -3 105 C-4.5 103.62 -4.5 103.62 -6 102 C-6 101.34 -6 100.68 -6 100 C-7.48 99.5 -7.48 99.5 -9 99 C-10.48 98.5 -10.48 98.5 -12 98 C-12.95 97.86 -13.9 97.71 -14.88 97.56 C-19.14 95.43 -19.82 92.72 -21.7 88.48 C-23.01 85.99 -24.1 84.75 -26.31 83.06 C-27.2 82.38 -28.09 81.7 -29 81 C-29 80.01 -29 79.02 -29 78 C-29.66 78 -30.32 78 -31 78 C-31 77.01 -31 76.02 -31 75 C-31.66 74.67 -32.32 74.34 -33 74 C-29.75 73.25 -29.75 73.25 -26 73 C-23.94 74.62 -23.94 74.62 -22 77 C-18.49 80.71 -18.49 80.71 -13.81 82 C-11.73 80.85 -10.5 79.86 -9 78 C-8.55 75.62 -8.55 75.62 -8.63 72.92 C-8.62 71.88 -8.62 70.85 -8.61 69.78 C-8.62 68.67 -8.63 67.55 -8.64 66.4 C-8.64 65.26 -8.64 64.11 -8.64 62.93 C-8.64 60.51 -8.65 58.09 -8.66 55.67 C-8.69 51.95 -8.68 48.23 -8.68 44.51 C-8.68 42.16 -8.69 39.81 -8.7 37.46 C-8.7 36.35 -8.7 35.23 -8.7 34.08 C-8.71 32.53 -8.71 32.53 -8.73 30.95 C-8.73 29.59 -8.73 29.59 -8.74 28.19 C-8.8 25.79 -8.8 25.79 -11 24 C-13.69 23.73 -16.29 23.91 -19 24 C-19.15 25.42 -19.15 25.42 -19.31 26.88 C-20 30 -20 30 -23 32 C-24.99 32.7 -26.99 33.37 -29 34 C-29.66 32.68 -30.32 31.36 -31 30 C-27.38 24.25 -27.38 24.25 -24 22 C-22.87 19.98 -22.87 19.98 -22 18 C-21.67 17.67 -21.34 17.34 -21 17 C-20.86 16.2 -20.71 15.39 -20.56 14.56 C-20 12 -20 12 -18 10 C-16.89 9.88 -15.77 9.75 -14.62 9.62 C-10.46 8.91 -9.72 8.07 -7 5 C-5.02 3.64 -3.02 2.3 -1 1 C-0.67 0.67 -0.34 0.34 0 0 Z M-9 7 C-8 9 -8 9 -8 9 Z M65 15 C66 19 66 19 66 19 Z M-22 24 C-21 28 -21 28 -21 28 Z M46 104 C47 106 47 106 47 106 Z " fill="#27282A" transform="translate(64,431)"/>
<path d="M0 0 C0.8 -0 1.6 -0 2.43 -0 C3.26 -0 4.1 0 4.96 0.01 C5.81 0 6.65 0 7.51 -0 C13.78 0.01 13.78 0.01 14.9 1.13 C16.43 1.04 17.95 0.89 19.46 0.7 C20.29 0.59 21.12 0.49 21.97 0.39 C22.93 0.26 22.93 0.26 23.9 0.13 C24.23 1.12 24.56 2.11 24.9 3.13 C25.56 3.13 26.22 3.13 26.9 3.13 C28.22 6.76 29.54 10.39 30.9 14.13 C31.52 12.67 32.14 11.2 32.78 9.7 C34.65 5.26 34.65 5.26 36.9 4.13 C37.23 3.14 37.56 2.15 37.9 1.13 C39.88 0.8 41.86 0.47 43.9 0.13 C46.2 3.58 46.14 4.84 46.1 8.89 C46.09 10.01 46.08 11.13 46.08 12.28 C46.06 13.45 46.04 14.62 46.03 15.82 C46.02 17 46.01 18.18 46 19.39 C45.98 22.31 45.94 25.22 45.9 28.13 C44.09 29.2 44.09 29.2 41.9 30.13 C40.91 29.8 39.92 29.47 38.9 29.13 C38.9 26.49 38.9 23.85 38.9 21.13 C36.56 22.01 36.56 22.01 35.9 25.07 C35.57 26.08 35.24 27.09 34.9 28.13 C34.24 28.79 33.58 29.45 32.9 30.13 C30.96 30.01 30.96 30.01 28.9 29.13 C27.15 27.07 27.15 27.07 25.9 25.13 C25.65 25.77 25.41 26.41 25.15 27.07 C23.9 29.13 23.9 29.13 21.78 29.88 C20.85 30.01 20.85 30.01 19.9 30.13 C19.9 29.47 19.9 28.81 19.9 28.13 C18.91 28.13 17.92 28.13 16.9 28.13 C15.78 25.9 15.71 24.48 15.59 22 C15.54 21.19 15.5 20.39 15.46 19.56 C15.42 18.72 15.38 17.88 15.34 17.01 C15.3 16.16 15.25 15.31 15.21 14.43 C15.1 12.33 15 10.23 14.9 8.13 C12.92 8.46 10.94 8.79 8.9 9.13 C8.95 11.03 8.95 11.03 9.01 12.96 C9.04 14.62 9.06 16.29 9.09 17.95 C9.11 18.78 9.14 19.61 9.17 20.47 C9.18 21.27 9.19 22.08 9.2 22.9 C9.21 23.64 9.23 24.38 9.24 25.14 C8.81 27.66 7.83 28.53 5.9 30.13 C3.45 29.21 3.45 29.21 0.9 27.13 C0.11 24.09 0.11 21.08 0.09 17.95 C0.06 17.1 0.04 16.26 0.01 15.38 C-0.05 13.3 -0.07 11.22 -0.1 9.13 C-1.09 9.13 -2.08 9.13 -3.1 9.13 C-3.76 8.47 -4.42 7.81 -5.1 7.13 C-5.76 6.8 -6.42 6.47 -7.1 6.13 C-6.72 3.7 -6.72 3.7 -6.1 1.13 C-3.82 -0.01 -2.53 0 0 0 Z M43.9 4.13 C43.9 10.4 43.9 16.67 43.9 23.13 C44.23 23.13 44.56 23.13 44.9 23.13 C44.9 16.86 44.9 10.59 44.9 4.13 C44.57 4.13 44.24 4.13 43.9 4.13 Z " fill="#252628" transform="translate(1015.09765625,454.8671875)"/>
<path d="M0 0 C268.62 0 537.24 0 814 0 C814 0.33 814 0.66 814 1 C545.38 1 276.76 1 0 1 C0 0.67 0 0.34 0 0 Z " fill="#000102" transform="translate(246,443)"/>
<path d="M0 0 C1.65 0.33 3.3 0.66 5 1 C5 1.66 5 2.32 5 3 C6.98 3.66 8.96 4.32 11 5 C11 5.99 11 6.98 11 8 C11.57 8.14 12.15 8.28 12.74 8.43 C13.49 8.62 14.23 8.81 15 9 C15.68 9.17 16.37 9.34 17.07 9.51 C19.24 10.16 21.06 10.81 23 12 C24.34 15.18 25 17.56 25 21 C26.32 21.33 27.64 21.66 29 22 C29 22.66 29 23.32 29 24 C29.99 24 30.98 24 32 24 C32 24.99 32 25.98 32 27 C32.99 27.33 33.98 27.66 35 28 C35 28.99 35 29.98 35 31 C34.01 31 33.02 31 32 31 C31.67 31.66 31.34 32.32 31 33 C26.49 30.68 24.06 27.94 21 24 C17.01 24.57 14.42 25.93 11 28 C8 28 8 28 6 27 C6 26.34 6 25.68 6 25 C5.34 24.67 4.68 24.34 4 24 C4.66 24 5.32 24 6 24 C6 23.34 6 22.68 6 22 C6.66 22 7.32 22 8 22 C8.89 19.33 9.48 16.76 10 14 C9.2 13.69 9.2 13.69 8.38 13.38 C4.56 11.17 0.78 8.17 -0.74 3.93 C-1 2 -1 2 0 0 Z M22 15 C23 19 23 19 23 19 Z " fill="#1F2022" transform="translate(107,431)"/>
<path d="M0 0 C2.06 0.44 2.06 0.44 4 1 C3.75 6.21 2.08 8.44 -1.53 11.9 C-3 13 -3 13 -5 13 C-5.33 15.64 -5.66 18.28 -6 21 C-5.01 20.67 -4.02 20.34 -3 20 C-3 23 -3 23 -4 25 C-4.66 25 -5.32 25 -6 25 C-6.33 26.65 -6.66 28.3 -7 30 C-7.29 29.38 -7.58 28.76 -7.88 28.12 C-8.94 25.87 -8.94 25.87 -11 24 C-13.69 23.73 -16.29 23.91 -19 24 C-19.15 25.42 -19.15 25.42 -19.31 26.88 C-20 30 -20 30 -23 32 C-24.99 32.7 -26.99 33.37 -29 34 C-29.66 32.68 -30.32 31.36 -31 30 C-27.38 24.25 -27.38 24.25 -24 22 C-22.87 19.98 -22.87 19.98 -22 18 C-21.67 17.67 -21.34 17.34 -21 17 C-20.86 16.2 -20.71 15.39 -20.56 14.56 C-20 12 -20 12 -18 10 C-16.89 9.88 -15.77 9.75 -14.62 9.62 C-10.46 8.91 -9.72 8.07 -7 5 C-5.02 3.64 -3.02 2.3 -1 1 C-0.67 0.67 -0.34 0.34 0 0 Z M-9 7 C-8 9 -8 9 -8 9 Z M-22 24 C-21 28 -21 28 -21 28 Z " fill="#232426" transform="translate(64,431)"/>
<path d="M0 0 C0.81 0 1.61 0.01 2.44 0.01 C3.7 0.02 3.7 0.02 4.99 0.04 C5.84 0.04 6.69 0.04 7.57 0.05 C9.67 0.06 11.77 0.08 13.87 0.1 C14.49 3.47 14.49 3.47 14.87 7.1 C14.21 7.76 13.55 8.42 12.87 9.1 C11.55 9.1 10.23 9.1 8.87 9.1 C8.92 10.99 8.92 10.99 8.97 12.93 C9 14.59 9.03 16.25 9.05 17.91 C9.08 18.74 9.1 19.58 9.13 20.44 C9.14 21.24 9.15 22.04 9.16 22.87 C9.18 23.61 9.19 24.34 9.21 25.1 C8.78 27.62 7.79 28.49 5.87 30.1 C3.42 29.17 3.42 29.17 0.87 27.1 C0.07 24.05 0.08 21.04 0.05 17.91 C0.03 17.07 0 16.22 -0.02 15.35 C-0.08 13.27 -0.11 11.18 -0.13 9.1 C-1.12 9.1 -2.11 9.1 -3.13 9.1 C-3.79 8.44 -4.45 7.78 -5.13 7.1 C-5.79 6.77 -6.45 6.44 -7.13 6.1 C-6.76 3.66 -6.76 3.66 -6.13 1.1 C-3.84 -0.05 -2.55 -0.02 0 0 Z " fill="#242527" transform="translate(1015.1328125,454.90234375)"/>
<path d="M0 0 C33.66 0 67.32 0 102 0 C102.99 1.98 102.99 1.98 104 4 C69.35 3.67 34.7 3.34 -1 3 C-0.67 2.01 -0.34 1.02 0 0 Z " fill="#252628" transform="translate(942,657)"/>
<path d="M0 0 C44.88 0 89.76 0 136 0 C136 0.33 136 0.66 136 1 C91.12 1 46.24 1 0 1 C0 0.67 0 0.34 0 0 Z " fill="#000102" transform="translate(692,883)"/>
<path d="M0 0 C31.35 0 62.7 0 95 0 C95 0.33 95 0.66 95 1 C63.65 1 32.3 1 0 1 C0 0.67 0 0.34 0 0 Z " fill="#4A4B4C" transform="translate(144,753)"/>
<path d="M0 0 C0.33 0 0.66 0 1 0 C1 24.09 1 48.18 1 73 C0.67 73 0.34 73 0 73 C0 48.91 0 24.82 0 0 Z " fill="#000102" transform="translate(1062,369)"/>
<path d="M0 0 C0.33 0 0.66 0 1 0 C1 23.1 1 46.2 1 70 C0.67 70 0.34 70 0 70 C0 46.9 0 23.8 0 0 Z " fill="#262729" transform="translate(243,370)"/>
<path d="M0 0 C1.98 0.99 1.98 0.99 4 2 C4 1.34 4 0.68 4 0 C5.32 0 6.64 0 8 0 C8 0.66 8 1.32 8 2 C8.99 2 9.98 2 11 2 C11 2.99 11 3.98 11 5 C11.99 5.33 12.98 5.66 14 6 C14 6.99 14 7.98 14 9 C13.01 9 12.02 9 11 9 C10.67 9.66 10.34 10.32 10 11 C5.48 8.68 2.99 6.01 0 2 C0 1.34 0 0.68 0 0 Z " fill="#1B1C1E" transform="translate(128,453)"/>
<path d="M0 0 C0.99 0.33 1.98 0.66 3 1 C3 2.98 3 4.96 3 7 C1.35 6.67 -0.3 6.34 -2 6 C-1.01 7.32 -0.02 8.64 1 10 C-0.98 10.66 -2.96 11.32 -5 12 C-5.66 10.68 -6.32 9.36 -7 8 C-3.38 2.25 -3.38 2.25 0 0 Z " fill="#090A0B" transform="translate(40,453)"/>
<path d="M0 0 C3.06 2.53 5.48 5.94 8 9 C7.67 9.66 7.34 10.32 7 11 C5.68 10.01 4.36 9.02 3 8 C2.01 8.5 2.01 8.5 1 9 C0.38 8.36 -0.24 7.72 -0.88 7.06 C-2.83 4.96 -2.83 4.96 -5 4 C-5 3.01 -5 2.02 -5 1 C-5.66 0.67 -6.32 0.34 -7 0 C-3.83 -1.06 -3.01 -1.13 0 0 Z " fill="#0C0D0E" transform="translate(38,505)"/>
<path d="M0 0 C0.33 0 0.66 0 1 0 C1 17.16 1 34.32 1 52 C0.67 52 0.34 52 0 52 C0 34.84 0 17.68 0 0 Z " fill="#000102" transform="translate(199,498)"/>
<path d="M0 0 C1.32 0.33 2.64 0.66 4 1 C3.8 5.26 2.92 7.43 -0.06 10.38 C-1.03 11.24 -2 12.11 -3 13 C-3.66 12.67 -4.32 12.34 -5 12 C-4.01 10.68 -3.02 9.36 -2 8 C-2.66 7.67 -3.32 7.34 -4 7 C-2.68 4.69 -1.36 2.38 0 0 Z " fill="#2E2F31" transform="translate(64,431)"/>
<path d="M0 0 C14.85 0 29.7 0 45 0 C45 0.33 45 0.66 45 1 C30.15 1 15.3 1 0 1 C0 0.67 0 0.34 0 0 Z " fill="#262729" transform="translate(147,494)"/>
<path d="M0 0 C0.66 0.33 1.32 0.66 2 1 C2 1.66 2 2.32 2 3 C2.64 3.29 3.28 3.58 3.94 3.88 C6 5 6 5 7 7 C3.53 8.49 3.53 8.49 0 10 C-1.5 8.62 -1.5 8.62 -3 7 C-3 6.34 -3 5.68 -3 5 C-2.34 5 -1.68 5 -1 5 C-0.67 3.35 -0.34 1.7 0 0 Z " fill="#070809" transform="translate(61,526)"/>
<path d="M0 0 C0.66 0.99 1.32 1.98 2 3 C1.07 3.6 0.14 4.2 -0.81 4.81 C-3.88 6.78 -3.88 6.78 -5.75 8.75 C-6.37 9.37 -6.37 9.37 -7 10 C-7.66 10 -8.32 10 -9 10 C-8.65 6.87 -8.19 5.23 -6.19 2.75 C-4.02 1.02 -2.71 0.39 0 0 Z " fill="#0F1011" transform="translate(137,504)"/>
<path d="M0 0 C2.47 0.5 2.47 0.5 5 1 C5 1.66 5 2.32 5 3 C5.95 3.21 6.9 3.41 7.88 3.62 C11 5 11 5 12.38 8.12 C12.58 9.07 12.79 10.02 13 11 C7.95 8.86 3.65 5.05 0 1 C0 0.67 0 0.34 0 0 Z " fill="#1A1B1C" transform="translate(107,431)"/>
<path d="M0 0 C1.32 0.66 2.64 1.32 4 2 C4.99 1.34 5.98 0.68 7 0 C7.66 0.33 8.32 0.66 9 1 C7.62 3 7.62 3 6 5 C5.34 5 4.68 5 4 5 C3.67 5.66 3.34 6.32 3 7 C2.01 7.33 1.02 7.66 0 8 C-0.98 4.95 -0.98 3.05 0 0 Z " fill="#0A0B0C" transform="translate(108,530)"/>
<path d="M0 0 C0.33 0.66 0.66 1.32 1 2 C2.64 2.72 4.31 3.39 6 4 C6 4.66 6 5.32 6 6 C6.64 6.25 7.28 6.5 7.94 6.75 C10 8 10 8 10.75 10.12 C10.87 11.05 10.87 11.05 11 12 C8.96 10.38 6.96 8.71 5 7 C5 6.34 5 5.68 5 5 C4.34 5 3.68 5 3 5 C2.67 5.66 2.34 6.32 2 7 C0.44 4.62 0.44 4.62 -1 2 C-0.67 1.34 -0.34 0.68 0 0 Z " fill="#2F3032" transform="translate(107,432)"/>
<path d="M0 0 C2 2 2 2 2 5 C-1 7.19 -1 7.19 -4 9 C-4.66 7.35 -5.32 5.7 -6 4 C-5.2 3.53 -4.39 3.05 -3.56 2.56 C-1.15 1.23 -1.15 1.23 0 0 Z " fill="#28292B" transform="translate(115,525)"/>
<path d="M0 0 C0 4.39 -2.13 5.77 -5 9 C-5.66 8.67 -6.32 8.34 -7 8 C-7 6.68 -7 5.36 -7 4 C-4.69 2.68 -2.38 1.36 0 0 Z " fill="#0D0E10" transform="translate(62,433)"/>
<path d="M0 0 C6.93 0 13.86 0 21 0 C21 0.33 21 0.66 21 1 C14.07 1 7.14 1 0 1 C0 0.67 0 0.34 0 0 Z " fill="#4A4B4C" transform="translate(244,968)"/>
<path d="M0 0 C0.33 0 0.66 0 1 0 C1 6.27 1 12.54 1 19 C0.67 19 0.34 19 0 19 C0 12.73 0 6.46 0 0 Z " fill="#000102" transform="translate(760,658)"/>
<path d="M0 0 C4.95 0 9.9 0 15 0 C15 0.33 15 0.66 15 1 C10.05 1 5.1 1 0 1 C0 0.67 0 0.34 0 0 Z " fill="#000102" transform="translate(837,883)"/>
<path d="M0 0 C0.33 0 0.66 0 1 0 C1 4.95 1 9.9 1 15 C0.67 15 0.34 15 0 15 C0 10.05 0 5.1 0 0 Z " fill="#4A4B4C" transform="translate(364,607)"/>
<path d="M0 0 C4.62 0 9.24 0 14 0 C14 0.33 14 0.66 14 1 C9.38 1 4.76 1 0 1 C0 0.67 0 0.34 0 0 Z " fill="#000102" transform="translate(891,883)"/>
<path d="M0 0 C0.33 0 0.66 0 1 0 C1 4.62 1 9.24 1 14 C0.67 14 0.34 14 0 14 C0 9.38 0 4.76 0 0 Z " fill="#4A4B4C" transform="translate(369,571)"/>
<path d="M0 0 C3.96 0 7.92 0 12 0 C12 0.33 12 0.66 12 1 C8.04 1 4.08 1 0 1 C0 0.67 0 0.34 0 0 Z " fill="#000102" transform="translate(510,880)"/>
<path d="M0 0 C-0.33 1.32 -0.66 2.64 -1 4 C-1.66 4 -2.32 4 -3 4 C-3 3.34 -3 2.68 -3 2 C-3.66 1.67 -4.32 1.34 -5 1 C-3 0 -3 0 0 0 Z " fill="#2B2C2D" transform="translate(68,534)"/>
<path d="M0 0 C3.63 0 7.26 0 11 0 C11 0.33 11 0.66 11 1 C7.37 1 3.74 1 0 1 C0 0.67 0 0.34 0 0 Z " fill="#262729" transform="translate(655,555)"/>
<path d="M0 0 C3.63 0 7.26 0 11 0 C11 0.33 11 0.66 11 1 C7.37 1 3.74 1 0 1 C0 0.67 0 0.34 0 0 Z " fill="#000102" transform="translate(890,550)"/>
<path d="M0 0 C3.63 0 7.26 0 11 0 C11 0.33 11 0.66 11 1 C7.37 1 3.74 1 0 1 C0 0.67 0 0.34 0 0 Z " fill="#000102" transform="translate(855,550)"/>
<path d="M0 0 C2.64 0 5.28 0 8 0 C8 0.33 8 0.66 8 1 C5.36 1.66 2.72 2.32 0 3 C0 2.01 0 1.02 0 0 Z " fill="#000102" transform="translate(45,455)"/>
<path d="M0 0 C3.3 0 6.6 0 10 0 C10 0.33 10 0.66 10 1 C6.7 1 3.4 1 0 1 C0 0.67 0 0.34 0 0 Z " fill="#262729" transform="translate(629,816)"/>
<path d="M0 0 C0.33 0 0.66 0 1 0 C1 2.31 1 4.62 1 7 C-0.06 5.19 -0.06 5.19 -1 3 C-0.67 2.01 -0.34 1.02 0 0 Z " fill="#08090A" transform="translate(473,745)"/>
<path d="M0 0 C0.33 0 0.66 0 1 0 C1 2.97 1 5.94 1 9 C0.67 9 0.34 9 0 9 C0 6.03 0 3.06 0 0 Z " fill="#000102" transform="translate(373,548)"/>
<path d="M0 0 C0.99 0.5 0.99 0.5 2 1 C1.67 1.99 1.34 2.98 1 4 C0.67 2.68 0.34 1.36 0 0 Z " fill="#38393A" transform="translate(473,728)"/>
<path d="M0 0 C0.33 1.32 0.66 2.64 1 4 C0.34 3.67 -0.32 3.34 -1 3 C-0.67 2.01 -0.34 1.02 0 0 Z " fill="#000102" transform="translate(763,637)"/>
<path d="M0 0 C1.65 0 3.3 0 5 0 C5 0.33 5 0.66 5 1 C3.35 1 1.7 1 0 1 C0 0.67 0 0.34 0 0 Z " fill="#4A4B4C" transform="translate(498,881)"/>
<path d="M0 0 C0.33 0 0.66 0 1 0 C1 1.65 1 3.3 1 5 C0.67 5 0.34 5 0 5 C0 3.35 0 1.7 0 0 Z " fill="#000102" transform="translate(765,701)"/>
<path d="M0 0 C4 1 4 1 4 1 Z " fill="#000102" transform="translate(932,878)"/>
<path d="M0 0 C4 1 4 1 4 1 Z " fill="#000102" transform="translate(945,875)"/>
<path d="M0 0 C4 1 4 1 4 1 Z " fill="#000102" transform="translate(963,870)"/>
<path d="M0 0 C1 4 1 4 1 4 Z " fill="#000102" transform="translate(470,767)"/>
<path d="M0 0 C1 4 1 4 1 4 Z " fill="#000102" transform="translate(358,667)"/>
<path d="M0 0 C1 4 1 4 1 4 Z " fill="#000102" transform="translate(368,585)"/>
<path d="M0 0 C4 1 4 1 4 1 Z " fill="#000102" transform="translate(835,555)"/>
<path d="M0 0 C1 4 1 4 1 4 Z " fill="#000102" transform="translate(130,521)"/>
<path d="M0 0 C3 1 3 1 3 1 Z " fill="#3E3F40" transform="translate(910,881)"/>
<path d="M0 0 C3 1 3 1 3 1 Z " fill="#000102" transform="translate(987,862)"/>
<path d="M0 0 C3 1 3 1 3 1 Z " fill="#000102" transform="translate(603,839)"/>
<path d="M0 0 C0.33 0.66 0.66 1.32 1 2 C0.34 1.67 -0.32 1.34 -1 1 C-0.67 0.67 -0.34 0.34 0 0 Z " fill="#3E3F40" transform="translate(640,799)"/>
<path d="M0 0 C0.99 0.5 0.99 0.5 2 1 C1.01 1.5 1.01 1.5 0 2 C0 1.34 0 0.68 0 0 Z " fill="#191A1C" transform="translate(641,797)"/>
<path d="" fill="#000102" transform="translate(0,0)"/>
<path d="" fill="#000102" transform="translate(0,0)"/>
<path d="M0 0 C3 1 3 1 3 1 Z " fill="#000102" transform="translate(390,606)"/>
<path d="M0 0 C3 1 3 1 3 1 Z " fill="#000102" transform="translate(425,591)"/>
<path d="M0 0 C0.99 0.5 0.99 0.5 2 1 C1.01 1.5 1.01 1.5 0 2 C0 1.34 0 0.68 0 0 Z " fill="#313233" transform="translate(987,587)"/>
<path d="M0 0 C0.66 0 1.32 0 2 0 C1.67 0.66 1.34 1.32 1 2 C0.67 1.34 0.34 0.68 0 0 Z " fill="#000102" transform="translate(950,570)"/>
<path d="M0 0 C3 1 3 1 3 1 Z " fill="#000102" transform="translate(475,570)"/>
<path d="M0 0 C3 1 3 1 3 1 Z " fill="#000102" transform="translate(931,560)"/>
<path d="M0 0 C3 1 3 1 3 1 Z " fill="#000102" transform="translate(926,558)"/>
<path d="M0 0 C3 1 3 1 3 1 Z " fill="#000102" transform="translate(827,558)"/>
<path d="M0 0 C3 1 3 1 3 1 Z " fill="#000102" transform="translate(911,553)"/>
<path d="M0 0 C3 1 3 1 3 1 Z " fill="#000102" transform="translate(843,553)"/>
<path d="M0 0 C3 1 3 1 3 1 Z " fill="#000102" transform="translate(124,455)"/>
<path d="" fill="#262729" transform="translate(0,0)"/>
<path d="M0 0 C2 1 2 1 2 1 Z " fill="#000102" transform="translate(552,880)"/>
<path d="M0 0 C2 1 2 1 2 1 Z " fill="#000102" transform="translate(525,880)"/>
<path d="M0 0 C2 1 2 1 2 1 Z " fill="#000102" transform="translate(1004,855)"/>
<path d="M0 0 C2 1 2 1 2 1 Z " fill="#000102" transform="translate(1020,847)"/>
<path d="M0 0 C2 1 2 1 2 1 Z " fill="#000102" transform="translate(735,847)"/>
<path d="M0 0 C2 1 2 1 2 1 Z " fill="#4A4B4C" transform="translate(1021,845)"/>
<path d="M0 0 C2 1 2 1 2 1 Z " fill="#000102" transform="translate(724,839)"/>
<path d="M0 0 C2 1 2 1 2 1 Z " fill="#262729" transform="translate(695,816)"/>
<path d="" fill="#000102" transform="translate(0,0)"/>
<path d="" fill="#000102" transform="translate(0,0)"/>
<path d="" fill="#000102" transform="translate(0,0)"/>
<path d="" fill="#000102" transform="translate(0,0)"/>
<path d="M0 0 C2 1 2 1 2 1 Z " fill="#000102" transform="translate(545,665)"/>
<path d="" fill="#000102" transform="translate(0,0)"/>
<path d="" fill="#000102" transform="translate(0,0)"/>
<path d="M0 0 C2 1 2 1 2 1 Z " fill="#000102" transform="translate(484,619)"/>
<path d="" fill="#000102" transform="translate(0,0)"/>
<path d="M0 0 C2 1 2 1 2 1 Z " fill="#4A4B4C" transform="translate(430,589)"/>
<path d="M0 0 C2 1 2 1 2 1 Z " fill="#000102" transform="translate(438,586)"/>
<path d="M0 0 C2 1 2 1 2 1 Z " fill="#000102" transform="translate(457,578)"/>
<path d="M0 0 C2 1 2 1 2 1 Z " fill="#000102" transform="translate(469,573)"/>
<path d="M0 0 C2 1 2 1 2 1 Z " fill="#000102" transform="translate(488,565)"/>
<path d="M0 0 C2 1 2 1 2 1 Z " fill="#4A4B4C" transform="translate(1031,548)"/>
<path d="M0 0 C2 1 2 1 2 1 Z " fill="#4A4B4C" transform="translate(140,463)"/>
<path d="" fill="#262729" transform="translate(0,0)"/>
<path d="" fill="#4A4B4C" transform="translate(0,0)"/>
<path d="" fill="#4A4B4C" transform="translate(0,0)"/>
<path d="" fill="#262729" transform="translate(0,0)"/>
<path d="" fill="#000102" transform="translate(0,0)"/>
<path d="" fill="#000102" transform="translate(0,0)"/>
<path d="" fill="#000102" transform="translate(0,0)"/>
<path d="" fill="#4A4B4C" transform="translate(0,0)"/>
<path d="" fill="#000102" transform="translate(0,0)"/>
<path d="" fill="#4A4B4C" transform="translate(0,0)"/>
<path d="" fill="#000102" transform="translate(0,0)"/>
<path d="" fill="#4A4B4C" transform="translate(0,0)"/>
<path d="" fill="#000102" transform="translate(0,0)"/>
<path d="" fill="#000102" transform="translate(0,0)"/>
<path d="" fill="#000102" transform="translate(0,0)"/>
<path d="" fill="#000102" transform="translate(0,0)"/>
<path d="" fill="#4A4B4C" transform="translate(0,0)"/>
<path d="" fill="#4A4B4C" transform="translate(0,0)"/>
<path d="" fill="#262729" transform="translate(0,0)"/>
<path d="" fill="#000102" transform="translate(0,0)"/>
<path d="" fill="#000102" transform="translate(0,0)"/>
<path d="" fill="#4A4B4C" transform="translate(0,0)"/>
<path d="" fill="#000102" transform="translate(0,0)"/>
<path d="" fill="#4A4B4C" transform="translate(0,0)"/>
<path d="" fill="#4A4B4C" transform="translate(0,0)"/>
<path d="" fill="#000102" transform="translate(0,0)"/>
<path d="" fill="#4A4B4C" transform="translate(0,0)"/>
<path d="" fill="#000102" transform="translate(0,0)"/>
<path d="" fill="#000102" transform="translate(0,0)"/>
<path d="" fill="#000102" transform="translate(0,0)"/>
<path d="" fill="#000102" transform="translate(0,0)"/>
<path d="" fill="#000102" transform="translate(0,0)"/>
<path d="" fill="#4A4B4C" transform="translate(0,0)"/>
<path d="" fill="#000102" transform="translate(0,0)"/>
<path d="" fill="#000102" transform="translate(0,0)"/>
<path d="" fill="#000102" transform="translate(0,0)"/>
<path d="" fill="#000102" transform="translate(0,0)"/>
<path d="" fill="#000102" transform="translate(0,0)"/>
<path d="" fill="#000102" transform="translate(0,0)"/>
<path d="" fill="#000102" transform="translate(0,0)"/>
<path d="" fill="#4A4B4C" transform="translate(0,0)"/>
<path d="" fill="#000102" transform="translate(0,0)"/>
<path d="" fill="#000102" transform="translate(0,0)"/>
<path d="" fill="#000102" transform="translate(0,0)"/>
<path d="" fill="#000102" transform="translate(0,0)"/>
<path d="" fill="#000102" transform="translate(0,0)"/>
<path d="" fill="#000102" transform="translate(0,0)"/>
<path d="" fill="#4A4B4C" transform="translate(0,0)"/>
<path d="" fill="#4A4B4C" transform="translate(0,0)"/>
<path d="" fill="#000102" transform="translate(0,0)"/>
<path d="" fill="#4A4B4C" transform="translate(0,0)"/>
<path d="" fill="#000102" transform="translate(0,0)"/>
<path d="" fill="#000102" transform="translate(0,0)"/>
<path d="" fill="#4A4B4C" transform="translate(0,0)"/>
<path d="" fill="#000102" transform="translate(0,0)"/>
<path d="" fill="#4A4B4C" transform="translate(0,0)"/>
<path d="" fill="#000102" transform="translate(0,0)"/>
<path d="" fill="#000102" transform="translate(0,0)"/>
<path d="" fill="#4A4B4C" transform="translate(0,0)"/>
<path d="" fill="#000102" transform="translate(0,0)"/>
<path d="" fill="#000102" transform="translate(0,0)"/>
<path d="" fill="#4A4B4C" transform="translate(0,0)"/>
<path d="" fill="#000102" transform="translate(0,0)"/>
<path d="" fill="#000102" transform="translate(0,0)"/>
<path d="" fill="#000102" transform="translate(0,0)"/>
<path d="" fill="#000102" transform="translate(0,0)"/>
<path d="" fill="#000102" transform="translate(0,0)"/>
<path d="" fill="#262729" transform="translate(0,0)"/>
<path d="" fill="#000102" transform="translate(0,0)"/>
<path d="" fill="#000102" transform="translate(0,0)"/>
<path d="" fill="#000102" transform="translate(0,0)"/>
<path d="" fill="#4A4B4C" transform="translate(0,0)"/>
<path d="" fill="#000102" transform="translate(0,0)"/>
<path d="" fill="#4A4B4C" transform="translate(0,0)"/>
<path d="" fill="#000102" transform="translate(0,0)"/>
<path d="" fill="#000102" transform="translate(0,0)"/>
<path d="" fill="#4A4B4C" transform="translate(0,0)"/>
<path d="" fill="#000102" transform="translate(0,0)"/>
<path d="" fill="#4A4B4C" transform="translate(0,0)"/>
<path d="" fill="#000102" transform="translate(0,0)"/>
<path d="" fill="#000102" transform="translate(0,0)"/>
<path d="" fill="#000102" transform="translate(0,0)"/>
<path d="" fill="#000102" transform="translate(0,0)"/>
<path d="" fill="#4A4B4C" transform="translate(0,0)"/>
<path d="" fill="#4A4B4C" transform="translate(0,0)"/>
<path d="" fill="#000102" transform="translate(0,0)"/>
<path d="" fill="#000102" transform="translate(0,0)"/>
<path d="" fill="#000102" transform="translate(0,0)"/>
<path d="" fill="#262729" transform="translate(0,0)"/>
<path d="" fill="#000102" transform="translate(0,0)"/>
<path d="" fill="#4A4B4C" transform="translate(0,0)"/>
<path d="" fill="#4A4B4C" transform="translate(0,0)"/>
<path d="" fill="#000102" transform="translate(0,0)"/>
<path d="" fill="#000102" transform="translate(0,0)"/>
<path d="" fill="#000102" transform="translate(0,0)"/>
<path d="" fill="#000102" transform="translate(0,0)"/>
<path d="" fill="#262729" transform="translate(0,0)"/>
<path d="" fill="#000102" transform="translate(0,0)"/>
<path d="" fill="#000102" transform="translate(0,0)"/>
<path d="" fill="#000102" transform="translate(0,0)"/>
<path d="" fill="#000102" transform="translate(0,0)"/>
<path d="" fill="#262729" transform="translate(0,0)"/>
<path d="" fill="#000102" transform="translate(0,0)"/>
<path d="" fill="#000102" transform="translate(0,0)"/>
<path d="" fill="#262729" transform="translate(0,0)"/>
<path d="" fill="#262729" transform="translate(0,0)"/>
<path d="" fill="#262729" transform="translate(0,0)"/>
<path d="" fill="#262729" transform="translate(0,0)"/>
<path d="" fill="#262729" transform="translate(0,0)"/>
<path d="" fill="#262729" transform="translate(0,0)"/>
</svg>
